Topmarks-Bold-FForge.ufo
<glyph name="exclam" format="1">
  <advance width="368"/>
  <unicode hex="0021"/>
  <outline>
    <contour>
      <point x="127" y="726" type="line"/>
      <point x="152" y="186" type="line"/>
      <point x="196" y="186" type="line"/>
      <point x="220" y="726" type="line"/>
    </contour>
    <contour>
      <point x="120" y="53" type="curve" smooth="yes"/>
      <point x="120" y="23"/>
      <point x="140" y="-3"/>
      <point x="176" y="-3" type="curve" smooth="yes"/>
      <point x="204" y="-3"/>
      <point x="233" y="17"/>
      <point x="233" y="52" type="curve" smooth="yes"/>
      <point x="233" y="82"/>
      <point x="212" y="108"/>
      <point x="176" y="108" type="curve" smooth="yes"/>
      <point x="148" y="108"/>
      <point x="120" y="88"/>
    </contour>
  </outline>
</glyph>
<glyph name="quotedbl" format="1">
  <advance width="360"/>
  <unicode hex="0022"/>
  <outline>
    <contour>
      <point x="57" y="726" type="line"/>
      <point x="75" y="494" type="line"/>
      <point x="140" y="494" type="line"/>
      <point x="140" y="726" type="line"/>
    </contour>
    <contour>
      <point x="202" y="726" type="line"/>
      <point x="220" y="494" type="line"/>
      <point x="284" y="494" type="line"/>
      <point x="284" y="726" type="line"/>
    </contour>
  </outline>
</glyph>
<glyph name="numbersign" format="1">
  <advance width="2187"/>
  <unicode hex="0023"/>
  <outline>
    <contour>
      <point x="271" y="106" type="line"/>
      <point x="443" y="106" type="line"/>
      <point x="539" y="605" type="line"/>
      <point x="845" y="605" type="line"/>
      <point x="752" y="106" type="line"/>
      <point x="922" y="106" type="line"/>
      <point x="1019" y="605" type="line"/>
      <point x="1324" y="605" type="line"/>
      <point x="1341" y="752" type="line"/>
      <point x="1045" y="752" type="line"/>
      <point x="1105" y="1076" type="line"/>
      <point x="1398" y="1076" type="line"/>
      <point x="1415" y="1221" type="line"/>
      <point x="1132" y="1221" type="line"/>
      <point x="1224" y="1703" type="line"/>
      <point x="1052" y="1703" type="line"/>
      <point x="962" y="1221" type="line"/>
      <point x="656" y="1221" type="line"/>
      <point x="747" y="1703" type="line"/>
      <point x="575" y="1703" type="line"/>
      <point x="482" y="1221" type="line"/>
      <point x="166" y="1221" type="line"/>
      <point x="150" y="1076" type="line"/>
      <point x="457" y="1076" type="line"/>
      <point x="437" y="967"/>
      <point x="417" y="863"/>
      <point x="398" y="752" type="curve"/>
      <point x="87" y="752" type="line"/>
      <point x="74" y="605" type="line"/>
      <point x="370" y="605" type="line"/>
    </contour>
    <contour>
      <point x="565" y="752" type="line"/>
      <point x="629" y="1076" type="line"/>
      <point x="935" y="1076" type="line"/>
      <point x="875" y="752" type="line"/>
    </contour>
  </outline>
</glyph>
<glyph name="dollar" format="1">
  <advance width="2095"/>
  <unicode hex="0024"/>
  <outline>
    <contour>
      <point x="710" y="-303" type="line"/>
      <point x="855" y="-303" type="line"/>
      <point x="851" y="-114" type="line"/>
      <point x="918" y="-107"/>
      <point x="982" y="-95"/>
      <point x="1042" y="-73" type="curve" smooth="yes"/>
      <point x="1204" y="-14"/>
      <point x="1348" y="106"/>
      <point x="1348" y="322" type="curve" smooth="yes"/>
      <point x="1348" y="459"/>
      <point x="1299" y="541"/>
      <point x="1222" y="608" type="curve" smooth="yes"/>
      <point x="1123" y="694"/>
      <point x="995" y="747"/>
      <point x="851" y="803" type="curve"/>
      <point x="853" y="1424" type="line"/>
      <point x="997" y="1420"/>
      <point x="1111" y="1380"/>
      <point x="1194" y="1306" type="curve"/>
      <point x="1251" y="1456" type="line"/>
      <point x="1157" y="1536"/>
      <point x="1017" y="1585"/>
      <point x="852" y="1588" type="curve"/>
      <point x="848" y="1748" type="line"/>
      <point x="703" y="1748" type="line"/>
      <point x="708" y="1587" type="line"/>
      <point x="575" y="1577"/>
      <point x="462" y="1516"/>
      <point x="384" y="1443" type="curve" smooth="yes"/>
      <point x="309" y="1372"/>
      <point x="242" y="1266"/>
      <point x="242" y="1128" type="curve" smooth="yes"/>
      <point x="242" y="1063"/>
      <point x="255" y="1007"/>
      <point x="279" y="961" type="curve" smooth="yes"/>
      <point x="363" y="806"/>
      <point x="539" y="736"/>
      <point x="708" y="660" type="curve"/>
      <point x="703" y="48" type="line"/>
      <point x="574" y="54"/>
      <point x="463" y="103"/>
      <point x="375" y="161" type="curve"/>
      <point x="318" y="3" type="line"/>
      <point x="422" y="-72"/>
      <point x="542" y="-117"/>
      <point x="705" y="-120" type="curve"/>
    </contour>
    <contour>
      <point x="848" y="52" type="curve"/>
      <point x="853" y="610" type="line"/>
      <point x="979" y="556"/>
      <point x="1139" y="494"/>
      <point x="1139" y="319" type="curve" smooth="yes"/>
      <point x="1139" y="281"/>
      <point x="1130" y="247"/>
      <point x="1115" y="216" type="curve" smooth="yes"/>
      <point x="1069" y="125"/>
      <point x="970" y="69"/>
    </contour>
    <contour>
      <point x="705" y="859" type="line"/>
      <point x="579" y="906"/>
      <point x="464" y="971"/>
      <point x="464" y="1143" type="curve" smooth="yes"/>
      <point x="464" y="1300"/>
      <point x="567" y="1399"/>
      <point x="708" y="1417" type="curve"/>
    </contour>
  </outline>
</glyph>
<glyph name="ampersand" format="1">
  <advance width="2900"/>
  <unicode hex="0026"/>
  <outline>
    <contour>
      <point x="844" y="-47" type="curve" smooth="yes"/>
      <point x="1117" y="-47"/>
      <point x="1297" y="66"/>
      <point x="1437" y="203" type="curve"/>
      <point x="1542" y="102"/>
      <point x="1638" y="-4"/>
      <point x="1812" y="-30" type="curve"/>
      <point x="1968" y="85" type="line"/>
      <point x="1919" y="96"/>
      <point x="1875" y="107"/>
      <point x="1838" y="118" type="curve"/>
      <point x="1711" y="160"/>
      <point x="1634" y="229"/>
      <point x="1547" y="318" type="curve"/>
      <point x="1678" y="485"/>
      <point x="1775" y="718"/>
      <point x="1785" y="998" type="curve"/>
      <point x="1589" y="1022" type="line"/>
      <point x="1589" y="973"/>
      <point x="1585" y="924"/>
      <point x="1576" y="872" type="curve" smooth="yes"/>
      <point x="1549" y="710"/>
      <point x="1489" y="564"/>
      <point x="1411" y="452" type="curve"/>
      <point x="924" y="949" type="line"/>
      <point x="1016" y="998"/>
      <point x="1107" y="1059"/>
      <point x="1174" y="1132" type="curve"/>
      <point x="1231" y="1192"/>
      <point x="1284" y="1271"/>
      <point x="1284" y="1379" type="curve" smooth="yes"/>
      <point x="1284" y="1436"/>
      <point x="1272" y="1484"/>
      <point x="1246" y="1527" type="curve" smooth="yes"/>
      <point x="1175" y="1644"/>
      <point x="1031" y="1714"/>
      <point x="844" y="1714" type="curve" smooth="yes"/>
      <point x="610" y="1714"/>
      <point x="419" y="1606"/>
      <point x="419" y="1373" type="curve" smooth="yes"/>
      <point x="419" y="1332"/>
      <point x="425" y="1293"/>
      <point x="438" y="1259" type="curve" smooth="yes"/>
      <point x="480" y="1144"/>
      <point x="567" y="1066"/>
      <point x="648" y="985" type="curve"/>
      <point x="538" y="926"/>
      <point x="424" y="858"/>
      <point x="341" y="773" type="curve" smooth="yes"/>
      <point x="265" y="696"/>
      <point x="203" y="599"/>
      <point x="203" y="456" type="curve" smooth="yes"/>
      <point x="203" y="377"/>
      <point x="217" y="305"/>
      <point x="250" y="243" type="curve" smooth="yes"/>
      <point x="348" y="57"/>
      <point x="562" y="-47"/>
    </contour>
    <contour>
      <point x="840" y="120" type="curve" smooth="yes"/>
      <point x="778" y="120"/>
      <point x="721" y="129"/>
      <point x="669" y="146" type="curve" smooth="yes"/>
      <point x="535" y="191"/>
      <point x="414" y="288"/>
      <point x="414" y="461" type="curve" smooth="yes"/>
      <point x="414" y="512"/>
      <point x="424" y="557"/>
      <point x="443" y="597" type="curve" smooth="yes"/>
      <point x="507" y="726"/>
      <point x="637" y="799"/>
      <point x="765" y="865" type="curve"/>
      <point x="1035" y="599" type="line" smooth="yes"/>
      <point x="1116" y="518"/>
      <point x="1203" y="425"/>
      <point x="1282" y="349" type="curve" smooth="yes"/>
      <point x="1297" y="334"/>
      <point x="1308" y="326"/>
      <point x="1310" y="326" type="curve"/>
      <point x="1196" y="215"/>
      <point x="1064" y="120"/>
    </contour>
    <contour>
      <point x="802" y="1062" type="curve"/>
      <point x="775" y="1087"/>
      <point x="750" y="1110"/>
      <point x="728" y="1133" type="curve" smooth="yes"/>
      <point x="675" y="1191"/>
      <point x="622" y="1260"/>
      <point x="622" y="1367" type="curve" smooth="yes"/>
      <point x="622" y="1496"/>
      <point x="724" y="1557"/>
      <point x="853" y="1557" type="curve" smooth="yes"/>
      <point x="979" y="1557"/>
      <point x="1084" y="1495"/>
      <point x="1084" y="1367" type="curve" smooth="yes"/>
      <point x="1084" y="1334"/>
      <point x="1075" y="1304"/>
      <point x="1059" y="1275" type="curve" smooth="yes"/>
      <point x="1006" y="1179"/>
      <point x="902" y="1114"/>
    </contour>
  </outline>
</glyph>
<glyph name="parenleft" format="1">
  <advance width="314"/>
  <unicode hex="0028"/>
  <outline>
    <contour>
      <point x="215" y="726" type="line"/>
      <point x="194" y="693"/>
      <point x="175" y="659"/>
      <point x="158" y="625" type="curve" smooth="yes"/>
      <point x="112" y="533"/>
      <point x="76" y="428"/>
      <point x="76" y="294" type="curve" smooth="yes"/>
      <point x="76" y="256"/>
      <point x="80" y="218"/>
      <point x="88" y="180" type="curve" smooth="yes"/>
      <point x="112" y="60"/>
      <point x="159" y="-42"/>
      <point x="216" y="-130" type="curve"/>
      <point x="290" y="-130" type="line"/>
      <point x="270" y="-98"/>
      <point x="251" y="-65"/>
      <point x="235" y="-30" type="curve" smooth="yes"/>
      <point x="193" y="60"/>
      <point x="158" y="168"/>
      <point x="158" y="295" type="curve" smooth="yes"/>
      <point x="158" y="472"/>
      <point x="215" y="608"/>
      <point x="289" y="726" type="curve"/>
    </contour>
  </outline>
</glyph>
<glyph name="parenright" format="1">
  <advance width="1105"/>
  <unicode hex="0029"/>
  <outline>
    <contour>
      <point x="85" y="-316" type="curve"/>
      <point x="348" y="-316" type="line"/>
      <point x="551" y="56"/>
      <point x="651" y="365"/>
      <point x="651" y="673" type="curve" smooth="yes"/>
      <point x="651" y="989"/>
      <point x="544" y="1305"/>
      <point x="337" y="1692" type="curve"/>
      <point x="74" y="1692" type="line"/>
      <point x="251" y="1303"/>
      <point x="343" y="987"/>
      <point x="343" y="670" type="curve" smooth="yes"/>
      <point x="343" y="363"/>
      <point x="259" y="56"/>
    </contour>
  </outline>
</glyph>
<glyph name="asterisk" format="1">
  <advance width="1875"/>
  <unicode hex="002A"/>
  <outline>
    <contour>
      <point x="915" y="1298" type="line"/>
      <point x="1063" y="1384" type="line"/>
      <point x="827" y="1679" type="line"/>
      <point x="1136" y="1782" type="line"/>
      <point x="1060" y="1928" type="line"/>
      <point x="785" y="1786" type="line"/>
      <point x="785" y="2136" type="line"/>
      <point x="618" y="2136" type="line"/>
      <point x="633" y="2019"/>
      <point x="651" y="1898"/>
      <point x="666" y="1780" type="curve"/>
      <point x="333" y="1925" type="line"/>
      <point x="308" y="1766" type="line"/>
      <point x="629" y="1675" type="line"/>
      <point x="404" y="1395" type="line"/>
      <point x="550" y="1307" type="line"/>
      <point x="730" y="1610" type="line"/>
    </contour>
  </outline>
</glyph>
<glyph name="plus" format="1">
  <advance width="729"/>
  <unicode hex="002B"/>
  <outline>
    <contour>
      <point x="324" y="524" type="line"/>
      <point x="324" y="312" type="line"/>
      <point x="99" y="312" type="line"/>
      <point x="99" y="242" type="line"/>
      <point x="323" y="242" type="line"/>
      <point x="323" y="31" type="line"/>
      <point x="398" y="31" type="line"/>
      <point x="398" y="242" type="line"/>
      <point x="623" y="242" type="line"/>
      <point x="623" y="312" type="line"/>
      <point x="398" y="312" type="line"/>
      <point x="398" y="524" type="line"/>
    </contour>
  </outline>
</glyph>
<glyph name="comma" format="1">
  <advance width="270"/>
  <unicode hex="002C"/>
  <outline>
    <contour>
      <point x="92" y="104" type="line"/>
      <point x="39" y="-128" type="line"/>
      <point x="104" y="-128" type="line"/>
      <point x="186" y="104" type="line"/>
    </contour>
  </outline>
</glyph>
<glyph name="period" format="1">
  <advance width="951"/>
  <unicode hex="002E"/>
  <outline>
    <contour>
      <point x="316" y="0" type="curve" smooth="yes"/>
      <point x="412" y="0"/>
      <point x="481" y="66"/>
      <point x="481" y="160" type="curve" smooth="yes"/>
      <point x="481" y="255"/>
      <point x="412" y="322"/>
      <point x="316" y="322" type="curve" smooth="yes"/>
      <point x="220" y="322"/>
      <point x="151" y="255"/>
      <point x="151" y="163" type="curve" smooth="yes"/>
      <point x="151" y="68"/>
      <point x="220" y="0"/>
    </contour>
  </outline>
</glyph>
<glyph name="slash" format="1">
  <advance width="1262"/>
  <unicode hex="002F"/>
  <outline>
    <contour>
      <point x="-83" y="-378" type="line"/>
      <point x="80" y="-378" type="line"/>
      <point x="717" y="1280" type="line"/>
      <point x="550" y="1280" type="line"/>
    </contour>
  </outline>
</glyph>
<glyph name="zero" format="1">
  <advance width="2147"/>
  <unicode hex="0030"/>
  <outline>
    <contour>
      <point x="630" y="224" type="curve" smooth="yes"/>
      <point x="450" y="224"/>
      <point x="331" y="429"/>
      <point x="331" y="735" type="curve" smooth="yes"/>
      <point x="331" y="1047"/>
      <point x="450" y="1255"/>
      <point x="630" y="1255" type="curve" smooth="yes"/>
      <point x="808" y="1255"/>
      <point x="925" y="1047"/>
      <point x="925" y="735" type="curve" smooth="yes"/>
      <point x="925" y="429"/>
      <point x="808" y="224"/>
    </contour>
    <contour>
      <point x="630" y="6" type="curve" smooth="yes"/>
      <point x="975" y="6"/>
      <point x="1206" y="297"/>
      <point x="1206" y="735" type="curve" smooth="yes"/>
      <point x="1206" y="1179"/>
      <point x="975" y="1474"/>
      <point x="630" y="1474" type="curve" smooth="yes"/>
      <point x="288" y="1474"/>
      <point x="58" y="1179"/>
      <point x="58" y="735" type="curve" smooth="yes"/>
      <point x="58" y="297"/>
      <point x="288" y="6"/>
    </contour>
  </outline>
</glyph>
<glyph name="one" format="1">
  <advance width="595"/>
  <unicode hex="0031"/>
  <outline>
    <contour>
      <point x="280" y="718" type="line"/>
      <point x="246" y="692"/>
      <point x="184" y="656"/>
      <point x="126" y="630" type="curve"/>
      <point x="147" y="564" type="line"/>
      <point x="200" y="586"/>
      <point x="243" y="610"/>
      <point x="276" y="635" type="curve"/>
      <point x="276" y="0" type="line"/>
      <point x="362" y="0" type="line"/>
      <point x="362" y="719" type="line"/>
    </contour>
  </outline>
</glyph>
<glyph name="two" format="1">
  <advance width="2198"/>
  <unicode hex="0032"/>
  <outline>
    <contour>
      <point x="147" y="-6" type="line"/>
      <point x="1078" y="-6" type="line"/>
      <point x="1078" y="209" type="line"/>
      <point x="501" y="209" type="line"/>
      <point x="567" y="270"/>
      <point x="723" y="387"/>
      <point x="863" y="534" type="curve" smooth="yes"/>
      <point x="1002" y="682"/>
      <point x="1125" y="861"/>
      <point x="1125" y="1045" type="curve" smooth="yes"/>
      <point x="1125" y="1343"/>
      <point x="878" y="1474"/>
      <point x="624" y="1474" type="curve" smooth="yes"/>
      <point x="408" y="1474"/>
      <point x="189" y="1381"/>
      <point x="111" y="1203" type="curve"/>
      <point x="277" y="1066" type="line"/>
      <point x="351" y="1192"/>
      <point x="488" y="1254"/>
      <point x="609" y="1254" type="curve" smooth="yes"/>
      <point x="735" y="1254"/>
      <point x="842" y="1188"/>
      <point x="842" y="1042" type="curve" smooth="yes"/>
      <point x="842" y="891"/>
      <point x="723" y="727"/>
      <point x="576" y="577" type="curve" smooth="yes"/>
      <point x="429" y="427"/>
      <point x="255" y="291"/>
      <point x="146" y="192" type="curve"/>
    </contour>
  </outline>
</glyph>
<glyph name="three" format="1">
  <advance width="595"/>
  <unicode hex="0033"/>
  <outline>
    <contour>
      <point x="60" y="608" type="curve"/>
      <point x="110" y="564" type="line"/>
      <point x="142" y="618"/>
      <point x="192" y="653"/>
      <point x="272" y="653" type="curve" smooth="yes"/>
      <point x="352" y="653"/>
      <point x="413" y="621"/>
      <point x="413" y="542" type="curve" smooth="yes"/>
      <point x="413" y="434"/>
      <point x="332" y="406"/>
      <point x="223" y="406" type="curve" smooth="yes"/>
      <point x="192" y="406" type="line"/>
      <point x="192" y="335" type="line"/>
      <point x="231" y="336" type="line"/>
      <point x="231" y="336" type="line"/>
      <point x="343" y="339"/>
      <point x="436" y="308"/>
      <point x="436" y="198" type="curve" smooth="yes"/>
      <point x="436" y="106"/>
      <point x="357" y="60"/>
      <point x="264" y="60" type="curve" smooth="yes"/>
      <point x="178" y="60"/>
      <point x="120" y="100"/>
      <point x="96" y="162" type="curve"/>
      <point x="54" y="112" type="line"/>
      <point x="72" y="28"/>
      <point x="158" y="-11"/>
      <point x="260" y="-11" type="curve" smooth="yes"/>
      <point x="398" y="-11"/>
      <point x="524" y="58"/>
      <point x="524" y="196" type="curve" smooth="yes"/>
      <point x="524" y="302"/>
      <point x="450" y="355"/>
      <point x="360" y="373" type="curve"/>
      <point x="438" y="395"/>
      <point x="505" y="445"/>
      <point x="505" y="543" type="curve" smooth="yes"/>
      <point x="505" y="663"/>
      <point x="397" y="724"/>
      <point x="275" y="724" type="curve" smooth="yes"/>
      <point x="173" y="724"/>
      <point x="90" y="682"/>
    </contour>
  </outline>
</glyph>
<glyph name="four" format="1">
  <advance width="2094"/>
  <unicode hex="0034"/>
  <outline>
    <contour>
      <point x="711" y="0" type="line"/>
      <point x="970" y="0" type="line"/>
      <point x="970" y="322" type="line"/>
      <point x="1155" y="322" type="line"/>
      <point x="1155" y="520" type="line"/>
      <point x="970" y="520" type="line"/>
      <point x="970" y="1413" type="line"/>
      <point x="686" y="1413" type="line"/>
      <point x="44" y="513" type="line"/>
      <point x="44" y="322" type="line"/>
      <point x="711" y="322" type="line"/>
    </contour>
    <contour>
      <point x="304" y="520" type="line"/>
      <point x="605" y="951" type="line"/>
      <point x="711" y="1126" type="line"/>
      <point x="711" y="520" type="line"/>
    </contour>
  </outline>
</glyph>
<glyph name="five" format="1">
  <advance width="2095"/>
  <unicode hex="0035"/>
  <outline>
    <contour>
      <point x="259" y="158" type="line"/>
      <point x="371.996515512" y="25.9212914705"/>
      <point x="533.851701355" y="-33.4993944194"/>
      <point x="692.184492423" y="-31.9430351879" type="curve" smooth="yes"/>
      <point x="957.019643178" y="-29.3397928089"/>
      <point x="1212.0" y="143.862219095"/>
      <point x="1212" y="433" type="curve" smooth="yes"/>
      <point x="1212.0" y="773.190251231"/>
      <point x="995.240424281" y="927.849001212"/>
      <point x="790.77230586" y="929.34215678" type="curve" smooth="yes"/>
      <point x="693.518093686" y="930.052368571"/>
      <point x="599.044676781" y="896.11069572"/>
      <point x="532" y="831" type="curve"/>
      <point x="547" y="1205" type="line"/>
      <point x="1103" y="1205" type="line"/>
      <point x="1103" y="1404" type="line"/>
      <point x="315" y="1404" type="line"/>
      <point x="315" y="624" type="line"/>
      <point x="490" y="624" type="line"/>
      <point x="563.599321157" y="697.98066479"/>
      <point x="650.722978187" y="734.15135832"/>
      <point x="730.353100734" y="733.066641815" type="curve" smooth="yes"/>
      <point x="859.537589655" y="731.306898857"/>
      <point x="969.0" y="631.495411992"/>
      <point x="969" y="436" type="curve" smooth="yes"/>
      <point x="969.0" y="305.098073006"/>
      <point x="849.665863394" y="186.396441128"/>
      <point x="686.094353574" y="187.478868851" type="curve" smooth="yes"/>
      <point x="584.756393549" y="188.149468623"/>
      <point x="466.439190626" y="234.795733213"/>
      <point x="349" y="353" type="curve"/>
    </contour>
  </outline>
</glyph>
<glyph name="six" format="1">
  <advance width="2198"/>
  <unicode hex="0036"/>
  <outline>
    <contour>
      <point x="703" y="-35" type="curve" smooth="yes"/>
      <point x="958" y="-35"/>
      <point x="1210" y="127"/>
      <point x="1210" y="455" type="curve" smooth="yes"/>
      <point x="1210" y="722"/>
      <point x="1004" y="933"/>
      <point x="725" y="933" type="curve" smooth="yes"/>
      <point x="668" y="933"/>
      <point x="642" y="929"/>
      <point x="630" y="924" type="curve"/>
      <point x="950" y="1458" type="line"/>
      <point x="743" y="1571" type="line"/>
      <point x="367" y="940" type="line" smooth="yes"/>
      <point x="284" y="802"/>
      <point x="188" y="585"/>
      <point x="188" y="459" type="curve" smooth="yes"/>
      <point x="188" y="130"/>
      <point x="447" y="-35"/>
    </contour>
    <contour>
      <point x="692" y="168" type="curve" smooth="yes"/>
      <point x="550" y="168"/>
      <point x="408" y="260"/>
      <point x="408" y="442" type="curve" smooth="yes"/>
      <point x="408" y="640"/>
      <point x="548" y="736"/>
      <point x="688" y="736" type="curve" smooth="yes"/>
      <point x="831" y="736"/>
      <point x="974" y="636"/>
      <point x="974" y="440" type="curve" smooth="yes"/>
      <point x="974" y="259"/>
      <point x="833" y="168"/>
    </contour>
    <contour>
      <point x="618" y="904" type="line" smooth="yes"/>
      <point x="619" y="905"/>
      <point x="619" y="905"/>
      <point x="619" y="906" type="curve" smooth="yes"/>
    </contour>
  </outline>
</glyph>
<glyph name="seven" format="1">
  <advance width="2106"/>
  <unicode hex="0037"/>
  <outline>
    <contour>
      <point x="373" y="0" type="line"/>
      <point x="645" y="0" type="line"/>
      <point x="1171" y="1232" type="line"/>
      <point x="1171" y="1413" type="line"/>
      <point x="206" y="1413" type="line"/>
      <point x="206" y="1214" type="line"/>
      <point x="906" y="1214" type="line"/>
    </contour>
  </outline>
</glyph>
<glyph name="eight" format="1">
  <advance width="2106"/>
  <unicode hex="0038"/>
  <outline>
    <contour>
      <point x="675" y="6" type="curve" smooth="yes"/>
      <point x="813" y="6"/>
      <point x="934" y="46"/>
      <point x="1017" y="106" type="curve" smooth="yes"/>
      <point x="1100" y="165"/>
      <point x="1166" y="256"/>
      <point x="1166" y="394" type="curve" smooth="yes"/>
      <point x="1166" y="605"/>
      <point x="1030" y="720"/>
      <point x="851" y="772" type="curve"/>
      <point x="1008" y="820"/>
      <point x="1132" y="921"/>
      <point x="1132" y="1114" type="curve" smooth="yes"/>
      <point x="1132" y="1171"/>
      <point x="1120" y="1221"/>
      <point x="1096" y="1266" type="curve" smooth="yes"/>
      <point x="1027" y="1398"/>
      <point x="875" y="1474"/>
      <point x="675" y="1474" type="curve" smooth="yes"/>
      <point x="611" y="1474"/>
      <point x="553" y="1465"/>
      <point x="496" y="1450" type="curve"/>
      <point x="348" y="1406"/>
      <point x="218" y="1302"/>
      <point x="218" y="1114" type="curve" smooth="yes"/>
      <point x="218" y="921"/>
      <point x="340" y="820"/>
      <point x="497" y="772" type="curve"/>
      <point x="319" y="720"/>
      <point x="183" y="605"/>
      <point x="183" y="394" type="curve" smooth="yes"/>
      <point x="183" y="331"/>
      <point x="197" y="275"/>
      <point x="224" y="227" type="curve" smooth="yes"/>
      <point x="301" y="89"/>
      <point x="463" y="6"/>
    </contour>
    <contour>
      <point x="675" y="147" type="curve" smooth="yes"/>
      <point x="496" y="147"/>
      <point x="359" y="228"/>
      <point x="359" y="406" type="curve" smooth="yes"/>
      <point x="359" y="447"/>
      <point x="368" y="483"/>
      <point x="384" y="515" type="curve" smooth="yes"/>
      <point x="435" y="617"/>
      <point x="545" y="672"/>
      <point x="675" y="698" type="curve"/>
      <point x="831" y="667"/>
      <point x="990" y="592"/>
      <point x="990" y="406" type="curve" smooth="yes"/>
      <point x="990" y="363"/>
      <point x="983" y="328"/>
      <point x="967" y="295" type="curve" smooth="yes"/>
      <point x="921" y="200"/>
      <point x="816" y="147"/>
    </contour>
    <contour>
      <point x="675" y="844" type="curve"/>
      <point x="518" y="873"/>
      <point x="390" y="940"/>
      <point x="390" y="1109" type="curve" smooth="yes"/>
      <point x="390" y="1146"/>
      <point x="397" y="1179"/>
      <point x="412" y="1207" type="curve" smooth="yes"/>
      <point x="456" y="1290"/>
      <point x="550" y="1339"/>
      <point x="675" y="1339" type="curve" smooth="yes"/>
      <point x="830" y="1339"/>
      <point x="960" y="1265"/>
      <point x="960" y="1109" type="curve" smooth="yes"/>
      <point x="960" y="940"/>
      <point x="831" y="873"/>
    </contour>
  </outline>
</glyph>
<glyph name="nine" format="1">
  <advance width="2198"/>
  <unicode hex="0039"/>
  <outline>
    <contour>
      <point x="711" y="701" type="curve" smooth="yes"/>
      <point x="568" y="701"/>
      <point x="425" y="802"/>
      <point x="425" y="998" type="curve" smooth="yes"/>
      <point x="425" y="1180"/>
      <point x="565" y="1271"/>
      <point x="706" y="1271" type="curve" smooth="yes"/>
      <point x="848" y="1271"/>
      <point x="991" y="1178"/>
      <point x="991" y="996" type="curve" smooth="yes"/>
      <point x="991" y="799"/>
      <point x="850" y="701"/>
    </contour>
    <contour>
      <point x="656" y="-132" type="line"/>
      <point x="1032" y="498" type="line" smooth="yes"/>
      <point x="1115" y="636"/>
      <point x="1210" y="854"/>
      <point x="1210" y="979" type="curve" smooth="yes"/>
      <point x="1210" y="1308"/>
      <point x="953" y="1474"/>
      <point x="697" y="1474" type="curve" smooth="yes"/>
      <point x="442" y="1474"/>
      <point x="188" y="1313"/>
      <point x="188" y="984" type="curve" smooth="yes"/>
      <point x="188" y="718"/>
      <point x="394" y="506"/>
      <point x="674" y="506" type="curve" smooth="yes"/>
      <point x="732" y="506"/>
      <point x="758" y="510"/>
      <point x="770" y="516" type="curve"/>
      <point x="449" y="-19" type="line"/>
    </contour>
  </outline>
</glyph>
<glyph name="colon" format="1">
  <advance width="270"/>
  <unicode hex="003A"/>
  <outline>
    <contour>
      <point x="80" y="526" type="line"/>
      <point x="80" y="420" type="line"/>
      <point x="188" y="420" type="line"/>
      <point x="188" y="526" type="line"/>
    </contour>
    <contour>
      <point x="80" y="100" type="line"/>
      <point x="80" y="-6" type="line"/>
      <point x="188" y="-6" type="line"/>
      <point x="188" y="100" type="line"/>
    </contour>
  </outline>
</glyph>
<glyph name="semicolon" format="1">
  <advance width="951"/>
  <unicode hex="003B"/>
  <outline>
    <contour>
      <point x="176" y="-451" type="line"/>
      <point x="330" y="-451" type="line"/>
      <point x="521" y="93" type="line"/>
      <point x="301" y="93" type="line"/>
    </contour>
    <contour>
      <point x="246" y="837" type="line"/>
      <point x="501" y="837" type="line"/>
      <point x="501" y="1084" type="line"/>
      <point x="301" y="1084" type="line"/>
    </contour>
  </outline>
</glyph>
<glyph name="equal" format="1">
  <advance width="2567"/>
  <unicode hex="003D"/>
  <outline>
    <contour>
      <point x="348" y="499" type="line"/>
      <point x="1391" y="499" type="line"/>
      <point x="1391" y="635" type="line"/>
      <point x="348" y="635" type="line"/>
    </contour>
    <contour>
      <point x="347" y="902" type="line"/>
      <point x="1391" y="902" type="line"/>
      <point x="1391" y="1041" type="line"/>
      <point x="347" y="1041" type="line"/>
    </contour>
  </outline>
</glyph>
<glyph name="greater" format="1">
  <advance width="729"/>
  <unicode hex="003E"/>
  <outline>
    <contour>
      <point x="110" y="463" type="line"/>
      <point x="502" y="278" type="line"/>
      <point x="108" y="106" type="line"/>
      <point x="108" y="29" type="line"/>
      <point x="612" y="252" type="line"/>
      <point x="612" y="297" type="line"/>
      <point x="110" y="539" type="line"/>
    </contour>
  </outline>
</glyph>
<glyph name="question" format="1">
  <advance width="516"/>
  <unicode hex="003F"/>
  <outline>
    <contour>
      <point x="92" y="706" type="curve"/>
      <point x="92" y="634" type="line"/>
      <point x="128" y="654"/>
      <point x="170" y="668"/>
      <point x="222" y="668" type="curve" smooth="yes"/>
      <point x="298" y="668"/>
      <point x="365" y="638"/>
      <point x="365" y="562" type="curve" smooth="yes"/>
      <point x="365" y="542"/>
      <point x="361" y="524"/>
      <point x="351" y="507" type="curve" smooth="yes"/>
      <point x="320" y="452"/>
      <point x="265" y="416"/>
      <point x="223" y="370" type="curve" smooth="yes"/>
      <point x="199" y="344"/>
      <point x="173" y="311"/>
      <point x="173" y="265" type="curve" smooth="yes"/>
      <point x="173" y="240"/>
      <point x="176" y="208"/>
      <point x="178" y="184" type="curve"/>
      <point x="260" y="184" type="line"/>
      <point x="256" y="209" type="line" smooth="yes"/>
      <point x="254" y="222"/>
      <point x="252" y="240"/>
      <point x="252" y="256" type="curve" smooth="yes"/>
      <point x="252" y="272"/>
      <point x="256" y="288"/>
      <point x="266" y="304" type="curve" smooth="yes"/>
      <point x="300" y="359"/>
      <point x="357" y="401"/>
      <point x="398" y="451" type="curve" smooth="yes"/>
      <point x="422" y="481"/>
      <point x="450" y="516"/>
      <point x="450" y="566" type="curve" smooth="yes"/>
      <point x="450" y="595"/>
      <point x="444" y="620"/>
      <point x="433" y="642" type="curve" smooth="yes"/>
      <point x="400" y="706"/>
      <point x="328" y="739"/>
      <point x="232" y="739" type="curve" smooth="yes"/>
      <point x="179" y="739"/>
      <point x="132" y="726"/>
    </contour>
    <contour>
      <point x="164" y="100" type="line"/>
      <point x="164" y="-6" type="line"/>
      <point x="273" y="-6" type="line"/>
      <point x="273" y="100" type="line"/>
    </contour>
  </outline>
</glyph>
<glyph name="at" format="1">
  <advance width="947"/>
  <unicode hex="0040"/>
  <outline>
    <contour>
      <point x="187" y="623" type="curve" smooth="yes"/>
      <point x="119" y="559"/>
      <point x="65" y="468"/>
      <point x="65" y="340" type="curve" smooth="yes"/>
      <point x="65" y="216"/>
      <point x="116" y="122"/>
      <point x="183" y="58" type="curve" smooth="yes"/>
      <point x="252" y="-7"/>
      <point x="355" y="-54"/>
      <point x="484" y="-54" type="curve" smooth="yes"/>
      <point x="616" y="-54"/>
      <point x="719" y="-9"/>
      <point x="783" y="61" type="curve"/>
      <point x="743" y="96" type="line"/>
      <point x="681" y="43"/>
      <point x="595" y="6"/>
      <point x="486" y="6" type="curve" smooth="yes"/>
      <point x="376" y="6"/>
      <point x="293" y="45"/>
      <point x="236" y="101" type="curve" smooth="yes"/>
      <point x="181" y="155"/>
      <point x="140" y="234"/>
      <point x="140" y="338" type="curve" smooth="yes"/>
      <point x="140" y="442"/>
      <point x="184" y="524"/>
      <point x="238" y="579" type="curve" smooth="yes"/>
      <point x="294" y="635"/>
      <point x="377" y="678"/>
      <point x="483" y="678" type="curve" smooth="yes"/>
      <point x="581" y="678"/>
      <point x="660" y="647"/>
      <point x="714" y="600" type="curve" smooth="yes"/>
      <point x="764" y="556"/>
      <point x="804" y="488"/>
      <point x="804" y="398" type="curve" smooth="yes"/>
      <point x="804" y="336"/>
      <point x="784" y="281"/>
      <point x="758" y="243" type="curve" smooth="yes"/>
      <point x="736" y="211"/>
      <point x="702" y="175"/>
      <point x="654" y="175" type="curve" smooth="yes"/>
      <point x="624" y="175"/>
      <point x="613" y="190"/>
      <point x="613" y="218" type="curve" smooth="yes"/>
      <point x="613" y="234"/>
      <point x="617" y="258"/>
      <point x="625" y="292" type="curve" smooth="yes"/>
      <point x="633" y="326"/>
      <point x="644" y="371"/>
      <point x="657" y="428" type="curve" smooth="yes"/>
      <point x="686" y="554" type="line"/>
      <point x="612" y="554" type="line"/>
      <point x="604" y="511" type="line"/>
      <point x="584" y="545"/>
      <point x="542" y="569"/>
      <point x="489" y="569" type="curve" smooth="yes"/>
      <point x="417" y="569"/>
      <point x="361" y="529"/>
      <point x="323" y="488" type="curve" smooth="yes"/>
      <point x="284" y="445"/>
      <point x="249" y="381"/>
      <point x="249" y="305" type="curve" smooth="yes"/>
      <point x="249" y="276"/>
      <point x="253" y="250"/>
      <point x="262" y="228" type="curve" smooth="yes"/>
      <point x="284" y="173"/>
      <point x="332" y="128"/>
      <point x="407" y="128" type="curve" smooth="yes"/>
      <point x="465" y="128"/>
      <point x="507" y="156"/>
      <point x="536" y="192" type="curve"/>
      <point x="546" y="138"/>
      <point x="582" y="112"/>
      <point x="644" y="112" type="curve" smooth="yes"/>
      <point x="714" y="112"/>
      <point x="770" y="153"/>
      <point x="806" y="195" type="curve" smooth="yes"/>
      <point x="847" y="242"/>
      <point x="880" y="312"/>
      <point x="880" y="396" type="curve" smooth="yes"/>
      <point x="880" y="510"/>
      <point x="830" y="588"/>
      <point x="766" y="642" type="curve" smooth="yes"/>
      <point x="700" y="698"/>
      <point x="607" y="738"/>
      <point x="486" y="738" type="curve" smooth="yes"/>
      <point x="355" y="738"/>
      <point x="257" y="689"/>
    </contour>
    <contour>
      <point x="570" y="410" type="curve" smooth="yes"/>
      <point x="570" y="350"/>
      <point x="551" y="298"/>
      <point x="526" y="261" type="curve" smooth="yes"/>
      <point x="503" y="227"/>
      <point x="468" y="192"/>
      <point x="416" y="192" type="curve" smooth="yes"/>
      <point x="358" y="192"/>
      <point x="328" y="233"/>
      <point x="328" y="291" type="curve" smooth="yes"/>
      <point x="328" y="347"/>
      <point x="349" y="397"/>
      <point x="373" y="433" type="curve" smooth="yes"/>
      <point x="397" y="467"/>
      <point x="436" y="504"/>
      <point x="490" y="504" type="curve" smooth="yes"/>
      <point x="548" y="504"/>
      <point x="570" y="468"/>
    </contour>
  </outline>
</glyph>
<glyph name="A" format="1">
  <advance width="712"/>
  <unicode hex="0041"/>
  <outline>
    <contour>
      <point x="298" y="728" type="line"/>
      <point x="13" y="0" type="line"/>
      <point x="160" y="0" type="line"/>
      <point x="292" y="364" type="line"/>
      <point x="356" y="550" type="line"/>
      <point x="424" y="364" type="line"/>
      <point x="551" y="0" type="line"/>
      <point x="703" y="0" type="line"/>
      <point x="420" y="728" type="line"/>
    </contour>
    <contour>
      <point x="188" y="268" type="line"/>
      <point x="188" y="168" type="line"/>
      <point x="538" y="168" type="line"/>
      <point x="538" y="268" type="line"/>
    </contour>
    <contour>
      <point x="641" y="5" type="move" smooth="yes"/>
    </contour>
    <contour>
      <point x="356" y="0" type="move" smooth="yes"/>
    </contour>
  </outline>
</glyph>
<glyph name="B" format="1">
  <advance width="720"/>
  <unicode hex="0042"/>
  <outline>
    <contour>
      <point x="83" y="728" type="line"/>
      <point x="83" y="0" type="line"/>
      <point x="362" y="0" type="line" smooth="yes"/>
      <point x="570" y="0"/>
      <point x="659" y="63"/>
      <point x="659" y="211" type="curve" smooth="yes"/>
      <point x="659" y="318"/>
      <point x="613" y="372"/>
      <point x="507" y="390" type="curve"/>
      <point x="591" y="414"/>
      <point x="628" y="462"/>
      <point x="628" y="552" type="curve" smooth="yes"/>
      <point x="628" y="675"/>
      <point x="538" y="728"/>
      <point x="329" y="728" type="curve" smooth="yes"/>
    </contour>
    <contour>
      <point x="536" y="218" type="curve" smooth="yes"/>
      <point x="536" y="135"/>
      <point x="483" y="101"/>
      <point x="359" y="101" type="curve" smooth="yes"/>
      <point x="213" y="101" type="line"/>
      <point x="213" y="330" type="line"/>
      <point x="351" y="330" type="line" smooth="yes"/>
      <point x="480" y="330"/>
      <point x="536" y="297"/>
    </contour>
    <contour>
      <point x="504" y="534" type="curve" smooth="yes"/>
      <point x="504" y="456"/>
      <point x="454" y="422"/>
      <point x="336" y="422" type="curve" smooth="yes"/>
      <point x="213" y="422" type="line"/>
      <point x="213" y="627" type="line"/>
      <point x="329" y="627" type="line" smooth="yes"/>
      <point x="451" y="627"/>
      <point x="504" y="601"/>
    </contour>
  </outline>
</glyph>
<glyph name="C" format="1">
  <advance width="1820"/>
  <unicode hex="0043"/>
  <outline>
    <contour>
      <point x="945" y="-26" type="curve" smooth="yes"/>
      <point x="1120" y="-26"/>
      <point x="1313" y="33"/>
      <point x="1422" y="122" type="curve"/>
      <point x="1344" y="340" type="line"/>
      <point x="1245" y="261"/>
      <point x="1088" y="209"/>
      <point x="954" y="209" type="curve" smooth="yes"/>
      <point x="650" y="209"/>
      <point x="447" y="414"/>
      <point x="447" y="719" type="curve" smooth="yes"/>
      <point x="447" y="1032"/>
      <point x="651" y="1240"/>
      <point x="955" y="1240" type="curve" smooth="yes"/>
      <point x="1081" y="1240"/>
      <point x="1226" y="1189"/>
      <point x="1319" y="1114" type="curve"/>
      <point x="1407" y="1324" type="line"/>
      <point x="1295" y="1414"/>
      <point x="1111" y="1474"/>
      <point x="946" y="1474" type="curve" smooth="yes"/>
      <point x="482" y="1474"/>
      <point x="175" y="1172"/>
      <point x="175" y="720" type="curve" smooth="yes"/>
      <point x="175" y="274"/>
      <point x="482" y="-26"/>
    </contour>
  </outline>
</glyph>
<glyph name="D" format="1">
  <advance width="784"/>
  <unicode hex="0044"/>
  <outline>
    <contour>
      <point x="81" y="728" type="line"/>
      <point x="81" y="0" type="line"/>
      <point x="308" y="0" type="line" smooth="yes"/>
      <point x="607" y="0"/>
      <point x="736" y="111"/>
      <point x="736" y="371" type="curve" smooth="yes"/>
      <point x="736" y="621"/>
      <point x="599" y="728"/>
      <point x="279" y="728" type="curve" smooth="yes"/>
    </contour>
    <contour>
      <point x="600" y="370" type="curve" smooth="yes"/>
      <point x="600" y="188"/>
      <point x="515" y="106"/>
      <point x="316" y="106" type="curve" smooth="yes"/>
      <point x="215" y="106" type="line"/>
      <point x="215" y="622" type="line"/>
      <point x="296" y="622" type="line" smooth="yes"/>
      <point x="509" y="622"/>
      <point x="600" y="544"/>
    </contour>
    <contour>
      <point x="388" y="0" type="move" smooth="yes"/>
    </contour>
    <contour>
      <point x="388" y="0" type="move" smooth="yes"/>
    </contour>
  </outline>
</glyph>
<glyph name="E" format="1">
  <advance width="1262"/>
  <unicode hex="0045"/>
  <outline>
    <contour>
      <point x="186" y="0" type="line"/>
      <point x="1143" y="0" type="line"/>
      <point x="1143" y="211" type="line"/>
      <point x="445" y="211" type="line"/>
      <point x="445" y="642" type="line"/>
      <point x="1055" y="642" type="line"/>
      <point x="1055" y="838" type="line"/>
      <point x="445" y="838" type="line"/>
      <point x="445" y="1238" type="line"/>
      <point x="1093" y="1238" type="line"/>
      <point x="1093" y="1448" type="line"/>
      <point x="186" y="1448" type="line"/>
    </contour>
  </outline>
</glyph>
<glyph name="F" format="1">
  <advance width="570"/>
  <unicode hex="0046"/>
  <outline>
    <contour>
      <point x="75" y="728" type="line"/>
      <point x="75" y="0" type="line"/>
      <point x="205" y="0" type="line"/>
      <point x="205" y="334" type="line"/>
      <point x="504" y="334" type="line"/>
      <point x="504" y="432" type="line"/>
      <point x="205" y="432" type="line"/>
      <point x="205" y="622" type="line"/>
      <point x="522" y="622" type="line"/>
      <point x="522" y="728" type="line"/>
    </contour>
  </outline>
</glyph>
<glyph name="G" format="1">
  <advance width="786"/>
  <unicode hex="0047"/>
  <outline>
    <contour>
      <point x="50" y="350" type="curve" smooth="yes"/>
      <point x="50" y="133"/>
      <point x="208" y="-11"/>
      <point x="446" y="-11" type="curve" smooth="yes"/>
      <point x="540" y="-11"/>
      <point x="646" y="9"/>
      <point x="712" y="40" type="curve"/>
      <point x="712" y="394" type="line"/>
      <point x="431" y="394" type="line"/>
      <point x="431" y="304" type="line"/>
      <point x="598" y="304" type="line"/>
      <point x="598" y="123" type="line"/>
      <point x="563" y="109"/>
      <point x="505" y="99"/>
      <point x="453" y="99" type="curve" smooth="yes"/>
      <point x="293" y="99"/>
      <point x="186" y="202"/>
      <point x="186" y="357" type="curve" smooth="yes"/>
      <point x="186" y="524"/>
      <point x="299" y="636"/>
      <point x="469" y="636" type="curve" smooth="yes"/>
      <point x="528" y="636"/>
      <point x="606" y="615"/>
      <point x="664" y="584" type="curve"/>
      <point x="705" y="678" type="line"/>
      <point x="638" y="719"/>
      <point x="537" y="746"/>
      <point x="454" y="746" type="curve" smooth="yes"/>
      <point x="211" y="746"/>
      <point x="50" y="587"/>
    </contour>
    <contour>
      <point x="404" y="0" type="move" smooth="yes"/>
    </contour>
    <contour>
      <point x="404" y="0" type="move" smooth="yes"/>
    </contour>
  </outline>
</glyph>
<glyph name="H" format="1">
  <advance width="1621"/>
  <unicode hex="0048"/>
  <outline>
    <contour>
      <point x="186" y="0" type="line"/>
      <point x="445" y="0" type="line"/>
      <point x="445" y="635" type="line"/>
      <point x="1186" y="635" type="line"/>
      <point x="1186" y="0" type="line"/>
      <point x="1435" y="0" type="line"/>
      <point x="1435" y="1448" type="line"/>
      <point x="1186" y="1448" type="line"/>
      <point x="1186" y="850" type="line"/>
      <point x="445" y="850" type="line"/>
      <point x="445" y="1448" type="line"/>
      <point x="186" y="1448" type="line"/>
    </contour>
  </outline>
</glyph>
<glyph name="I" format="1">
  <advance width="296"/>
  <unicode hex="0049"/>
  <outline>
    <contour>
      <point x="83" y="728" type="line"/>
      <point x="83" y="0" type="line"/>
      <point x="213" y="0" type="line"/>
      <point x="213" y="728" type="line"/>
    </contour>
    <contour>
      <point x="266" y="5" type="move" smooth="yes"/>
    </contour>
    <contour>
      <point x="148" y="0" type="move" smooth="yes"/>
    </contour>
  </outline>
</glyph>
<glyph name="J" format="1">
  <advance width="1290"/>
  <unicode hex="004A"/>
  <outline>
    <contour>
      <point x="83" y="-114" type="line"/>
      <point x="188" y="-178"/>
      <point x="304" y="-212"/>
      <point x="413" y="-212" type="curve" smooth="yes"/>
      <point x="649" y="-212"/>
      <point x="853" y="-55"/>
      <point x="853" y="293" type="curve" smooth="yes"/>
      <point x="853" y="1238" type="line"/>
      <point x="1123" y="1238" type="line"/>
      <point x="1123" y="1448" type="line"/>
      <point x="214" y="1448" type="line"/>
      <point x="214" y="1238" type="line"/>
      <point x="594" y="1238" type="line"/>
      <point x="594" y="292" type="line" smooth="yes"/>
      <point x="594" y="109"/>
      <point x="518" y="22"/>
      <point x="390" y="22" type="curve" smooth="yes"/>
      <point x="325" y="22"/>
      <point x="245" y="45"/>
      <point x="155" y="90" type="curve"/>
    </contour>
  </outline>
</glyph>
<glyph name="K" format="1">
  <advance width="1339"/>
  <unicode hex="004B"/>
  <outline>
    <contour>
      <point x="186" y="0" type="line"/>
      <point x="445" y="0" type="line"/>
      <point x="445" y="681" type="line"/>
      <point x="1010" y="0" type="line"/>
      <point x="1341" y="0" type="line"/>
      <point x="698" y="773" type="line"/>
      <point x="1307" y="1448" type="line"/>
      <point x="996" y="1448" type="line"/>
      <point x="445" y="822" type="line"/>
      <point x="445" y="1448" type="line"/>
      <point x="186" y="1448" type="line"/>
    </contour>
  </outline>
</glyph>
<glyph name="L" format="1">
  <advance width="1124"/>
  <unicode hex="004C"/>
  <outline>
    <contour>
      <point x="186" y="0" type="line"/>
      <point x="1090" y="0" type="line"/>
      <point x="1090" y="211" type="line"/>
      <point x="445" y="211" type="line"/>
      <point x="445" y="1448" type="line"/>
      <point x="186" y="1448" type="line"/>
    </contour>
  </outline>
</glyph>
<glyph name="M" format="1">
  <advance width="998"/>
  <unicode hex="004D"/>
  <outline>
    <contour>
      <point x="756" y="728" type="line"/>
      <point x="542" y="370" type="line"/>
      <point x="500" y="286" type="line"/>
      <point x="456" y="368" type="line"/>
      <point x="244" y="728" type="line"/>
      <point x="89" y="728" type="line"/>
      <point x="89" y="0" type="line"/>
      <point x="220" y="0" type="line"/>
      <point x="220" y="550" type="line"/>
      <point x="274" y="440" type="line"/>
      <point x="467" y="115" type="line"/>
      <point x="530" y="115" type="line"/>
      <point x="725" y="434" type="line"/>
      <point x="779" y="541" type="line"/>
      <point x="779" y="0" type="line"/>
      <point x="905" y="0" type="line"/>
      <point x="905" y="728" type="line"/>
    </contour>
  </outline>
</glyph>
<glyph name="N" format="1">
  <advance width="801"/>
  <unicode hex="004E"/>
  <outline>
    <contour>
      <point x="616" y="728" type="line"/>
      <point x="616" y="158" type="line"/>
      <point x="552" y="251" type="line"/>
      <point x="203" y="728" type="line"/>
      <point x="70" y="728" type="line"/>
      <point x="70" y="0" type="line"/>
      <point x="186" y="0" type="line"/>
      <point x="186" y="558" type="line"/>
      <point x="247" y="476" type="line"/>
      <point x="597" y="0" type="line"/>
      <point x="731" y="0" type="line"/>
      <point x="731" y="728" type="line"/>
    </contour>
    <contour>
      <point x="400" y="0" type="move" smooth="yes"/>
    </contour>
    <contour>
      <point x="400" y="0" type="move" smooth="yes"/>
    </contour>
  </outline>
</glyph>
<glyph name="O" format="1">
  <advance width="834"/>
  <unicode hex="004F"/>
  <outline>
    <contour>
      <point x="50" y="366" type="curve" smooth="yes"/>
      <point x="50" y="140"/>
      <point x="197" y="-11"/>
      <point x="417" y="-11" type="curve" smooth="yes"/>
      <point x="637" y="-11"/>
      <point x="784" y="140"/>
      <point x="784" y="366" type="curve" smooth="yes"/>
      <point x="784" y="592"/>
      <point x="637" y="743"/>
      <point x="417" y="743" type="curve" smooth="yes"/>
      <point x="197" y="743"/>
      <point x="50" y="592"/>
    </contour>
    <contour>
      <point x="648" y="364" type="curve" smooth="yes"/>
      <point x="648" y="205"/>
      <point x="555" y="99"/>
      <point x="417" y="99" type="curve" smooth="yes"/>
      <point x="279" y="99"/>
      <point x="186" y="205"/>
      <point x="186" y="364" type="curve" smooth="yes"/>
      <point x="186" y="526"/>
      <point x="279" y="633"/>
      <point x="417" y="633" type="curve" smooth="yes"/>
      <point x="555" y="633"/>
      <point x="648" y="526"/>
    </contour>
    <contour>
      <point x="416" y="0" type="move" smooth="yes"/>
    </contour>
  </outline>
</glyph>
<glyph name="P" format="1">
  <advance width="1331"/>
  <unicode hex="0050"/>
  <outline>
    <contour>
      <point x="186" y="0" type="line"/>
      <point x="452" y="0" type="line"/>
      <point x="452" y="534" type="line"/>
      <point x="666" y="534" type="line" smooth="yes"/>
      <point x="1096" y="534"/>
      <point x="1281" y="675"/>
      <point x="1281" y="1003" type="curve" smooth="yes"/>
      <point x="1281" y="1316"/>
      <point x="1090" y="1448"/>
      <point x="641" y="1448" type="curve" smooth="yes"/>
      <point x="186" y="1448" type="line"/>
    </contour>
    <contour>
      <point x="452" y="737" type="line"/>
      <point x="452" y="1251" type="line"/>
      <point x="665" y="1251" type="line" smooth="yes"/>
      <point x="908" y="1251"/>
      <point x="1013" y="1178"/>
      <point x="1013" y="1001" type="curve" smooth="yes"/>
      <point x="1013" y="815"/>
      <point x="915" y="737"/>
      <point x="685" y="737" type="curve" smooth="yes"/>
    </contour>
  </outline>
</glyph>
<glyph name="Q" format="1">
  <advance width="830"/>
  <unicode hex="0051"/>
  <outline>
    <component base="O"/>
    <contour>
      <point x="446" y="-6" type="line"/>
      <point x="484" y="-88"/>
      <point x="538" y="-153"/>
      <point x="596" y="-211" type="curve"/>
      <point x="688" y="-132" type="line"/>
      <point x="639" y="-86"/>
      <point x="595" y="-35"/>
      <point x="563" y="30" type="curve"/>
    </contour>
  </outline>
</glyph>
<glyph name="R" format="1">
  <advance width="1393"/>
  <unicode hex="0052"/>
  <outline>
    <contour>
      <point x="186" y="0" type="line"/>
      <point x="445" y="0" type="line"/>
      <point x="445" y="638" type="line"/>
      <point x="643" y="638" type="line" smooth="yes"/>
      <point x="766" y="638"/>
      <point x="841" y="571"/>
      <point x="892" y="417" type="curve"/>
      <point x="1034" y="0" type="line"/>
      <point x="1311" y="0" type="line"/>
      <point x="1168" y="408" type="line" smooth="yes"/>
      <point x="1108" y="582"/>
      <point x="1032" y="672"/>
      <point x="914" y="711" type="curve"/>
      <point x="1144" y="771"/>
      <point x="1243" y="878"/>
      <point x="1243" y="1069" type="curve" smooth="yes"/>
      <point x="1243" y="1335"/>
      <point x="1067" y="1448"/>
      <point x="657" y="1448" type="curve" smooth="yes"/>
      <point x="186" y="1448" type="line"/>
    </contour>
    <contour>
      <point x="445" y="814" type="line"/>
      <point x="445" y="1251" type="line"/>
      <point x="680" y="1251" type="line" smooth="yes"/>
      <point x="898" y="1251"/>
      <point x="992" y="1214"/>
      <point x="992" y="1054" type="curve" smooth="yes"/>
      <point x="992" y="887"/>
      <point x="895" y="814"/>
      <point x="670" y="814" type="curve" smooth="yes"/>
    </contour>
  </outline>
</glyph>
<glyph name="S" format="1">
  <advance width="1292"/>
  <unicode hex="0053"/>
  <outline>
    <contour>
      <point x="710" y="-26" type="curve" smooth="yes"/>
      <point x="1046" y="-26"/>
      <point x="1196" y="164"/>
      <point x="1196" y="391" type="curve" smooth="yes"/>
      <point x="1196" y="594"/>
      <point x="1134" y="731"/>
      <point x="732" y="839" type="curve" smooth="yes"/>
      <point x="454" y="914"/>
      <point x="403" y="981"/>
      <point x="403" y="1070" type="curve" smooth="yes"/>
      <point x="403" y="1184"/>
      <point x="483" y="1270"/>
      <point x="695" y="1270" type="curve" smooth="yes"/>
      <point x="815" y="1270"/>
      <point x="955" y="1238"/>
      <point x="1081" y="1171" type="curve"/>
      <point x="1146" y="1350" type="line"/>
      <point x="1014" y="1431"/>
      <point x="842" y="1474"/>
      <point x="680" y="1474" type="curve" smooth="yes"/>
      <point x="302" y="1474"/>
      <point x="165" y="1270"/>
      <point x="165" y="1053" type="curve" smooth="yes"/>
      <point x="165" y="880"/>
      <point x="244" y="753"/>
      <point x="579" y="657" type="curve"/>
      <point x="937" y="552"/>
      <point x="966" y="496"/>
      <point x="966" y="395" type="curve" smooth="yes"/>
      <point x="966" y="259"/>
      <point x="856" y="186"/>
      <point x="691" y="186" type="curve" smooth="yes"/>
      <point x="559" y="186"/>
      <point x="388" y="233"/>
      <point x="212" y="331" type="curve"/>
      <point x="173" y="121" type="line"/>
      <point x="312" y="33"/>
      <point x="525" y="-26"/>
    </contour>
  </outline>
</glyph>
<glyph name="T" format="1">
  <advance width="587"/>
  <unicode hex="0054"/>
  <outline>
    <contour>
      <point x="14" y="728" type="line"/>
      <point x="14" y="629" type="line"/>
      <point x="228" y="629" type="line"/>
      <point x="228" y="0" type="line"/>
      <point x="358" y="0" type="line"/>
      <point x="358" y="629" type="line"/>
      <point x="572" y="629" type="line"/>
      <point x="572" y="728" type="line"/>
    </contour>
    <contour>
      <point x="294" y="0" type="move" smooth="yes"/>
    </contour>
    <contour>
      <point x="294" y="0" type="move" smooth="yes"/>
    </contour>
    <contour>
      <point x="294" y="0" type="move" smooth="yes"/>
    </contour>
  </outline>
</glyph>
<glyph name="U" format="1">
  <advance width="1591"/>
  <unicode hex="0055"/>
  <outline>
    <contour>
      <point x="808" y="-26" type="curve" smooth="yes"/>
      <point x="1178" y="-26"/>
      <point x="1423" y="205"/>
      <point x="1423" y="550" type="curve" smooth="yes"/>
      <point x="1423" y="1448" type="line"/>
      <point x="1165" y="1448" type="line"/>
      <point x="1165" y="537" type="line" smooth="yes"/>
      <point x="1165" y="327"/>
      <point x="1023" y="188"/>
      <point x="807" y="188" type="curve" smooth="yes"/>
      <point x="579" y="188"/>
      <point x="427" y="330"/>
      <point x="427" y="544" type="curve" smooth="yes"/>
      <point x="427" y="1448" type="line"/>
      <point x="169" y="1448" type="line"/>
      <point x="169" y="539" type="line" smooth="yes"/>
      <point x="169" y="200"/>
      <point x="424" y="-26"/>
    </contour>
  </outline>
</glyph>
<glyph name="V" format="1">
  <advance width="668"/>
  <unicode hex="0056"/>
  <outline>
    <contour>
      <point x="572" y="728" type="line"/>
      <point x="359" y="153" type="line"/>
      <point x="335" y="83" type="line"/>
      <point x="312" y="154" type="line"/>
      <point x="100" y="728" type="line"/>
      <point x="4" y="728" type="line"/>
      <point x="285" y="0" type="line"/>
      <point x="380" y="0" type="line"/>
      <point x="662" y="728" type="line"/>
    </contour>
  </outline>
</glyph>
<glyph name="W" format="1">
  <advance width="1051"/>
  <unicode hex="0057"/>
  <outline>
    <contour>
      <point x="950" y="728" type="line"/>
      <point x="798" y="174" type="line"/>
      <point x="776" y="95" type="line"/>
      <point x="754" y="172" type="line"/>
      <point x="574" y="728" type="line"/>
      <point x="484" y="728" type="line"/>
      <point x="302" y="174" type="line"/>
      <point x="278" y="94" type="line"/>
      <point x="258" y="174" type="line"/>
      <point x="104" y="728" type="line"/>
      <point x="10" y="728" type="line"/>
      <point x="222" y="0" type="line"/>
      <point x="328" y="0" type="line"/>
      <point x="526" y="624" type="line"/>
      <point x="722" y="0" type="line"/>
      <point x="828" y="0" type="line"/>
      <point x="1040" y="728" type="line"/>
    </contour>
    <contour>
      <point x="526" y="0" type="move" smooth="yes"/>
    </contour>
  </outline>
</glyph>
<glyph name="X" format="1">
  <advance width="652"/>
  <unicode hex="0058"/>
  <outline>
    <contour>
      <point x="540" y="728" type="line"/>
      <point x="331" y="427" type="line"/>
      <point x="132" y="728" type="line"/>
      <point x="24" y="728" type="line"/>
      <point x="274" y="370" type="line"/>
      <point x="6" y="0" type="line"/>
      <point x="108" y="0" type="line"/>
      <point x="323" y="315" type="line"/>
      <point x="536" y="0" type="line"/>
      <point x="642" y="0" type="line"/>
      <point x="382" y="371" type="line"/>
      <point x="638" y="728" type="line"/>
    </contour>
  </outline>
</glyph>
<glyph name="Y" format="1">
  <advance width="633"/>
  <unicode hex="0059"/>
  <outline>
    <contour>
      <point x="534" y="728" type="line"/>
      <point x="316" y="364" type="line"/>
      <point x="100" y="728" type="line"/>
      <point x="5" y="728" type="line"/>
      <point x="272" y="291" type="line"/>
      <point x="272" y="0" type="line"/>
      <point x="358" y="0" type="line"/>
      <point x="358" y="292" type="line"/>
      <point x="629" y="728" type="line"/>
    </contour>
    <contour>
      <point x="316" y="0" type="move" smooth="yes"/>
    </contour>
  </outline>
</glyph>
<glyph name="Z" format="1">
  <advance width="611"/>
  <unicode hex="005A"/>
  <outline>
    <contour>
      <point x="45" y="728" type="line"/>
      <point x="45" y="654" type="line"/>
      <point x="461" y="654" type="line"/>
      <point x="29" y="46" type="line"/>
      <point x="29" y="0" type="line"/>
      <point x="573" y="0" type="line"/>
      <point x="573" y="74" type="line"/>
      <point x="143" y="74" type="line"/>
      <point x="577" y="684" type="line"/>
      <point x="577" y="728" type="line"/>
    </contour>
    <contour>
      <point x="306" y="0" type="move" smooth="yes"/>
    </contour>
  </outline>
</glyph>
<glyph name="bracketleft" format="1">
  <advance width="1105"/>
  <unicode hex="005B"/>
  <outline>
    <contour>
      <point x="166" y="-456" type="line"/>
      <point x="617" y="-456" type="line"/>
      <point x="617" y="-327" type="line"/>
      <point x="425" y="-327" type="line"/>
      <point x="425" y="1116" type="line"/>
      <point x="617" y="1116" type="line"/>
      <point x="617" y="1246" type="line"/>
      <point x="166" y="1246" type="line"/>
    </contour>
  </outline>
</glyph>
<glyph name="backslash" format="1">
  <advance width="1243"/>
  <unicode hex="005C"/>
  <outline>
    <contour>
      <point x="491" y="-210" type="line"/>
      <point x="726" y="-210" type="line"/>
      <point x="114" y="1353" type="line"/>
      <point x="-123" y="1353" type="line"/>
    </contour>
  </outline>
</glyph>
<glyph name="bracketright" format="1">
  <advance width="314"/>
  <unicode hex="005D"/>
  <outline>
    <contour>
      <point x="39" y="726" type="line"/>
      <point x="44" y="664" type="line"/>
      <point x="139" y="664" type="line"/>
      <point x="139" y="-68" type="line"/>
      <point x="44" y="-68" type="line"/>
      <point x="44" y="-130" type="line"/>
      <point x="221" y="-130" type="line"/>
      <point x="221" y="726" type="line"/>
    </contour>
  </outline>
</glyph>
<glyph name="asciicircum" format="1">
  <advance width="2566"/>
  <unicode hex="005E"/>
  <outline>
    <contour>
      <point x="324" y="968" type="line"/>
      <point x="480" y="968" type="line"/>
      <point x="851" y="1674" type="line"/>
      <point x="1236" y="968" type="line"/>
      <point x="1390" y="968" type="line"/>
      <point x="904" y="1846" type="line"/>
      <point x="803" y="1846" type="line"/>
    </contour>
  </outline>
</glyph>
<glyph name="grave" format="1">
  <advance width="296"/>
  <unicode hex="0060"/>
  <outline>
    <contour>
      <point x="-30" y="746" type="line"/>
      <point x="136" y="586" type="line"/>
      <point x="231" y="586" type="line"/>
      <point x="108" y="746" type="line"/>
    </contour>
    <contour>
      <point x="116" y="0" type="move" smooth="yes"/>
    </contour>
  </outline>
</glyph>
<glyph name="a" format="1">
  <advance width="550"/>
  <unicode hex="0061"/>
  <outline>
    <contour>
      <point x="43" y="179" type="curve" smooth="yes"/>
      <point x="43" y="68"/>
      <point x="118" y="-11"/>
      <point x="230" y="-11" type="curve" smooth="yes"/>
      <point x="290" y="-11"/>
      <point x="351" y="21"/>
      <point x="374" y="66" type="curve"/>
      <point x="386" y="25"/>
      <point x="436" y="-4"/>
      <point x="498" y="-4" type="curve"/>
      <point x="537" y="82" type="line"/>
      <point x="486" y="74"/>
      <point x="460" y="102"/>
      <point x="460" y="136" type="curve" smooth="yes"/>
      <point x="460" y="384" type="line"/>
      <point x="419" y="408"/>
      <point x="348" y="431"/>
      <point x="290" y="431" type="curve" smooth="yes"/>
      <point x="145" y="431"/>
      <point x="43" y="327"/>
    </contour>
    <contour>
      <point x="358" y="332" type="curve"/>
      <point x="358" y="177" type="line" smooth="yes"/>
      <point x="358" y="116"/>
      <point x="308" y="73"/>
      <point x="238" y="73" type="curve" smooth="yes"/>
      <point x="186" y="73"/>
      <point x="149" y="119"/>
      <point x="149" y="183" type="curve" smooth="yes"/>
      <point x="149" y="279"/>
      <point x="205" y="346"/>
      <point x="285" y="346" type="curve" smooth="yes"/>
      <point x="309" y="346"/>
      <point x="340" y="342"/>
    </contour>
    <contour>
      <point x="561" y="5" type="move" smooth="yes"/>
    </contour>
    <contour>
      <point x="316" y="0" type="move" smooth="yes"/>
    </contour>
  </outline>
</glyph>
<glyph name="b" format="1">
  <advance width="1971"/>
  <unicode hex="0062"/>
  <outline>
    <contour>
      <point x="761" y="-22" type="curve" smooth="yes"/>
      <point x="1077" y="-22"/>
      <point x="1289" y="198"/>
      <point x="1289" y="528" type="curve" smooth="yes"/>
      <point x="1289" y="821"/>
      <point x="1109" y="1016"/>
      <point x="839" y="1016" type="curve" smooth="yes"/>
      <point x="689" y="1016"/>
      <point x="540" y="947"/>
      <point x="473" y="844" type="curve"/>
      <point x="473" y="1550" type="line"/>
      <point x="229" y="1521" type="line"/>
      <point x="229" y="69" type="line"/>
      <point x="230" y="69"/>
      <point x="444" y="-22"/>
    </contour>
    <contour>
      <point x="744" y="174" type="curve" smooth="yes"/>
      <point x="585" y="174"/>
      <point x="473" y="206"/>
      <point x="473" y="206" type="curve"/>
      <point x="473" y="607" type="line"/>
      <point x="547" y="734"/>
      <point x="676" y="820"/>
      <point x="790" y="820" type="curve" smooth="yes"/>
      <point x="940" y="820"/>
      <point x="1040" y="699"/>
      <point x="1040" y="524" type="curve" smooth="yes"/>
      <point x="1040" y="314"/>
      <point x="922" y="174"/>
    </contour>
  </outline>
</glyph>
<glyph name="c" format="1">
  <advance width="474"/>
  <unicode hex="0063"/>
  <outline>
    <contour>
      <point x="43" y="206" type="curve" smooth="yes"/>
      <point x="43" y="76"/>
      <point x="141" y="-11"/>
      <point x="289" y="-11" type="curve" smooth="yes"/>
      <point x="348" y="-11"/>
      <point x="415" y="10"/>
      <point x="456" y="42" type="curve"/>
      <point x="422" y="122" type="line"/>
      <point x="390" y="94"/>
      <point x="338" y="76"/>
      <point x="294" y="76" type="curve" smooth="yes"/>
      <point x="206" y="76"/>
      <point x="149" y="129"/>
      <point x="149" y="208" type="curve" smooth="yes"/>
      <point x="149" y="291"/>
      <point x="205" y="346"/>
      <point x="290" y="346" type="curve" smooth="yes"/>
      <point x="330" y="346"/>
      <point x="379" y="330"/>
      <point x="411" y="306" type="curve"/>
      <point x="442" y="379" type="line"/>
      <point x="400" y="410"/>
      <point x="336" y="431"/>
      <point x="284" y="431" type="curve" smooth="yes"/>
      <point x="140" y="431"/>
      <point x="43" y="341"/>
    </contour>
    <contour>
      <point x="266" y="0" type="move" smooth="yes"/>
    </contour>
    <contour>
      <point x="266" y="0" type="move" smooth="yes"/>
    </contour>
  </outline>
</glyph>
<glyph name="d" format="1">
  <advance width="1956"/>
  <unicode hex="0064"/>
  <outline>
    <contour>
      <point x="639" y="-22" type="curve" smooth="yes"/>
      <point x="791" y="-22"/>
      <point x="918" y="45"/>
      <point x="971" y="145" type="curve"/>
      <point x="981" y="101"/>
      <point x="1009" y="39"/>
      <point x="1043" y="-14" type="curve"/>
      <point x="1275" y="29" type="line"/>
      <point x="1228" y="96"/>
      <point x="1199" y="241"/>
      <point x="1199" y="389" type="curve" smooth="yes"/>
      <point x="1199" y="1544" type="line"/>
      <point x="955" y="1531" type="line"/>
      <point x="955" y="929" type="line"/>
      <point x="884" y="982"/>
      <point x="780" y="1016"/>
      <point x="678" y="1016" type="curve" smooth="yes"/>
      <point x="362" y="1016"/>
      <point x="151" y="805"/>
      <point x="151" y="486" type="curve" smooth="yes"/>
      <point x="151" y="182"/>
      <point x="347" y="-22"/>
    </contour>
    <contour>
      <point x="660" y="174" type="curve" smooth="yes"/>
      <point x="504" y="174"/>
      <point x="400" y="301"/>
      <point x="400" y="492" type="curve" smooth="yes"/>
      <point x="400" y="689"/>
      <point x="519" y="820"/>
      <point x="696" y="820" type="curve" smooth="yes"/>
      <point x="800" y="820"/>
      <point x="907" y="778"/>
      <point x="955" y="714" type="curve"/>
      <point x="955" y="518" type="line" smooth="yes"/>
      <point x="955" y="313"/>
      <point x="833" y="174"/>
    </contour>
  </outline>
</glyph>
<glyph name="e" format="1">
  <advance width="1732"/>
  <unicode hex="0065"/>
  <outline>
    <contour>
      <point x="707" y="-22" type="curve" smooth="yes"/>
      <point x="859" y="-22"/>
      <point x="1035" y="43"/>
      <point x="1148" y="142" type="curve"/>
      <point x="1060" y="312" type="line"/>
      <point x="972" y="227"/>
      <point x="832" y="174"/>
      <point x="711" y="174" type="curve" smooth="yes"/>
      <point x="577" y="174"/>
      <point x="459" y="241"/>
      <point x="419" y="347" type="curve"/>
      <point x="823" y="349"/>
      <point x="1077" y="502"/>
      <point x="1077" y="729" type="curve" smooth="yes"/>
      <point x="1077" y="901"/>
      <point x="921" y="1016"/>
      <point x="691" y="1016" type="curve" smooth="yes"/>
      <point x="375" y="1016"/>
      <point x="151" y="791"/>
      <point x="151" y="499" type="curve" smooth="yes"/>
      <point x="151" y="185"/>
      <point x="373" y="-22"/>
    </contour>
    <contour>
      <point x="395" y="518" type="curve"/>
      <point x="395" y="527" type="line"/>
      <point x="400" y="709"/>
      <point x="538" y="831"/>
      <point x="697" y="831" type="curve" smooth="yes"/>
      <point x="783" y="831"/>
      <point x="840" y="787"/>
      <point x="840" y="722" type="curve" smooth="yes"/>
      <point x="840" y="608"/>
      <point x="672" y="526"/>
    </contour>
  </outline>
</glyph>
<glyph name="f" format="1">
  <advance width="334"/>
  <unicode hex="0066"/>
  <outline>
    <contour>
      <point x="120" y="468" type="curve" smooth="yes"/>
      <point x="120" y="408" type="line"/>
      <point x="37" y="408" type="line"/>
      <point x="37" y="344" type="line"/>
      <point x="120" y="344" type="line"/>
      <point x="120" y="-17" type="line" smooth="yes"/>
      <point x="120" y="-75"/>
      <point x="98" y="-106"/>
      <point x="44" y="-118" type="curve"/>
      <point x="54" y="-208" type="line"/>
      <point x="173" y="-192"/>
      <point x="224" y="-132"/>
      <point x="224" y="-20" type="curve" smooth="yes"/>
      <point x="224" y="344" type="line"/>
      <point x="314" y="344" type="line"/>
      <point x="314" y="408" type="line"/>
      <point x="224" y="408" type="line"/>
      <point x="224" y="453" type="line" smooth="yes"/>
      <point x="224" y="517"/>
      <point x="254" y="539"/>
      <point x="298" y="539" type="curve" smooth="yes"/>
      <point x="310" y="539"/>
      <point x="322" y="538"/>
      <point x="336" y="534" type="curve"/>
      <point x="346" y="604" type="line"/>
      <point x="323" y="613"/>
      <point x="298" y="618"/>
      <point x="274" y="618" type="curve" smooth="yes"/>
      <point x="196" y="618"/>
      <point x="120" y="570"/>
    </contour>
  </outline>
</glyph>
<glyph name="g" format="1">
  <advance width="510"/>
  <unicode hex="0067"/>
  <outline>
    <contour>
      <point x="43" y="179" type="curve" smooth="yes"/>
      <point x="43" y="68"/>
      <point x="118" y="-11"/>
      <point x="230" y="-11" type="curve" smooth="yes"/>
      <point x="275" y="-11"/>
      <point x="321" y="8"/>
      <point x="351" y="36" type="curve"/>
      <point x="351" y="-8" type="line" smooth="yes"/>
      <point x="351" y="-88"/>
      <point x="291" y="-141"/>
      <point x="202" y="-141" type="curve" smooth="yes"/>
      <point x="164" y="-141"/>
      <point x="116" y="-130"/>
      <point x="82" y="-112" type="curve"/>
      <point x="62" y="-198" type="line"/>
      <point x="106" y="-220"/>
      <point x="169" y="-233"/>
      <point x="221" y="-233" type="curve" smooth="yes"/>
      <point x="365" y="-233"/>
      <point x="460" y="-141"/>
      <point x="460" y="-4" type="curve" smooth="yes"/>
      <point x="460" y="384" type="line"/>
      <point x="419" y="408"/>
      <point x="348" y="431"/>
      <point x="290" y="431" type="curve" smooth="yes"/>
      <point x="145" y="431"/>
      <point x="43" y="327"/>
    </contour>
    <contour>
      <point x="358" y="332" type="curve"/>
      <point x="358" y="177" type="line" smooth="yes"/>
      <point x="358" y="116"/>
      <point x="308" y="73"/>
      <point x="238" y="73" type="curve" smooth="yes"/>
      <point x="186" y="73"/>
      <point x="149" y="119"/>
      <point x="149" y="183" type="curve" smooth="yes"/>
      <point x="149" y="279"/>
      <point x="205" y="346"/>
      <point x="285" y="346" type="curve" smooth="yes"/>
      <point x="309" y="346"/>
      <point x="340" y="342"/>
    </contour>
    <contour>
      <point x="286" y="0" type="move" smooth="yes"/>
    </contour>
  </outline>
</glyph>
<glyph name="h" format="1">
  <advance width="628"/>
  <unicode hex="0068"/>
  <outline>
    <contour>
      <point x="137" y="356" type="curve"/>
      <point x="164" y="280" type="line"/>
      <point x="194" y="316"/>
      <point x="238" y="341"/>
      <point x="274" y="341" type="curve" smooth="yes"/>
      <point x="326" y="341"/>
      <point x="360" y="297"/>
      <point x="360" y="232" type="curve" smooth="yes"/>
      <point x="360" y="114" type="line" smooth="yes"/>
      <point x="360" y="34"/>
      <point x="410" y="-20"/>
      <point x="484" y="-20" type="curve"/>
      <point x="508" y="-18" type="line"/>
      <point x="519" y="64" type="line"/>
      <point x="485" y="63"/>
      <point x="463" y="91"/>
      <point x="463" y="134" type="curve" smooth="yes"/>
      <point x="463" y="242" type="line" smooth="yes"/>
      <point x="463" y="356"/>
      <point x="395" y="431"/>
      <point x="292" y="431" type="curve" smooth="yes"/>
      <point x="238" y="431"/>
      <point x="175" y="404"/>
    </contour>
    <contour>
      <point x="58" y="614" type="line"/>
      <point x="58" y="0" type="line"/>
      <point x="164" y="0" type="line"/>
      <point x="164" y="627" type="line"/>
    </contour>
    <contour>
      <point x="306" y="0" type="move" smooth="yes"/>
    </contour>
    <contour>
      <point x="306" y="0" type="move" smooth="yes"/>
    </contour>
  </outline>
</glyph>
<glyph name="i" format="1">
  <advance width="1118"/>
  <unicode hex="0069"/>
  <outline>
    <contour>
      <point x="746" y="38" type="curve"/>
      <point x="715" y="222" type="line"/>
      <point x="574" y="173"/>
      <point x="440" y="163"/>
      <point x="440" y="339" type="curve" smooth="yes"/>
      <point x="440" y="1003" type="line"/>
      <point x="196" y="1003" type="line"/>
      <point x="196" y="277" type="line" smooth="yes"/>
      <point x="196" y="-22"/>
      <point x="516" y="-65"/>
    </contour>
    <contour>
      <point x="322" y="1176" type="curve" smooth="yes"/>
      <point x="421" y="1176"/>
      <point x="491" y="1239"/>
      <point x="491" y="1330" type="curve" smooth="yes"/>
      <point x="491" y="1421"/>
      <point x="421" y="1486"/>
      <point x="324" y="1486" type="curve" smooth="yes"/>
      <point x="224" y="1486"/>
      <point x="155" y="1423"/>
      <point x="155" y="1331" type="curve" smooth="yes"/>
      <point x="155" y="1239"/>
      <point x="224" y="1176"/>
    </contour>
  </outline>
</glyph>
<glyph name="j" format="1">
  <advance width="269"/>
  <unicode hex="006A"/>
  <outline>
    <contour>
      <point x="44" y="422" type="line"/>
      <point x="44" y="-26" type="line" smooth="yes"/>
      <point x="44" y="-94"/>
      <point x="21" y="-128"/>
      <point x="-23" y="-128" type="curve" smooth="yes"/>
      <point x="-25" y="-128"/>
      <point x="-40" y="-126"/>
      <point x="-68" y="-122" type="curve"/>
      <point x="-82" y="-204" type="line"/>
      <point x="-54" y="-211"/>
      <point x="-28" y="-214"/>
      <point x="-5" y="-214" type="curve" smooth="yes"/>
      <point x="97" y="-214"/>
      <point x="148" y="-151"/>
      <point x="148" y="-22" type="curve" smooth="yes"/>
      <point x="148" y="422" type="line"/>
    </contour>
    <contour>
      <point x="20" y="562" type="curve" smooth="yes"/>
      <point x="20" y="524"/>
      <point x="48" y="496"/>
      <point x="90" y="496" type="curve" smooth="yes"/>
      <point x="132" y="496"/>
      <point x="162" y="524"/>
      <point x="162" y="562" type="curve" smooth="yes"/>
      <point x="162" y="602"/>
      <point x="133" y="628"/>
      <point x="91" y="628" type="curve" smooth="yes"/>
      <point x="49" y="628"/>
      <point x="20" y="601"/>
    </contour>
  </outline>
</glyph>
<glyph name="k" format="1">
  <advance width="2048"/>
  <unicode hex="006B"/>
  <outline>
    <contour>
      <point x="1140" y="-68" type="curve"/>
      <point x="1255" y="126" type="line"/>
      <point x="1130" y="129"/>
      <point x="1075" y="178"/>
      <point x="980" y="288" type="curve" smooth="yes"/>
      <point x="808" y="487" type="line"/>
      <point x="1133" y="939" type="line"/>
      <point x="901" y="987" type="line"/>
      <point x="448" y="377" type="line"/>
      <point x="448" y="1533" type="line"/>
      <point x="206" y="1513" type="line"/>
      <point x="206" y="88" type="line" smooth="yes"/>
      <point x="206" y="-41"/>
      <point x="352" y="-82"/>
      <point x="433" y="21" type="curve" smooth="yes"/>
      <point x="658" y="307" type="line"/>
      <point x="818" y="121" type="line" smooth="yes"/>
      <point x="927" y="-7"/>
      <point x="1039" y="-68"/>
    </contour>
  </outline>
</glyph>
<glyph name="l" format="1">
  <advance width="1186"/>
  <unicode hex="006C"/>
  <outline>
    <contour>
      <point x="573" y="-11" type="curve" smooth="yes"/>
      <point x="650" y="-11"/>
      <point x="733" y="4"/>
      <point x="820" y="28" type="curve"/>
      <point x="795" y="218" type="line"/>
      <point x="748" y="203"/>
      <point x="672" y="191"/>
      <point x="627" y="191" type="curve" smooth="yes"/>
      <point x="531" y="191"/>
      <point x="473" y="241"/>
      <point x="473" y="353" type="curve" smooth="yes"/>
      <point x="473" y="1555" type="line"/>
      <point x="229" y="1526" type="line"/>
      <point x="229" y="301" type="line" smooth="yes"/>
      <point x="229" y="83"/>
      <point x="373" y="-11"/>
    </contour>
  </outline>
</glyph>
<glyph name="m" format="1">
  <advance width="1975"/>
  <unicode hex="006D"/>
  <outline>
    <contour>
      <point x="1091" y="684" type="line"/>
      <point x="1160" y="755"/>
      <point x="1252" y="804"/>
      <point x="1329" y="804" type="curve" smooth="yes"/>
      <point x="1449" y="804"/>
      <point x="1532" y="702"/>
      <point x="1532" y="549" type="curve" smooth="yes"/>
      <point x="1532" y="263" type="line" smooth="yes"/>
      <point x="1532" y="64"/>
      <point x="1616" y="-52"/>
      <point x="1882" y="0" type="curve"/>
      <point x="1906" y="192" type="line"/>
      <point x="1783" y="174"/>
      <point x="1774" y="233"/>
      <point x="1774" y="357" type="curve" smooth="yes"/>
      <point x="1774" y="572" type="line" smooth="yes"/>
      <point x="1774" y="839"/>
      <point x="1614" y="1016"/>
      <point x="1372" y="1016" type="curve" smooth="yes"/>
      <point x="1265" y="1016"/>
      <point x="1140" y="984"/>
      <point x="1006" y="845" type="curve"/>
    </contour>
    <contour>
      <point x="1111" y="0" type="line"/>
      <point x="1111" y="572" type="line" smooth="yes"/>
      <point x="1111" y="839"/>
      <point x="951" y="1016"/>
      <point x="709" y="1016" type="curve" smooth="yes"/>
      <point x="602" y="1016"/>
      <point x="483" y="973"/>
      <point x="395" y="893" type="curve"/>
      <point x="378" y="931"/>
      <point x="354" y="966"/>
      <point x="326" y="993" type="curve"/>
      <point x="86.0" y="904.0" type="line"/>
      <point x="147.0" y="828.0"/>
      <point x="187.0" y="711.0"/>
      <point x="187.0" y="610.0" type="curve" smooth="yes"/>
      <point x="187.0" y="0.0" type="line"/>
      <point x="436.0" y="0.0" type="line"/>
      <point x="436" y="630" type="line"/>
      <point x="431" y="686" type="line"/>
      <point x="500" y="757"/>
      <point x="589" y="804"/>
      <point x="666" y="804" type="curve" smooth="yes"/>
      <point x="786" y="804"/>
      <point x="869" y="702"/>
      <point x="869" y="549" type="curve" smooth="yes"/>
      <point x="869" y="0" type="line"/>
    </contour>
  </outline>
</glyph>
<glyph name="n" format="1">
  <advance width="1296"/>
  <unicode hex="006E"/>
  <outline>
    <contour>
      <point x="1219" y="0" type="curve"/>
      <point x="1243" y="192" type="line"/>
      <point x="1120" y="174"/>
      <point x="1111" y="233"/>
      <point x="1111" y="357" type="curve" smooth="yes"/>
      <point x="1111" y="572" type="line" smooth="yes"/>
      <point x="1111" y="839"/>
      <point x="951" y="1016"/>
      <point x="709" y="1016" type="curve" smooth="yes"/>
      <point x="602" y="1016"/>
      <point x="483" y="973"/>
      <point x="395" y="893" type="curve"/>
      <point x="378" y="931"/>
      <point x="354" y="966"/>
      <point x="326" y="993" type="curve"/>
      <point x="86" y="904" type="line"/>
      <point x="147" y="828"/>
      <point x="187" y="711"/>
      <point x="187" y="610" type="curve" smooth="yes"/>
      <point x="187" y="0" type="line"/>
      <point x="436" y="0" type="line"/>
      <point x="436" y="630" type="line"/>
      <point x="431" y="686" type="line"/>
      <point x="500" y="757"/>
      <point x="589" y="804"/>
      <point x="666" y="804" type="curve" smooth="yes"/>
      <point x="786" y="804"/>
      <point x="869" y="702"/>
      <point x="869" y="549" type="curve" smooth="yes"/>
      <point x="869" y="263" type="line" smooth="yes"/>
      <point x="869" y="64"/>
      <point x="953" y="-52"/>
    </contour>
  </outline>
</glyph>
<glyph name="o" format="1">
  <advance width="538"/>
  <unicode hex="006F"/>
  <outline>
    <contour>
      <point x="43" y="210" type="curve" smooth="yes"/>
      <point x="43" y="78"/>
      <point x="133" y="-11"/>
      <point x="269" y="-11" type="curve" smooth="yes"/>
      <point x="405" y="-11"/>
      <point x="496" y="78"/>
      <point x="496" y="210" type="curve" smooth="yes"/>
      <point x="496" y="343"/>
      <point x="404" y="431"/>
      <point x="268" y="431" type="curve" smooth="yes"/>
      <point x="132" y="431"/>
      <point x="43" y="343"/>
    </contour>
    <contour>
      <point x="390" y="210" type="curve" smooth="yes"/>
      <point x="390" y="128"/>
      <point x="342" y="73"/>
      <point x="270" y="73" type="curve" smooth="yes"/>
      <point x="198" y="73"/>
      <point x="149" y="128"/>
      <point x="149" y="210" type="curve" smooth="yes"/>
      <point x="149" y="292"/>
      <point x="197" y="346"/>
      <point x="269" y="346" type="curve" smooth="yes"/>
      <point x="341" y="346"/>
      <point x="390" y="292"/>
    </contour>
    <contour>
      <point x="314" y="0" type="move" smooth="yes"/>
    </contour>
  </outline>
</glyph>
<glyph name="p" format="1">
  <advance width="1944"/>
  <unicode hex="0070"/>
  <outline>
    <contour>
      <point x="142" y="-496" type="line"/>
      <point x="391" y="-496" type="line"/>
      <point x="393" y="67" type="line"/>
      <point x="470" y="15"/>
      <point x="594" y="-22"/>
      <point x="694" y="-22" type="curve" smooth="yes"/>
      <point x="993" y="-22"/>
      <point x="1205" y="198"/>
      <point x="1205" y="509" type="curve" smooth="yes"/>
      <point x="1205" y="822"/>
      <point x="999" y="1016"/>
      <point x="719" y="1016" type="curve" smooth="yes"/>
      <point x="594" y="1016"/>
      <point x="441" y="951"/>
      <point x="373" y="824" type="curve"/>
      <point x="361" y="894"/>
      <point x="327" y="951"/>
      <point x="281" y="994" type="curve"/>
      <point x="41" y="906" type="line"/>
      <point x="80" y="855"/>
      <point x="142" y="810"/>
      <point x="142" y="610" type="curve" smooth="yes"/>
    </contour>
    <contour>
      <point x="660" y="174" type="curve" smooth="yes"/>
      <point x="546" y="174"/>
      <point x="434" y="218"/>
      <point x="391" y="282" type="curve"/>
      <point x="391" y="417" type="line" smooth="yes"/>
      <point x="391" y="651"/>
      <point x="517" y="820"/>
      <point x="693" y="820" type="curve" smooth="yes"/>
      <point x="860" y="820"/>
      <point x="956" y="695"/>
      <point x="956" y="503" type="curve" smooth="yes"/>
      <point x="956" y="309"/>
      <point x="835" y="174"/>
    </contour>
  </outline>
</glyph>
<glyph name="q" format="1">
  <advance width="617"/>
  <unicode hex="0071"/>
  <outline>
    <contour>
      <point x="45" y="162" type="curve" smooth="yes"/>
      <point x="45" y="37"/>
      <point x="117" y="-56"/>
      <point x="242" y="-56" type="curve" smooth="yes"/>
      <point x="302" y="-56"/>
      <point x="350" y="-33"/>
      <point x="382" y="6" type="curve"/>
      <point x="382" y="-222" type="line"/>
      <point x="430" y="-270" type="line"/>
      <point x="450" y="-260"/>
      <point x="569" y="-196"/>
      <point x="584" y="-188" type="curve"/>
      <point x="554" y="-138" type="line"/>
      <point x="554" y="-138"/>
      <point x="466" y="-186"/>
      <point x="450" y="-194" type="curve"/>
      <point x="450" y="289" type="line" smooth="yes"/>
      <point x="450" y="332"/>
      <point x="456" y="364"/>
      <point x="458" y="378" type="curve"/>
      <point x="388" y="378" type="line"/>
      <point x="382" y="320" type="line"/>
      <point x="358" y="360"/>
      <point x="326" y="386"/>
      <point x="248" y="386" type="curve" smooth="yes"/>
      <point x="120" y="386"/>
      <point x="45" y="290"/>
    </contour>
    <contour>
      <point x="382" y="178" type="curve" smooth="yes"/>
      <point x="382" y="78" type="line"/>
      <point x="361" y="41"/>
      <point x="306" y="1"/>
      <point x="250" y="1" type="curve" smooth="yes"/>
      <point x="158" y="1"/>
      <point x="116" y="71"/>
      <point x="116" y="163" type="curve" smooth="yes"/>
      <point x="116" y="257"/>
      <point x="156" y="328"/>
      <point x="250" y="328" type="curve" smooth="yes"/>
      <point x="338" y="328"/>
      <point x="382" y="267"/>
    </contour>
  </outline>
</glyph>
<glyph name="r" format="1">
  <advance width="1223"/>
  <unicode hex="0072"/>
  <outline>
    <contour>
      <point x="203" y="0" type="line"/>
      <point x="452" y="0" type="line"/>
      <point x="452" y="525" type="line"/>
      <point x="462" y="606"/>
      <point x="507" y="790"/>
      <point x="707" y="790" type="curve" smooth="yes"/>
      <point x="742" y="790"/>
      <point x="779" y="785"/>
      <point x="823" y="774" type="curve"/>
      <point x="841" y="993" type="line"/>
      <point x="806" y="1002"/>
      <point x="771" y="1012"/>
      <point x="691" y="1012" type="curve" smooth="yes"/>
      <point x="583" y="1012"/>
      <point x="439" y="952"/>
      <point x="428" y="856" type="curve"/>
      <point x="412" y="912"/>
      <point x="381" y="958"/>
      <point x="342" y="996" type="curve"/>
      <point x="102" y="906" type="line"/>
      <point x="141" y="857"/>
      <point x="203" y="810"/>
      <point x="203" y="611" type="curve" smooth="yes"/>
    </contour>
  </outline>
</glyph>
<glyph name="s" format="1">
  <advance width="1597"/>
  <unicode hex="0073"/>
  <outline>
    <contour>
      <point x="647" y="-22" type="curve" smooth="yes"/>
      <point x="894" y="-22"/>
      <point x="1011" y="107"/>
      <point x="1011" y="304" type="curve" smooth="yes"/>
      <point x="1011" y="469"/>
      <point x="926" y="534"/>
      <point x="694" y="605" type="curve"/>
      <point x="550" y="648"/>
      <point x="502" y="679"/>
      <point x="502" y="737" type="curve" smooth="yes"/>
      <point x="502" y="799"/>
      <point x="540" y="832"/>
      <point x="637" y="832" type="curve" smooth="yes"/>
      <point x="722" y="832"/>
      <point x="831" y="805"/>
      <point x="923" y="759" type="curve"/>
      <point x="965" y="939" type="line"/>
      <point x="894" y="979"/>
      <point x="746" y="1016"/>
      <point x="624" y="1016" type="curve" smooth="yes"/>
      <point x="342" y="1016"/>
      <point x="271" y="846"/>
      <point x="271" y="718" type="curve" smooth="yes"/>
      <point x="271" y="574"/>
      <point x="339" y="493"/>
      <point x="563" y="421" type="curve"/>
      <point x="739" y="363"/>
      <point x="790" y="352"/>
      <point x="790" y="275" type="curve" smooth="yes"/>
      <point x="790" y="218"/>
      <point x="756" y="168"/>
      <point x="647" y="168" type="curve" smooth="yes"/>
      <point x="558" y="168"/>
      <point x="442" y="201"/>
      <point x="334" y="254" type="curve"/>
      <point x="282" y="79" type="line"/>
      <point x="353" y="26"/>
      <point x="509" y="-22"/>
    </contour>
  </outline>
</glyph>
<glyph name="t" format="1">
  <advance width="426"/>
  <unicode hex="0074"/>
  <outline>
    <contour>
      <point x="92" y="555" type="line"/>
      <point x="92" y="124" type="line" smooth="yes"/>
      <point x="92" y="31"/>
      <point x="154" y="-9"/>
      <point x="238" y="-9" type="curve" smooth="yes"/>
      <point x="270" y="-9"/>
      <point x="306" y="-2"/>
      <point x="343" y="8" type="curve"/>
      <point x="332" y="88" type="line"/>
      <point x="312" y="82"/>
      <point x="281" y="77"/>
      <point x="261" y="77" type="curve" smooth="yes"/>
      <point x="220" y="77"/>
      <point x="196" y="98"/>
      <point x="196" y="146" type="curve" smooth="yes"/>
      <point x="196" y="568" type="line"/>
    </contour>
    <contour>
      <point x="12" y="422" type="line"/>
      <point x="12" y="347" type="line"/>
      <point x="314" y="347" type="line"/>
      <point x="314" y="422" type="line"/>
    </contour>
    <contour>
      <point x="213" y="0" type="move" smooth="yes"/>
    </contour>
    <contour>
      <point x="213" y="0" type="move" smooth="yes"/>
    </contour>
  </outline>
</glyph>
<glyph name="u" format="1">
  <advance width="2252"/>
  <unicode hex="0075"/>
  <outline>
    <contour>
      <point x="761" y="-22" type="curve" smooth="yes"/>
      <point x="905" y="-22"/>
      <point x="1043" y="50"/>
      <point x="1110" y="158" type="curve"/>
      <point x="1133" y="62"/>
      <point x="1260" y="-4"/>
      <point x="1422" y="-4" type="curve"/>
      <point x="1457" y="211" type="line"/>
      <point x="1378" y="211"/>
      <point x="1326" y="270"/>
      <point x="1326" y="355" type="curve" smooth="yes"/>
      <point x="1326" y="996" type="line"/>
      <point x="1078" y="996" type="line"/>
      <point x="1078" y="473" type="line" smooth="yes"/>
      <point x="1078" y="291"/>
      <point x="961" y="170"/>
      <point x="786" y="170" type="curve" smooth="yes"/>
      <point x="686" y="170"/>
      <point x="625" y="255"/>
      <point x="628" y="381" type="curve" smooth="yes"/>
      <point x="633" y="577" type="line"/>
      <point x="642" y="884"/>
      <point x="596" y="996"/>
      <point x="596" y="996" type="curve"/>
      <point x="347" y="969" type="line"/>
      <point x="347" y="969"/>
      <point x="393" y="844"/>
      <point x="384" y="564" type="curve"/>
      <point x="380" y="354" type="line"/>
      <point x="373" y="129"/>
      <point x="525" y="-22"/>
    </contour>
  </outline>
</glyph>
<glyph name="v" format="1">
  <advance width="1872"/>
  <unicode hex="0076"/>
  <outline>
    <contour>
      <point x="575" y="0" type="line"/>
      <point x="777" y="0" type="line"/>
      <point x="1196" y="996" type="line"/>
      <point x="947" y="996" type="line"/>
      <point x="728" y="484" type="line" smooth="yes"/>
      <point x="716" y="456"/>
      <point x="704" y="424"/>
      <point x="673" y="325" type="curve"/>
      <point x="658" y="377"/>
      <point x="638" y="438"/>
      <point x="617" y="484" type="curve" smooth="yes"/>
      <point x="393" y="996" type="line"/>
      <point x="139" y="996" type="line"/>
    </contour>
  </outline>
</glyph>
<glyph name="w" format="1">
  <advance width="867"/>
  <unicode hex="0077"/>
  <outline>
    <contour>
      <point x="86" y="424" type="line"/>
      <point x="254" y="0" type="line"/>
      <point x="340" y="0" type="line"/>
      <point x="478" y="362" type="line"/>
      <point x="500" y="420"/>
      <point x="407" y="458"/>
      <point x="379" y="379" type="curve" smooth="yes"/>
      <point x="320" y="206" type="line"/>
      <point x="315" y="194"/>
      <point x="308" y="180"/>
      <point x="296" y="138" type="curve"/>
      <point x="290" y="160"/>
      <point x="279" y="186"/>
      <point x="272" y="206" type="curve" smooth="yes"/>
      <point x="194" y="424" type="line"/>
    </contour>
    <contour>
      <point x="676" y="424" type="line"/>
      <point x="600" y="206" type="line"/>
      <point x="595" y="194"/>
      <point x="588" y="180"/>
      <point x="576" y="138" type="curve"/>
      <point x="569" y="160"/>
      <point x="559" y="186"/>
      <point x="552" y="206" type="curve" smooth="yes"/>
      <point x="486" y="381" type="line" smooth="yes"/>
      <point x="458" y="455"/>
      <point x="365" y="424"/>
      <point x="393" y="354" type="curve"/>
      <point x="534" y="0" type="line"/>
      <point x="620" y="0" type="line"/>
      <point x="782" y="424" type="line"/>
    </contour>
    <contour>
      <point x="424" y="0" type="move" smooth="yes"/>
    </contour>
  </outline>
</glyph>
<glyph name="x" format="1">
  <advance width="543"/>
  <unicode hex="0078"/>
  <outline>
    <contour>
      <point x="354" y="424" type="line"/>
      <point x="235" y="258" type="line"/>
      <point x="116" y="424" type="line"/>
      <point x="32" y="424" type="line"/>
      <point x="190" y="212" type="line"/>
      <point x="24" y="0" type="line"/>
      <point x="102" y="0" type="line"/>
      <point x="228" y="168" type="line"/>
      <point x="350" y="0" type="line"/>
      <point x="434" y="0" type="line"/>
      <point x="272" y="214" type="line"/>
      <point x="428" y="424" type="line"/>
    </contour>
  </outline>
</glyph>
<glyph name="y" format="1">
  <advance width="2156"/>
  <unicode hex="0079"/>
  <outline>
    <contour>
      <point x="819" y="-542" type="curve" smooth="yes"/>
      <point x="1112" y="-542"/>
      <point x="1369" y="-401"/>
      <point x="1370" y="-6" type="curve" smooth="yes"/>
      <point x="1371" y="355" type="line"/>
      <point x="1370" y="355" type="line"/>
      <point x="1370" y="996" type="line"/>
      <point x="1122" y="996" type="line"/>
      <point x="1122" y="473" type="line"/>
      <point x="1125" y="291"/>
      <point x="1005" y="170"/>
      <point x="830" y="170" type="curve" smooth="yes"/>
      <point x="732" y="170"/>
      <point x="668" y="255"/>
      <point x="672" y="381" type="curve"/>
      <point x="676" y="577" type="line"/>
      <point x="686" y="884"/>
      <point x="640" y="996"/>
      <point x="640" y="996" type="curve"/>
      <point x="392" y="969" type="line"/>
      <point x="392" y="969"/>
      <point x="439" y="844"/>
      <point x="429" y="564" type="curve"/>
      <point x="424" y="355" type="line" smooth="yes"/>
      <point x="418" y="130"/>
      <point x="569" y="-22"/>
      <point x="805" y="-22" type="curve" smooth="yes"/>
      <point x="930" y="-22"/>
      <point x="1053" y="33"/>
      <point x="1128" y="119" type="curve"/>
      <point x="1125" y="-44" type="line"/>
      <point x="1125" y="-283"/>
      <point x="961" y="-325"/>
      <point x="775" y="-325" type="curve" smooth="yes"/>
      <point x="680" y="-325"/>
      <point x="579" y="-303"/>
      <point x="492" y="-259" type="curve"/>
      <point x="446" y="-459" type="line"/>
      <point x="562" y="-513"/>
      <point x="693" y="-542"/>
    </contour>
  </outline>
</glyph>
<glyph name="z" format="1">
  <advance width="1722"/>
  <unicode hex="007A"/>
  <outline>
    <contour>
      <point x="269" y="0" type="line"/>
      <point x="1084" y="0" type="line"/>
      <point x="1084" y="185" type="line"/>
      <point x="566" y="185" type="line"/>
      <point x="1068" y="843" type="line"/>
      <point x="1068" y="996" type="line"/>
      <point x="295" y="996" type="line"/>
      <point x="295" y="825" type="line"/>
      <point x="777" y="825" type="line"/>
      <point x="269" y="155" type="line"/>
    </contour>
  </outline>
</glyph>
<glyph name="braceleft" format="1">
  <advance width="313"/>
  <unicode hex="007B"/>
  <outline>
    <contour>
      <point x="122" y="572" type="curve"/>
      <point x="122" y="508" type="line" smooth="yes"/>
      <point x="122" y="487"/>
      <point x="124" y="466"/>
      <point x="124" y="445" type="curve"/>
      <point x="124" y="379"/>
      <point x="103" y="334"/>
      <point x="43" y="328" type="curve"/>
      <point x="43" y="267" type="line"/>
      <point x="111" y="260"/>
      <point x="122" y="211"/>
      <point x="122" y="137" type="curve" smooth="yes"/>
      <point x="122" y="6" type="line" smooth="yes"/>
      <point x="122" y="-91"/>
      <point x="190" y="-126"/>
      <point x="283" y="-130" type="curve"/>
      <point x="283" y="-66" type="line"/>
      <point x="267" y="-66"/>
      <point x="254" y="-65"/>
      <point x="244" y="-61" type="curve" smooth="yes"/>
      <point x="206" y="-47"/>
      <point x="202" y="0"/>
      <point x="202" y="54" type="curve" smooth="yes"/>
      <point x="202" y="162" type="line" smooth="yes"/>
      <point x="202" y="227"/>
      <point x="180" y="276"/>
      <point x="134" y="298" type="curve"/>
      <point x="176" y="320"/>
      <point x="204" y="368"/>
      <point x="204" y="434" type="curve" smooth="yes"/>
      <point x="204" y="578" type="line" smooth="yes"/>
      <point x="204" y="636"/>
      <point x="227" y="660"/>
      <point x="283" y="662" type="curve"/>
      <point x="283" y="726" type="line"/>
      <point x="175" y="726"/>
      <point x="122" y="678"/>
    </contour>
  </outline>
</glyph>
<glyph name="bar" format="1">
  <advance width="880"/>
  <unicode hex="007C"/>
  <outline>
    <contour>
      <point x="296" y="-865" type="line"/>
      <point x="481" y="-865" type="line"/>
      <point x="481" y="1526" type="line"/>
      <point x="296" y="1526" type="line"/>
    </contour>
  </outline>
</glyph>
<glyph name="braceright" format="1">
  <advance width="1104"/>
  <unicode hex="007D"/>
  <outline>
    <contour>
      <point x="116" y="-456" type="line"/>
      <point x="334" y="-447"/>
      <point x="495" y="-367"/>
      <point x="495" y="-138" type="curve" smooth="yes"/>
      <point x="494" y="169" type="line" smooth="yes"/>
      <point x="494" y="206"/>
      <point x="494" y="240"/>
      <point x="497" y="275" type="curve" smooth="yes"/>
      <point x="504" y="395"/>
      <point x="560" y="464"/>
      <point x="679" y="476" type="curve"/>
      <point x="681" y="618" type="line"/>
      <point x="540" y="631"/>
      <point x="490" y="739"/>
      <point x="490" y="894" type="curve"/>
      <point x="492" y="943"/>
      <point x="494" y="991"/>
      <point x="494" y="1041" type="curve" smooth="yes"/>
      <point x="494" y="1090"/>
      <point x="494" y="1141"/>
      <point x="495" y="1190" type="curve"/>
      <point x="495" y="1440"/>
      <point x="368" y="1552"/>
      <point x="116" y="1552" type="curve"/>
      <point x="116" y="1404" type="line"/>
      <point x="248" y="1400"/>
      <point x="301" y="1343"/>
      <point x="301" y="1207" type="curve" smooth="yes"/>
      <point x="302" y="868" type="line" smooth="yes"/>
      <point x="302" y="712"/>
      <point x="366" y="599"/>
      <point x="466" y="547" type="curve"/>
      <point x="358" y="496"/>
      <point x="305" y="383"/>
      <point x="305" y="230" type="curve" smooth="yes"/>
      <point x="305" y="153"/>
      <point x="308" y="50"/>
      <point x="308" y="-27" type="curve" smooth="yes"/>
      <point x="308" y="-82"/>
      <point x="304" y="-127"/>
      <point x="298" y="-163" type="curve" smooth="yes"/>
      <point x="280" y="-264"/>
      <point x="234" y="-308"/>
      <point x="116" y="-308" type="curve"/>
    </contour>
  </outline>
</glyph>
<glyph name="exclamdown" format="1">
  <advance width="368"/>
  <unicode hex="00A1"/>
  <outline>
    <contour>
      <point x="130" y="347" type="line"/>
      <point x="130" y="-192" type="line"/>
      <point x="213" y="-192" type="line"/>
      <point x="213" y="347" type="line"/>
    </contour>
    <contour>
      <point x="130" y="545" type="line"/>
      <point x="130" y="442" type="line"/>
      <point x="237" y="442" type="line"/>
      <point x="237" y="545" type="line"/>
    </contour>
  </outline>
</glyph>
<glyph name="cent" format="1">
  <advance width="2094"/>
  <unicode hex="00A2"/>
  <outline>
    <contour>
      <point x="705" y="-414" type="line"/>
      <point x="838" y="-414" type="line"/>
      <point x="838" y="-162" type="line"/>
      <point x="953" y="-151"/>
      <point x="1076" y="-110"/>
      <point x="1201" y="-36" type="curve"/>
      <point x="1159" y="126" type="line"/>
      <point x="1047" y="49"/>
      <point x="937" y="13"/>
      <point x="838" y="3" type="curve"/>
      <point x="838" y="927" type="line"/>
      <point x="949" y="916"/>
      <point x="1034" y="874"/>
      <point x="1092" y="802" type="curve"/>
      <point x="1182" y="933" type="line"/>
      <point x="1112" y="1026"/>
      <point x="992" y="1081"/>
      <point x="838" y="1093" type="curve"/>
      <point x="838" y="1366" type="line"/>
      <point x="705" y="1366" type="line"/>
      <point x="705" y="1093" type="line"/>
      <point x="368" y="1064"/>
      <point x="166" y="807"/>
      <point x="166" y="452" type="curve" smooth="yes"/>
      <point x="166" y="112"/>
      <point x="393" y="-132"/>
      <point x="705" y="-162" type="curve"/>
    </contour>
    <contour>
      <point x="705" y="6" type="line"/>
      <point x="505" y="37"/>
      <point x="369" y="196"/>
      <point x="369" y="458" type="curve" smooth="yes"/>
      <point x="369" y="700"/>
      <point x="485" y="888"/>
      <point x="705" y="924" type="curve"/>
    </contour>
  </outline>
</glyph>
<glyph name="sterling" format="1">
  <advance width="2094"/>
  <unicode hex="00A3"/>
  <outline>
    <contour>
      <point x="202" y="0" type="line"/>
      <point x="1336" y="0" type="line"/>
      <point x="1336" y="166" type="line"/>
      <point x="501" y="166" type="line"/>
      <point x="520" y="181"/>
      <point x="537" y="200"/>
      <point x="550" y="228" type="curve" smooth="yes"/>
      <point x="614" y="359"/>
      <point x="616" y="558"/>
      <point x="616" y="752" type="curve" smooth="yes"/>
      <point x="616" y="810" type="line"/>
      <point x="1004" y="810" type="line"/>
      <point x="1004" y="977" type="line"/>
      <point x="614" y="977" type="line"/>
      <point x="611" y="1112" type="line"/>
      <point x="611" y="1357"/>
      <point x="687" y="1535"/>
      <point x="931" y="1535" type="curve" smooth="yes"/>
      <point x="1062" y="1535"/>
      <point x="1170" y="1503"/>
      <point x="1252" y="1453" type="curve"/>
      <point x="1314" y="1594" type="line"/>
      <point x="1223" y="1665"/>
      <point x="1096" y="1700"/>
      <point x="927" y="1700" type="curve" smooth="yes"/>
      <point x="512" y="1700"/>
      <point x="412" y="1421"/>
      <point x="412" y="1010" type="curve" smooth="yes"/>
      <point x="412" y="999"/>
      <point x="413" y="988"/>
      <point x="415" y="977" type="curve"/>
      <point x="200" y="977" type="line"/>
      <point x="200" y="810" type="line"/>
      <point x="415" y="810" type="line"/>
      <point x="415" y="517" type="line" smooth="yes"/>
      <point x="415" y="319"/>
      <point x="322" y="234"/>
      <point x="200" y="163" type="curve"/>
    </contour>
  </outline>
</glyph>
<glyph name="yen" format="1">
  <advance width="594"/>
  <unicode hex="00A5"/>
  <outline>
    <contour>
      <point x="486" y="710" type="line"/>
      <point x="424" y="606"/>
      <point x="363" y="501"/>
      <point x="300" y="398" type="curve"/>
      <point x="240" y="504"/>
      <point x="178" y="606"/>
      <point x="116" y="710" type="curve"/>
      <point x="13" y="710" type="line"/>
      <point x="236" y="358" type="line"/>
      <point x="52" y="358" type="line"/>
      <point x="52" y="287" type="line"/>
      <point x="253" y="287" type="line"/>
      <point x="253" y="212" type="line"/>
      <point x="49" y="212" type="line"/>
      <point x="54" y="142" type="line"/>
      <point x="254" y="142" type="line"/>
      <point x="254" y="0" type="line"/>
      <point x="340" y="0" type="line"/>
      <point x="340" y="142" type="line"/>
      <point x="536" y="142" type="line"/>
      <point x="536" y="212" type="line"/>
      <point x="338" y="212" type="line"/>
      <point x="338" y="287" type="line"/>
      <point x="534" y="287" type="line"/>
      <point x="534" y="358" type="line"/>
      <point x="352" y="358" type="line"/>
      <point x="580" y="710" type="line"/>
    </contour>
  </outline>
</glyph>
<glyph name="brokenbar" format="1">
  <advance width="250"/>
  <unicode hex="00A6"/>
  <outline>
    <contour>
      <point x="84" y="196" type="line"/>
      <point x="84" y="-246" type="line"/>
      <point x="162" y="-246" type="line"/>
      <point x="162" y="196" type="line"/>
    </contour>
    <contour>
      <point x="84" y="772" type="line"/>
      <point x="84" y="338" type="line"/>
      <point x="162" y="338" type="line"/>
      <point x="162" y="772" type="line"/>
    </contour>
  </outline>
</glyph>
<glyph name="section" format="1">
  <advance width="1932"/>
  <unicode hex="00A7"/>
  <outline>
    <contour>
      <point x="674" y="-84" type="curve" smooth="yes"/>
      <point x="807" y="-84"/>
      <point x="925" y="-49"/>
      <point x="1007" y="7" type="curve"/>
      <point x="1084" y="61"/>
      <point x="1152" y="143"/>
      <point x="1152" y="267" type="curve" smooth="yes"/>
      <point x="1152" y="415"/>
      <point x="1060" y="485"/>
      <point x="960" y="536" type="curve"/>
      <point x="1058" y="595"/>
      <point x="1178" y="684"/>
      <point x="1178" y="837" type="curve" smooth="yes"/>
      <point x="1178" y="878"/>
      <point x="1168" y="916"/>
      <point x="1149" y="949" type="curve" smooth="yes"/>
      <point x="1062" y="1096"/>
      <point x="856" y="1148"/>
      <point x="703" y="1231" type="curve" smooth="yes"/>
      <point x="635" y="1269"/>
      <point x="570" y="1311"/>
      <point x="570" y="1406" type="curve" smooth="yes"/>
      <point x="570" y="1532"/>
      <point x="695" y="1564"/>
      <point x="822" y="1564" type="curve" smooth="yes"/>
      <point x="921" y="1564"/>
      <point x="1017" y="1536"/>
      <point x="1088" y="1503" type="curve"/>
      <point x="1085" y="1677" type="line"/>
      <point x="997" y="1704"/>
      <point x="925" y="1725"/>
      <point x="817" y="1725" type="curve" smooth="yes"/>
      <point x="581" y="1725"/>
      <point x="368" y="1635"/>
      <point x="368" y="1401" type="curve" smooth="yes"/>
      <point x="368" y="1251"/>
      <point x="448" y="1177"/>
      <point x="548" y="1117" type="curve"/>
      <point x="445" y="1065"/>
      <point x="326" y="980"/>
      <point x="326" y="828" type="curve" smooth="yes"/>
      <point x="326" y="790"/>
      <point x="333" y="755"/>
      <point x="346" y="723" type="curve" smooth="yes"/>
      <point x="391" y="614"/>
      <point x="493" y="552"/>
      <point x="603" y="505" type="curve" smooth="yes"/>
      <point x="702" y="463" type="line" smooth="yes"/>
      <point x="741" y="447"/>
      <point x="776" y="431"/>
      <point x="807" y="417" type="curve" smooth="yes"/>
      <point x="874" y="385"/>
      <point x="948" y="350"/>
      <point x="948" y="257" type="curve" smooth="yes"/>
      <point x="948" y="231"/>
      <point x="943" y="208"/>
      <point x="930" y="186" type="curve" smooth="yes"/>
      <point x="888" y="112"/>
      <point x="788" y="77"/>
      <point x="669" y="77" type="curve" smooth="yes"/>
      <point x="547" y="77"/>
      <point x="452" y="108"/>
      <point x="355" y="151" type="curve"/>
      <point x="358" y="-23" type="line"/>
      <point x="447" y="-59"/>
      <point x="554" y="-84"/>
    </contour>
    <contour>
      <point x="802" y="614" type="curve"/>
      <point x="762" y="630"/>
      <point x="726" y="646"/>
      <point x="693" y="661" type="curve" smooth="yes"/>
      <point x="618" y="695"/>
      <point x="533" y="739"/>
      <point x="533" y="842" type="curve" smooth="yes"/>
      <point x="533" y="948"/>
      <point x="619" y="1005"/>
      <point x="690" y="1043" type="curve"/>
      <point x="785" y="991"/>
      <point x="969" y="965"/>
      <point x="969" y="821" type="curve" smooth="yes"/>
      <point x="969" y="797"/>
      <point x="965" y="777"/>
      <point x="955" y="756" type="curve"/>
      <point x="922" y="694"/>
      <point x="860" y="651"/>
    </contour>
  </outline>
</glyph>
<glyph name="dieresis" format="1">
  <advance width="1308"/>
  <unicode hex="00A8"/>
  <outline>
    <contour>
      <point x="143" y="2084" type="line"/>
      <point x="406" y="2084" type="line"/>
      <point x="406" y="2345" type="line"/>
      <point x="143" y="2345" type="line"/>
    </contour>
    <contour>
      <point x="568" y="2084" type="line"/>
      <point x="831" y="2084" type="line"/>
      <point x="831" y="2345" type="line"/>
      <point x="568" y="2345" type="line"/>
    </contour>
  </outline>
</glyph>
<glyph name="copyright" format="1">
  <advance width="3221"/>
  <unicode hex="00A9"/>
  <outline>
    <contour>
      <point x="1164" y="273" type="curve" smooth="yes"/>
      <point x="1305" y="273"/>
      <point x="1426" y="308"/>
      <point x="1527" y="379" type="curve"/>
      <point x="1481" y="521" type="line"/>
      <point x="1410" y="463"/>
      <point x="1321" y="427"/>
      <point x="1202" y="427" type="curve" smooth="yes"/>
      <point x="1132" y="427"/>
      <point x="1071" y="439"/>
      <point x="1018" y="460" type="curve" smooth="yes"/>
      <point x="876" y="518"/>
      <point x="780" y="646"/>
      <point x="780" y="842" type="curve" smooth="yes"/>
      <point x="780" y="898"/>
      <point x="790" y="951"/>
      <point x="808" y="1000" type="curve" smooth="yes"/>
      <point x="860" y="1142"/>
      <point x="979" y="1250"/>
      <point x="1169" y="1250" type="curve" smooth="yes"/>
      <point x="1295" y="1250"/>
      <point x="1400" y="1212"/>
      <point x="1486" y="1138" type="curve"/>
      <point x="1522" y="1279" type="line"/>
      <point x="1427" y="1360"/>
      <point x="1312" y="1399"/>
      <point x="1177" y="1399" type="curve" smooth="yes"/>
      <point x="1090" y="1399"/>
      <point x="1012" y="1385"/>
      <point x="941" y="1357" type="curve" smooth="yes"/>
      <point x="745" y="1280"/>
      <point x="600" y="1107"/>
      <point x="600" y="837" type="curve" smooth="yes"/>
      <point x="600" y="759"/>
      <point x="615" y="685"/>
      <point x="643" y="617" type="curve" smooth="yes"/>
      <point x="721" y="424"/>
      <point x="897" y="273"/>
    </contour>
    <contour>
      <point x="1133" y="-57" type="curve" smooth="yes"/>
      <point x="1425" y="-57"/>
      <point x="1643" y="59"/>
      <point x="1798" y="206" type="curve" smooth="yes"/>
      <point x="1948" y="348"/>
      <point x="2076" y="550"/>
      <point x="2076" y="832" type="curve" smooth="yes"/>
      <point x="2076" y="913"/>
      <point x="2064" y="991"/>
      <point x="2042" y="1066" type="curve" smooth="yes"/>
      <point x="1994" y="1225"/>
      <point x="1907" y="1355"/>
      <point x="1798" y="1458" type="curve" smooth="yes"/>
      <point x="1642" y="1605"/>
      <point x="1423" y="1723"/>
      <point x="1127" y="1723" type="curve" smooth="yes"/>
      <point x="835" y="1723"/>
      <point x="618" y="1607"/>
      <point x="461" y="1460" type="curve"/>
      <point x="311" y="1318"/>
      <point x="181" y="1116"/>
      <point x="181" y="833" type="curve" smooth="yes"/>
      <point x="181" y="752"/>
      <point x="193" y="674"/>
      <point x="215" y="599" type="curve" smooth="yes"/>
      <point x="263" y="441"/>
      <point x="349" y="309"/>
      <point x="459" y="206" type="curve" smooth="yes"/>
      <point x="616" y="59"/>
      <point x="837" y="-57"/>
    </contour>
    <contour>
      <point x="1133" y="81" type="curve" smooth="yes"/>
      <point x="889" y="81"/>
      <point x="693" y="173"/>
      <point x="561" y="298" type="curve" smooth="yes"/>
      <point x="433" y="418"/>
      <point x="330" y="599"/>
      <point x="330" y="835" type="curve" smooth="yes"/>
      <point x="330" y="1068"/>
      <point x="433" y="1249"/>
      <point x="561" y="1369" type="curve" smooth="yes"/>
      <point x="692" y="1491"/>
      <point x="885" y="1585"/>
      <point x="1128" y="1585" type="curve" smooth="yes"/>
      <point x="1371" y="1585"/>
      <point x="1567" y="1491"/>
      <point x="1698" y="1367" type="curve" smooth="yes"/>
      <point x="1825" y="1247"/>
      <point x="1927" y="1066"/>
      <point x="1927" y="832" type="curve" smooth="yes"/>
      <point x="1927" y="598"/>
      <point x="1824" y="418"/>
      <point x="1698" y="298" type="curve" smooth="yes"/>
      <point x="1568" y="174"/>
      <point x="1376" y="81"/>
    </contour>
  </outline>
</glyph>
<glyph name="ordfeminine" format="1">
  <advance width="1312"/>
  <unicode hex="00AA"/>
  <outline>
    <contour>
      <point x="411" y="1353" type="curve" smooth="yes"/>
      <point x="528" y="1353"/>
      <point x="617" y="1396"/>
      <point x="669" y="1460" type="curve"/>
      <point x="676" y="1374" type="line"/>
      <point x="830" y="1374" type="line"/>
      <point x="824" y="1445"/>
      <point x="822" y="1472"/>
      <point x="822" y="1524" type="curve" smooth="yes"/>
      <point x="824" y="1901" type="line"/>
      <point x="824" y="2095"/>
      <point x="694" y="2185"/>
      <point x="501" y="2185" type="curve" smooth="yes"/>
      <point x="346" y="2185"/>
      <point x="229" y="2137"/>
      <point x="169" y="2036" type="curve"/>
      <point x="248" y="1948" type="line"/>
      <point x="300" y="2025"/>
      <point x="378" y="2059"/>
      <point x="494" y="2059" type="curve" smooth="yes"/>
      <point x="623" y="2059"/>
      <point x="668" y="2012"/>
      <point x="668" y="1883" type="curve" smooth="yes"/>
      <point x="668" y="1873" type="line"/>
      <point x="581" y="1861"/>
      <point x="489" y="1863"/>
      <point x="402" y="1851" type="curve"/>
      <point x="261" y="1829"/>
      <point x="116" y="1756"/>
      <point x="116" y="1596" type="curve" smooth="yes"/>
      <point x="116" y="1559"/>
      <point x="123" y="1526"/>
      <point x="138" y="1496" type="curve" smooth="yes"/>
      <point x="182" y="1407"/>
      <point x="279" y="1353"/>
    </contour>
    <contour>
      <point x="435" y="1474" type="curve" smooth="yes"/>
      <point x="344" y="1474"/>
      <point x="276" y="1507"/>
      <point x="276" y="1598" type="curve" smooth="yes"/>
      <point x="276" y="1761"/>
      <point x="536" y="1728"/>
      <point x="668" y="1754" type="curve"/>
      <point x="668" y="1725" type="line"/>
      <point x="660" y="1581"/>
      <point x="588" y="1474"/>
    </contour>
  </outline>
</glyph>
<glyph name="guillemotleft" format="1">
  <advance width="2035"/>
  <unicode hex="00AB"/>
  <outline>
    <contour>
      <point x="749" y="301" type="line"/>
      <point x="933" y="301" type="line"/>
      <point x="633" y="735" type="line"/>
      <point x="944" y="1174" type="line"/>
      <point x="756" y="1174" type="line"/>
      <point x="433" y="735" type="line"/>
    </contour>
    <contour>
      <point x="1183" y="301" type="line"/>
      <point x="1368" y="301" type="line"/>
      <point x="1067" y="735" type="line"/>
      <point x="1376" y="1174" type="line"/>
      <point x="1189" y="1174" type="line"/>
      <point x="868" y="735" type="line"/>
    </contour>
  </outline>
</glyph>
<glyph name="logicalnot" format="1">
  <advance width="729"/>
  <unicode hex="00AC"/>
  <outline>
    <contour>
      <point x="100" y="399" type="line"/>
      <point x="100" y="330" type="line"/>
      <point x="549" y="330" type="line"/>
      <point x="549" y="119" type="line"/>
      <point x="624" y="119" type="line"/>
      <point x="624" y="399" type="line"/>
    </contour>
  </outline>
</glyph>
<glyph name="registered" format="1">
  <advance width="3221"/>
  <unicode hex="00AE"/>
  <outline>
    <contour>
      <point x="762" y="302" type="line"/>
      <point x="936" y="302" type="line"/>
      <point x="936" y="761" type="line"/>
      <point x="1096" y="761" type="line"/>
      <point x="1168" y="715"/>
      <point x="1219" y="635"/>
      <point x="1268" y="550" type="curve" smooth="yes"/>
      <point x="1413" y="302" type="line"/>
      <point x="1610" y="302" type="line"/>
      <point x="1572" y="366"/>
      <point x="1538" y="421"/>
      <point x="1506" y="472" type="curve" smooth="yes"/>
      <point x="1435" y="586"/>
      <point x="1367" y="696"/>
      <point x="1277" y="781" type="curve"/>
      <point x="1448" y="803"/>
      <point x="1588" y="891"/>
      <point x="1588" y="1079" type="curve" smooth="yes"/>
      <point x="1588" y="1176"/>
      <point x="1547" y="1251"/>
      <point x="1464" y="1303" type="curve" smooth="yes"/>
      <point x="1381" y="1355"/>
      <point x="1254" y="1380"/>
      <point x="1082" y="1380" type="curve" smooth="yes"/>
      <point x="762" y="1380" type="line"/>
    </contour>
    <contour>
      <point x="1133" y="-57" type="curve" smooth="yes"/>
      <point x="1425" y="-57"/>
      <point x="1643" y="59"/>
      <point x="1798" y="206" type="curve" smooth="yes"/>
      <point x="1948" y="348"/>
      <point x="2076" y="550"/>
      <point x="2076" y="832" type="curve" smooth="yes"/>
      <point x="2076" y="913"/>
      <point x="2064" y="991"/>
      <point x="2042" y="1066" type="curve" smooth="yes"/>
      <point x="1994" y="1225"/>
      <point x="1907" y="1355"/>
      <point x="1798" y="1458" type="curve" smooth="yes"/>
      <point x="1642" y="1605"/>
      <point x="1423" y="1723"/>
      <point x="1127" y="1723" type="curve" smooth="yes"/>
      <point x="835" y="1723"/>
      <point x="618" y="1607"/>
      <point x="461" y="1460" type="curve"/>
      <point x="311" y="1318"/>
      <point x="181" y="1116"/>
      <point x="181" y="833" type="curve" smooth="yes"/>
      <point x="181" y="752"/>
      <point x="193" y="674"/>
      <point x="215" y="599" type="curve" smooth="yes"/>
      <point x="263" y="441"/>
      <point x="349" y="309"/>
      <point x="459" y="206" type="curve" smooth="yes"/>
      <point x="616" y="59"/>
      <point x="837" y="-57"/>
    </contour>
    <contour>
      <point x="1133" y="81" type="curve" smooth="yes"/>
      <point x="889" y="81"/>
      <point x="693" y="173"/>
      <point x="561" y="298" type="curve" smooth="yes"/>
      <point x="433" y="418"/>
      <point x="330" y="599"/>
      <point x="330" y="835" type="curve" smooth="yes"/>
      <point x="330" y="1068"/>
      <point x="433" y="1248"/>
      <point x="561" y="1369" type="curve" smooth="yes"/>
      <point x="692" y="1492"/>
      <point x="885" y="1585"/>
      <point x="1128" y="1585" type="curve" smooth="yes"/>
      <point x="1371" y="1585"/>
      <point x="1567" y="1491"/>
      <point x="1698" y="1367" type="curve" smooth="yes"/>
      <point x="1825" y="1247"/>
      <point x="1927" y="1066"/>
      <point x="1927" y="832" type="curve" smooth="yes"/>
      <point x="1927" y="591"/>
      <point x="1827" y="418"/>
      <point x="1699" y="298" type="curve" smooth="yes"/>
      <point x="1568" y="174"/>
      <point x="1383" y="81"/>
    </contour>
    <contour>
      <point x="933" y="900" type="line"/>
      <point x="932" y="1239" type="line"/>
      <point x="1078" y="1239" type="line" smooth="yes"/>
      <point x="1258" y="1239"/>
      <point x="1406" y="1238"/>
      <point x="1406" y="1061" type="curve" smooth="yes"/>
      <point x="1406" y="902"/>
      <point x="1242" y="900"/>
      <point x="1080" y="900" type="curve" smooth="yes"/>
    </contour>
  </outline>
</glyph>
<glyph name="macron" format="1">
  <advance width="364"/>
  <unicode hex="00AF"/>
  <outline>
    <contour>
      <point x="40" y="658" type="line"/>
      <point x="40" y="592" type="line"/>
      <point x="326" y="592" type="line"/>
      <point x="326" y="658" type="line"/>
    </contour>
    <contour>
      <point x="182" y="0" type="move" smooth="yes"/>
    </contour>
  </outline>
</glyph>
<glyph name="plusminus" format="1">
  <advance width="2567"/>
  <unicode hex="00B1"/>
  <outline>
    <contour>
      <point x="870" y="262" type="line"/>
      <point x="1047" y="262" type="line"/>
      <point x="1047" y="699" type="line"/>
      <point x="1572" y="699" type="line"/>
      <point x="1572" y="861" type="line"/>
      <point x="1042" y="861" type="line"/>
      <point x="1042" y="1299" type="line"/>
      <point x="868" y="1299" type="line"/>
      <point x="868" y="861" type="line"/>
      <point x="331" y="861" type="line"/>
      <point x="346" y="699" type="line"/>
      <point x="870" y="699" type="line"/>
    </contour>
    <contour>
      <point x="346" y="0" type="line"/>
      <point x="1577" y="0" type="line"/>
      <point x="1577" y="163" type="line"/>
      <point x="346" y="163" type="line"/>
    </contour>
  </outline>
</glyph>
<glyph name="uni00B2" format="1">
  <advance width="595"/>
  <unicode hex="00B2"/>
  <outline>
    <contour>
      <point x="146" y="635" type="curve"/>
      <point x="188" y="596" type="line"/>
      <point x="204" y="631"/>
      <point x="232" y="662"/>
      <point x="280" y="662" type="curve" smooth="yes"/>
      <point x="320" y="662"/>
      <point x="350" y="644"/>
      <point x="350" y="606" type="curve" smooth="yes"/>
      <point x="350" y="592"/>
      <point x="345" y="576"/>
      <point x="335" y="559" type="curve" smooth="yes"/>
      <point x="325" y="542"/>
      <point x="310" y="523"/>
      <point x="292" y="503" type="curve" smooth="yes"/>
      <point x="248" y="454"/>
      <point x="195" y="406"/>
      <point x="142" y="358" type="curve"/>
      <point x="142" y="302" type="line"/>
      <point x="414" y="302" type="line"/>
      <point x="414" y="361" type="line"/>
      <point x="232" y="361" type="line"/>
      <point x="278" y="401"/>
      <point x="325" y="440"/>
      <point x="362" y="484" type="curve" smooth="yes"/>
      <point x="389" y="516"/>
      <point x="415" y="554"/>
      <point x="415" y="606" type="curve" smooth="yes"/>
      <point x="415" y="624"/>
      <point x="411" y="640"/>
      <point x="405" y="654" type="curve" smooth="yes"/>
      <point x="385" y="694"/>
      <point x="343" y="720"/>
      <point x="284" y="720" type="curve" smooth="yes"/>
      <point x="215" y="720"/>
      <point x="168" y="685"/>
    </contour>
  </outline>
</glyph>
<glyph name="uni00B3" format="1">
  <advance width="595"/>
  <unicode hex="00B3"/>
  <outline>
    <contour>
      <point x="118" y="670" type="curve"/>
      <point x="146" y="622" type="line"/>
      <point x="170" y="642"/>
      <point x="201" y="661"/>
      <point x="242" y="661" type="curve" smooth="yes"/>
      <point x="282" y="661"/>
      <point x="313" y="645"/>
      <point x="313" y="605" type="curve" smooth="yes"/>
      <point x="313" y="555"/>
      <point x="264" y="544"/>
      <point x="214" y="544" type="curve" smooth="yes"/>
      <point x="190" y="544" type="line"/>
      <point x="190" y="485" type="line"/>
      <point x="203" y="485" type="line" smooth="yes"/>
      <point x="207" y="485"/>
      <point x="214" y="486"/>
      <point x="218" y="486" type="curve" smooth="yes"/>
      <point x="274" y="486"/>
      <point x="326" y="474"/>
      <point x="326" y="418" type="curve" smooth="yes"/>
      <point x="326" y="372"/>
      <point x="285" y="350"/>
      <point x="238" y="350" type="curve" smooth="yes"/>
      <point x="206" y="350"/>
      <point x="176" y="364"/>
      <point x="148" y="390" type="curve"/>
      <point x="118" y="342" type="line"/>
      <point x="146" y="314"/>
      <point x="186" y="293"/>
      <point x="240" y="293" type="curve" smooth="yes"/>
      <point x="260" y="293"/>
      <point x="280" y="296"/>
      <point x="298" y="302" type="curve" smooth="yes"/>
      <point x="347" y="318"/>
      <point x="390" y="354"/>
      <point x="390" y="417" type="curve" smooth="yes"/>
      <point x="390" y="469"/>
      <point x="363" y="500"/>
      <point x="326" y="516" type="curve"/>
      <point x="357" y="532"/>
      <point x="380" y="562"/>
      <point x="380" y="606" type="curve" smooth="yes"/>
      <point x="380" y="624"/>
      <point x="376" y="641"/>
      <point x="368" y="655" type="curve" smooth="yes"/>
      <point x="347" y="694"/>
      <point x="304" y="720"/>
      <point x="244" y="720" type="curve" smooth="yes"/>
      <point x="192" y="720"/>
      <point x="146" y="697"/>
    </contour>
  </outline>
</glyph>
<glyph name="acute" format="1">
  <advance width="1068"/>
  <unicode hex="00B4"/>
  <outline>
    <contour>
      <point x="308" y="2064" type="line"/>
      <point x="531" y="2064" type="line"/>
      <point x="893" y="2440" type="line"/>
      <point x="574" y="2440" type="line"/>
    </contour>
  </outline>
</glyph>
<glyph name="paragraph" format="1">
  <advance width="2137"/>
  <unicode hex="00B6"/>
  <outline>
    <contour>
      <point x="581" y="-261" type="line"/>
      <point x="750" y="-261" type="line"/>
      <point x="750" y="1471" type="line"/>
      <point x="994" y="1471" type="line"/>
      <point x="994" y="-261" type="line"/>
      <point x="1146" y="-261" type="line"/>
      <point x="1146" y="1471" type="line"/>
      <point x="1247" y="1471" type="line"/>
      <point x="1247" y="1617" type="line"/>
      <point x="795" y="1617" type="line" smooth="yes"/>
      <point x="485" y="1617"/>
      <point x="188" y="1550"/>
      <point x="188" y="1240" type="curve" smooth="yes"/>
      <point x="188" y="1180"/>
      <point x="199" y="1125"/>
      <point x="220" y="1076" type="curve" smooth="yes"/>
      <point x="277" y="943"/>
      <point x="399" y="839"/>
      <point x="581" y="836" type="curve"/>
    </contour>
  </outline>
</glyph>
<glyph name="periodcentered" format="1">
  <advance width="222"/>
  <unicode hex="00B7"/>
  <outline>
    <contour>
      <point x="38" y="362" type="line"/>
      <point x="38" y="256" type="line"/>
      <point x="146" y="256" type="line"/>
      <point x="146" y="362" type="line"/>
    </contour>
  </outline>
</glyph>
<glyph name="uni00B9" format="1">
  <advance width="2095"/>
  <unicode hex="00B9"/>
  <outline>
    <contour>
      <point x="458" y="1064" type="line"/>
      <point x="886" y="1064" type="line"/>
      <point x="886" y="1201" type="line"/>
      <point x="743" y="1201" type="line"/>
      <point x="743" y="2030" type="line"/>
      <point x="619" y="2012" type="line"/>
      <point x="558" y="1976"/>
      <point x="500" y="1945"/>
      <point x="422" y="1920" type="curve"/>
      <point x="421" y="1767" type="line"/>
      <point x="480" y="1789"/>
      <point x="547" y="1819"/>
      <point x="599" y="1847" type="curve"/>
      <point x="599" y="1726" type="line" smooth="yes"/>
      <point x="599" y="1665"/>
      <point x="600" y="1608"/>
      <point x="600" y="1538" type="curve" smooth="yes"/>
      <point x="600" y="1204" type="line"/>
      <point x="458" y="1204" type="line"/>
    </contour>
  </outline>
</glyph>
<glyph name="ordmasculine" format="1">
  <advance width="1451"/>
  <unicode hex="00BA"/>
  <outline>
    <contour>
      <point x="519" y="1351" type="curve" smooth="yes"/>
      <point x="588" y="1351"/>
      <point x="648" y="1362"/>
      <point x="700" y="1384" type="curve" smooth="yes"/>
      <point x="841" y="1443"/>
      <point x="940" y="1570"/>
      <point x="940" y="1766" type="curve" smooth="yes"/>
      <point x="940" y="1824"/>
      <point x="930" y="1879"/>
      <point x="913" y="1930" type="curve" smooth="yes"/>
      <point x="859" y="2083"/>
      <point x="725" y="2184"/>
      <point x="519" y="2184" type="curve" smooth="yes"/>
      <point x="451" y="2184"/>
      <point x="390" y="2172"/>
      <point x="338" y="2151" type="curve" smooth="yes"/>
      <point x="196" y="2092"/>
      <point x="94" y="1966"/>
      <point x="94" y="1770" type="curve" smooth="yes"/>
      <point x="94" y="1509"/>
      <point x="255" y="1351"/>
    </contour>
    <contour>
      <point x="519" y="1477" type="curve" smooth="yes"/>
      <point x="347" y="1477"/>
      <point x="258" y="1598"/>
      <point x="258" y="1769" type="curve" smooth="yes"/>
      <point x="258" y="1935"/>
      <point x="349" y="2058"/>
      <point x="516" y="2058" type="curve" smooth="yes"/>
      <point x="686" y="2058"/>
      <point x="778" y="1935"/>
      <point x="778" y="1765" type="curve" smooth="yes"/>
      <point x="778" y="1600"/>
      <point x="685" y="1477"/>
    </contour>
  </outline>
</glyph>
<glyph name="guillemotright" format="1">
  <advance width="2035"/>
  <unicode hex="00BB"/>
  <outline>
    <contour>
      <point x="291" y="301" type="line"/>
      <point x="479" y="301" type="line"/>
      <point x="802" y="737" type="line"/>
      <point x="484" y="1174" type="line"/>
      <point x="298" y="1174" type="line"/>
      <point x="602" y="737" type="line"/>
    </contour>
    <contour>
      <point x="758" y="301" type="line"/>
      <point x="943" y="301" type="line"/>
      <point x="1267" y="737" type="line"/>
      <point x="949" y="1174" type="line"/>
      <point x="766" y="1174" type="line"/>
      <point x="1065" y="737" type="line"/>
    </contour>
  </outline>
</glyph>
<glyph name="onequarter" format="1">
  <advance width="1227"/>
  <unicode hex="00BC"/>
  <outline>
    <contour>
      <point x="284" y="718" type="line"/>
      <point x="-168" y="0" type="line"/>
      <point x="-93" y="0" type="line"/>
      <point x="358" y="718" type="line"/>
    </contour>
    <contour>
      <point x="388" y="706" type="line"/>
      <point x="362" y="690"/>
      <point x="338" y="676"/>
      <point x="304" y="666" type="curve"/>
      <point x="304" y="602" type="line"/>
      <point x="329" y="612"/>
      <point x="358" y="624"/>
      <point x="380" y="636" type="curve"/>
      <point x="380" y="584" type="line" smooth="yes"/>
      <point x="380" y="504" type="line" smooth="yes"/>
      <point x="380" y="362" type="line"/>
      <point x="319" y="362" type="line"/>
      <point x="319" y="302" type="line"/>
      <point x="502" y="302" type="line"/>
      <point x="502" y="360" type="line"/>
      <point x="440" y="360" type="line"/>
      <point x="440" y="714" type="line"/>
    </contour>
    <contour>
      <point x="951" y="706" type="line"/>
      <point x="768" y="447" type="line"/>
      <point x="768" y="402" type="line"/>
      <point x="957" y="402" type="line"/>
      <point x="957" y="308" type="line"/>
      <point x="1017" y="308" type="line"/>
      <point x="1017" y="402" type="line"/>
      <point x="1078" y="402" type="line"/>
      <point x="1072" y="455" type="line"/>
      <point x="1018" y="455" type="line"/>
      <point x="1018" y="706" type="line"/>
    </contour>
    <contour>
      <point x="957" y="455" type="line"/>
      <point x="838" y="455" type="line"/>
      <point x="957" y="622" type="line"/>
    </contour>
  </outline>
</glyph>
<glyph name="onehalf" format="1">
  <advance width="1374"/>
  <unicode hex="00BD"/>
  <outline>
    <contour>
      <point x="284" y="718" type="line"/>
      <point x="-168" y="0" type="line"/>
      <point x="-93" y="0" type="line"/>
      <point x="358" y="718" type="line"/>
    </contour>
    <contour>
      <point x="330" y="635" type="curve"/>
      <point x="372" y="596" type="line"/>
      <point x="388" y="631"/>
      <point x="416" y="662"/>
      <point x="464" y="662" type="curve" smooth="yes"/>
      <point x="504" y="662"/>
      <point x="534" y="644"/>
      <point x="534" y="606" type="curve" smooth="yes"/>
      <point x="534" y="592"/>
      <point x="529" y="576"/>
      <point x="519" y="559" type="curve" smooth="yes"/>
      <point x="509" y="542"/>
      <point x="494" y="523"/>
      <point x="476" y="503" type="curve" smooth="yes"/>
      <point x="432" y="454"/>
      <point x="379" y="406"/>
      <point x="326" y="358" type="curve"/>
      <point x="326" y="302" type="line"/>
      <point x="598" y="302" type="line"/>
      <point x="598" y="361" type="line"/>
      <point x="416" y="361" type="line"/>
      <point x="462" y="401"/>
      <point x="509" y="440"/>
      <point x="546" y="484" type="curve" smooth="yes"/>
      <point x="573" y="516"/>
      <point x="599" y="554"/>
      <point x="599" y="606" type="curve" smooth="yes"/>
      <point x="599" y="624"/>
      <point x="595" y="640"/>
      <point x="589" y="654" type="curve" smooth="yes"/>
      <point x="569" y="694"/>
      <point x="527" y="720"/>
      <point x="468" y="720" type="curve" smooth="yes"/>
      <point x="399" y="720"/>
      <point x="352" y="685"/>
    </contour>
    <contour>
      <point x="983" y="706" type="line"/>
      <point x="957" y="690"/>
      <point x="933" y="676"/>
      <point x="899" y="666" type="curve"/>
      <point x="898" y="602" type="line"/>
      <point x="923" y="612"/>
      <point x="952" y="624"/>
      <point x="974" y="636" type="curve"/>
      <point x="974" y="584" type="line" smooth="yes"/>
      <point x="974" y="558"/>
      <point x="975" y="534"/>
      <point x="975" y="504" type="curve" smooth="yes"/>
      <point x="975" y="362" type="line"/>
      <point x="914" y="362" type="line"/>
      <point x="914" y="302" type="line"/>
      <point x="1096" y="302" type="line"/>
      <point x="1096" y="360" type="line"/>
      <point x="1036" y="360" type="line"/>
      <point x="1036" y="714" type="line"/>
    </contour>
  </outline>
</glyph>
<glyph name="threequarters" format="1">
  <advance width="1227"/>
  <unicode hex="00BE"/>
  <outline>
    <contour>
      <point x="284" y="718" type="line"/>
      <point x="-168" y="0" type="line"/>
      <point x="-93" y="0" type="line"/>
      <point x="358" y="718" type="line"/>
    </contour>
    <contour>
      <point x="302" y="670" type="curve"/>
      <point x="330" y="622" type="line"/>
      <point x="354" y="642"/>
      <point x="385" y="661"/>
      <point x="426" y="661" type="curve" smooth="yes"/>
      <point x="466" y="661"/>
      <point x="497" y="645"/>
      <point x="497" y="605" type="curve" smooth="yes"/>
      <point x="497" y="555"/>
      <point x="448" y="544"/>
      <point x="398" y="544" type="curve" smooth="yes"/>
      <point x="374" y="544" type="line"/>
      <point x="374" y="485" type="line"/>
      <point x="387" y="485" type="line" smooth="yes"/>
      <point x="391" y="485"/>
      <point x="398" y="486"/>
      <point x="402" y="486" type="curve" smooth="yes"/>
      <point x="458" y="486"/>
      <point x="510" y="474"/>
      <point x="510" y="418" type="curve" smooth="yes"/>
      <point x="510" y="372"/>
      <point x="469" y="350"/>
      <point x="422" y="350" type="curve" smooth="yes"/>
      <point x="390" y="350"/>
      <point x="360" y="364"/>
      <point x="332" y="390" type="curve"/>
      <point x="302" y="342" type="line"/>
      <point x="330" y="314"/>
      <point x="370" y="293"/>
      <point x="424" y="293" type="curve" smooth="yes"/>
      <point x="444" y="293"/>
      <point x="464" y="296"/>
      <point x="482" y="302" type="curve" smooth="yes"/>
      <point x="531" y="318"/>
      <point x="574" y="354"/>
      <point x="574" y="417" type="curve" smooth="yes"/>
      <point x="574" y="469"/>
      <point x="547" y="500"/>
      <point x="510" y="516" type="curve"/>
      <point x="541" y="532"/>
      <point x="564" y="562"/>
      <point x="564" y="606" type="curve" smooth="yes"/>
      <point x="564" y="624"/>
      <point x="560" y="641"/>
      <point x="552" y="655" type="curve" smooth="yes"/>
      <point x="531" y="694"/>
      <point x="488" y="720"/>
      <point x="428" y="720" type="curve" smooth="yes"/>
      <point x="376" y="720"/>
      <point x="330" y="697"/>
    </contour>
    <contour>
      <point x="951" y="706" type="line"/>
      <point x="768" y="447" type="line"/>
      <point x="768" y="402" type="line"/>
      <point x="957" y="402" type="line"/>
      <point x="957" y="308" type="line"/>
      <point x="1017" y="308" type="line"/>
      <point x="1017" y="402" type="line"/>
      <point x="1078" y="402" type="line"/>
      <point x="1072" y="455" type="line"/>
      <point x="1018" y="455" type="line"/>
      <point x="1018" y="706" type="line"/>
    </contour>
    <contour>
      <point x="957" y="455" type="line"/>
      <point x="838" y="455" type="line"/>
      <point x="957" y="622" type="line"/>
    </contour>
  </outline>
</glyph>
<glyph name="questiondown" format="1">
  <advance width="516"/>
  <unicode hex="00BF"/>
  <outline>
    <contour>
      <point x="281" y="550" type="line"/>
      <point x="286" y="524" type="line" smooth="yes"/>
      <point x="288" y="511"/>
      <point x="290" y="493"/>
      <point x="290" y="477" type="curve" smooth="yes"/>
      <point x="290" y="461"/>
      <point x="285" y="446"/>
      <point x="275" y="430" type="curve" smooth="yes"/>
      <point x="241" y="375"/>
      <point x="184" y="332"/>
      <point x="143" y="282" type="curve" smooth="yes"/>
      <point x="119" y="252"/>
      <point x="92" y="217"/>
      <point x="92" y="167" type="curve" smooth="yes"/>
      <point x="92" y="138"/>
      <point x="97" y="114"/>
      <point x="108" y="92" type="curve" smooth="yes"/>
      <point x="141" y="28"/>
      <point x="213" y="-6"/>
      <point x="309" y="-6" type="curve" smooth="yes"/>
      <point x="362" y="-6"/>
      <point x="410" y="7"/>
      <point x="450" y="27" type="curve"/>
      <point x="450" y="100" type="line"/>
      <point x="414" y="80"/>
      <point x="371" y="66"/>
      <point x="319" y="66" type="curve" smooth="yes"/>
      <point x="243" y="66"/>
      <point x="176" y="95"/>
      <point x="176" y="171" type="curve" smooth="yes"/>
      <point x="176" y="191"/>
      <point x="180" y="209"/>
      <point x="190" y="226" type="curve" smooth="yes"/>
      <point x="221" y="281"/>
      <point x="276" y="318"/>
      <point x="318" y="364" type="curve" smooth="yes"/>
      <point x="342" y="390"/>
      <point x="368" y="422"/>
      <point x="368" y="468" type="curve" smooth="yes"/>
      <point x="368" y="493"/>
      <point x="365" y="526"/>
      <point x="363" y="550" type="curve"/>
    </contour>
    <contour>
      <point x="268" y="739" type="line"/>
      <point x="268" y="634" type="line"/>
      <point x="376" y="634" type="line"/>
      <point x="376" y="739" type="line"/>
    </contour>
  </outline>
</glyph>
<glyph name="Agrave" format="1">
  <advance width="712"/>
  <unicode hex="00C0"/>
  <outline>
    <contour>
      <point x="308" y="728" type="line"/>
      <point x="6" y="0" type="line"/>
      <point x="100" y="0" type="line"/>
      <point x="178" y="198" type="line"/>
      <point x="526" y="198" type="line"/>
      <point x="608" y="0" type="line"/>
      <point x="704" y="0" type="line"/>
      <point x="401" y="728" type="line"/>
    </contour>
    <contour>
      <point x="380" y="575" type="curve"/>
      <point x="497" y="272" type="line"/>
      <point x="205" y="272" type="line"/>
      <point x="328" y="574" type="line"/>
      <point x="336" y="595"/>
      <point x="346" y="626"/>
      <point x="354" y="649" type="curve"/>
      <point x="361" y="626"/>
      <point x="371" y="596"/>
    </contour>
    <contour>
      <point x="173" y="961" type="line"/>
      <point x="339" y="801" type="line"/>
      <point x="404" y="801" type="line"/>
      <point x="280" y="961" type="line"/>
    </contour>
  </outline>
</glyph>
<glyph name="Acircumflex" format="1">
  <advance width="712"/>
  <unicode hex="00C2"/>
  <outline>
    <contour>
      <point x="308" y="728" type="line"/>
      <point x="6" y="0" type="line"/>
      <point x="100" y="0" type="line"/>
      <point x="178" y="198" type="line"/>
      <point x="526" y="198" type="line"/>
      <point x="608" y="0" type="line"/>
      <point x="704" y="0" type="line"/>
      <point x="401" y="728" type="line"/>
    </contour>
    <contour>
      <point x="380" y="575" type="curve"/>
      <point x="497" y="272" type="line"/>
      <point x="205" y="272" type="line"/>
      <point x="328" y="574" type="line"/>
      <point x="336" y="595"/>
      <point x="346" y="626"/>
      <point x="354" y="649" type="curve"/>
      <point x="361" y="626"/>
      <point x="371" y="596"/>
    </contour>
    <contour>
      <point x="317" y="962" type="line"/>
      <point x="203" y="800" type="line"/>
      <point x="266" y="800" type="line"/>
      <point x="355" y="908" type="line"/>
      <point x="444" y="800" type="line"/>
      <point x="510" y="800" type="line"/>
      <point x="396" y="962" type="line"/>
    </contour>
  </outline>
</glyph>
<glyph name="Atilde" format="1">
  <advance width="712"/>
  <unicode hex="00C3"/>
  <outline>
    <contour>
      <point x="308" y="728" type="line"/>
      <point x="6" y="0" type="line"/>
      <point x="100" y="0" type="line"/>
      <point x="178" y="198" type="line"/>
      <point x="526" y="198" type="line"/>
      <point x="608" y="0" type="line"/>
      <point x="704" y="0" type="line"/>
      <point x="401" y="728" type="line"/>
    </contour>
    <contour>
      <point x="380" y="575" type="curve"/>
      <point x="497" y="272" type="line"/>
      <point x="205" y="272" type="line"/>
      <point x="328" y="574" type="line"/>
      <point x="336" y="595"/>
      <point x="346" y="626"/>
      <point x="354" y="649" type="curve"/>
      <point x="361" y="626"/>
      <point x="371" y="596"/>
    </contour>
    <contour>
      <point x="464" y="932" type="line"/>
      <point x="460" y="906"/>
      <point x="446" y="888"/>
      <point x="420" y="888" type="curve" smooth="yes"/>
      <point x="410" y="888"/>
      <point x="400" y="889"/>
      <point x="390" y="893" type="curve" smooth="yes"/>
      <point x="361" y="903"/>
      <point x="333" y="922"/>
      <point x="295" y="922" type="curve" smooth="yes"/>
      <point x="233" y="922"/>
      <point x="201" y="874"/>
      <point x="196" y="816" type="curve"/>
      <point x="248" y="816" type="line"/>
      <point x="252" y="844"/>
      <point x="267" y="859"/>
      <point x="294" y="859" type="curve" smooth="yes"/>
      <point x="342" y="859"/>
      <point x="372" y="825"/>
      <point x="420" y="825" type="curve" smooth="yes"/>
      <point x="482" y="825"/>
      <point x="512" y="876"/>
      <point x="518" y="932" type="curve"/>
    </contour>
  </outline>
</glyph>
<glyph name="Adieresis" format="1">
  <advance width="712"/>
  <unicode hex="00C4"/>
  <outline>
    <contour>
      <point x="308" y="728" type="line"/>
      <point x="6" y="0" type="line"/>
      <point x="100" y="0" type="line"/>
      <point x="178" y="198" type="line"/>
      <point x="526" y="198" type="line"/>
      <point x="608" y="0" type="line"/>
      <point x="704" y="0" type="line"/>
      <point x="401" y="728" type="line"/>
    </contour>
    <contour>
      <point x="380" y="575" type="curve"/>
      <point x="497" y="272" type="line"/>
      <point x="205" y="272" type="line"/>
      <point x="328" y="574" type="line"/>
      <point x="336" y="595"/>
      <point x="346" y="626"/>
      <point x="354" y="649" type="curve"/>
      <point x="361" y="626"/>
      <point x="371" y="596"/>
    </contour>
    <contour>
      <point x="232" y="888" type="line"/>
      <point x="232" y="806" type="line"/>
      <point x="314" y="806" type="line"/>
      <point x="314" y="888" type="line"/>
    </contour>
    <contour>
      <point x="398" y="888" type="line"/>
      <point x="398" y="806" type="line"/>
      <point x="480" y="806" type="line"/>
      <point x="480" y="888" type="line"/>
    </contour>
  </outline>
</glyph>
<glyph name="Aring" format="1">
  <advance width="712"/>
  <unicode hex="00C5"/>
  <outline>
    <contour>
      <point x="308" y="728" type="line"/>
      <point x="6" y="0" type="line"/>
      <point x="100" y="0" type="line"/>
      <point x="178" y="198" type="line"/>
      <point x="526" y="198" type="line"/>
      <point x="608" y="0" type="line"/>
      <point x="704" y="0" type="line"/>
      <point x="401" y="728" type="line"/>
    </contour>
    <contour>
      <point x="380" y="575" type="curve"/>
      <point x="497" y="272" type="line"/>
      <point x="205" y="272" type="line"/>
      <point x="328" y="574" type="line"/>
      <point x="336" y="595"/>
      <point x="346" y="626"/>
      <point x="354" y="649" type="curve"/>
      <point x="361" y="626"/>
      <point x="371" y="596"/>
    </contour>
    <contour>
      <point x="316" y="973" type="curve" smooth="yes"/>
      <point x="282" y="960"/>
      <point x="252" y="930"/>
      <point x="252" y="884" type="curve" smooth="yes"/>
      <point x="252" y="870"/>
      <point x="254" y="859"/>
      <point x="260" y="847" type="curve" smooth="yes"/>
      <point x="276" y="815"/>
      <point x="309" y="790"/>
      <point x="357" y="790" type="curve" smooth="yes"/>
      <point x="371" y="790"/>
      <point x="385" y="792"/>
      <point x="397" y="797" type="curve" smooth="yes"/>
      <point x="431" y="810"/>
      <point x="462" y="839"/>
      <point x="462" y="885" type="curve" smooth="yes"/>
      <point x="462" y="898"/>
      <point x="460" y="910"/>
      <point x="454" y="922" type="curve" smooth="yes"/>
      <point x="439" y="955"/>
      <point x="404" y="980"/>
      <point x="356" y="980" type="curve" smooth="yes"/>
      <point x="342" y="980"/>
      <point x="328" y="978"/>
    </contour>
    <contour>
      <point x="412" y="885" type="curve" smooth="yes"/>
      <point x="412" y="855"/>
      <point x="386" y="832"/>
      <point x="356" y="832" type="curve" smooth="yes"/>
      <point x="324" y="832"/>
      <point x="301" y="853"/>
      <point x="301" y="885" type="curve" smooth="yes"/>
      <point x="301" y="915"/>
      <point x="326" y="938"/>
      <point x="356" y="938" type="curve" smooth="yes"/>
      <point x="387" y="938"/>
      <point x="412" y="916"/>
    </contour>
  </outline>
</glyph>
<glyph name="Ccedilla" format="1">
  <advance width="714"/>
  <unicode hex="00C7"/>
  <outline>
    <contour>
      <point x="58" y="363" type="curve" smooth="yes"/>
      <point x="58" y="143"/>
      <point x="190" y="-11"/>
      <point x="410" y="-11" type="curve" smooth="yes"/>
      <point x="510" y="-11"/>
      <point x="590" y="16"/>
      <point x="650" y="64" type="curve"/>
      <point x="621" y="134" type="line"/>
      <point x="571" y="90"/>
      <point x="502" y="62"/>
      <point x="412" y="62" type="curve" smooth="yes"/>
      <point x="234" y="62"/>
      <point x="150" y="190"/>
      <point x="150" y="362" type="curve" smooth="yes"/>
      <point x="150" y="538"/>
      <point x="243" y="667"/>
      <point x="420" y="667" type="curve" smooth="yes"/>
      <point x="488" y="667"/>
      <point x="553" y="641"/>
      <point x="603" y="603" type="curve"/>
      <point x="642" y="666" type="line"/>
      <point x="587" y="707"/>
      <point x="521" y="742"/>
      <point x="411" y="742" type="curve" smooth="yes"/>
      <point x="197" y="742"/>
      <point x="58" y="584"/>
    </contour>
    <contour>
      <point x="383" y="8" type="line"/>
      <point x="366" y="-86" type="line"/>
      <point x="382" y="-86" type="line" smooth="yes"/>
      <point x="388" y="-86"/>
      <point x="397" y="-84"/>
      <point x="401" y="-84" type="curve" smooth="yes"/>
      <point x="431" y="-84"/>
      <point x="456" y="-90"/>
      <point x="456" y="-120" type="curve" smooth="yes"/>
      <point x="456" y="-148"/>
      <point x="431" y="-156"/>
      <point x="398" y="-156" type="curve" smooth="yes"/>
      <point x="371" y="-156"/>
      <point x="348" y="-150"/>
      <point x="323" y="-144" type="curve"/>
      <point x="319" y="-187" type="line"/>
      <point x="346" y="-193"/>
      <point x="376" y="-198"/>
      <point x="406" y="-198" type="curve" smooth="yes"/>
      <point x="466" y="-198"/>
      <point x="527" y="-180"/>
      <point x="527" y="-120" type="curve" smooth="yes"/>
      <point x="527" y="-66"/>
      <point x="479" y="-47"/>
      <point x="427" y="-45" type="curve"/>
      <point x="422" y="-45" type="line"/>
      <point x="432" y="8" type="line"/>
    </contour>
  </outline>
</glyph>
<glyph name="Egrave" format="1">
  <advance width="606"/>
  <unicode hex="00C8"/>
  <outline>
    <contour>
      <point x="100" y="728" type="line"/>
      <point x="100" y="0" type="line"/>
      <point x="558" y="0" type="line"/>
      <point x="558" y="74" type="line"/>
      <point x="186" y="74" type="line"/>
      <point x="186" y="336" type="line"/>
      <point x="514" y="336" type="line"/>
      <point x="514" y="410" type="line"/>
      <point x="186" y="410" type="line"/>
      <point x="186" y="654" type="line"/>
      <point x="534" y="654" type="line"/>
      <point x="534" y="728" type="line"/>
    </contour>
    <contour>
      <point x="151" y="961" type="line"/>
      <point x="317" y="801" type="line"/>
      <point x="382" y="801" type="line"/>
      <point x="258" y="961" type="line"/>
    </contour>
  </outline>
</glyph>
<glyph name="Eacute" format="1">
  <advance width="606"/>
  <unicode hex="00C9"/>
  <outline>
    <contour>
      <point x="100" y="728" type="line"/>
      <point x="100" y="0" type="line"/>
      <point x="558" y="0" type="line"/>
      <point x="558" y="74" type="line"/>
      <point x="186" y="74" type="line"/>
      <point x="186" y="336" type="line"/>
      <point x="514" y="336" type="line"/>
      <point x="514" y="410" type="line"/>
      <point x="186" y="410" type="line"/>
      <point x="186" y="654" type="line"/>
      <point x="534" y="654" type="line"/>
      <point x="534" y="728" type="line"/>
    </contour>
    <contour>
      <point x="407" y="961" type="line"/>
      <point x="294" y="801" type="line"/>
      <point x="359" y="801" type="line"/>
      <point x="513" y="961" type="line"/>
    </contour>
  </outline>
</glyph>
<glyph name="Ecircumflex" format="1">
  <advance width="606"/>
  <unicode hex="00CA"/>
  <outline>
    <contour>
      <point x="100" y="728" type="line"/>
      <point x="100" y="0" type="line"/>
      <point x="558" y="0" type="line"/>
      <point x="558" y="74" type="line"/>
      <point x="186" y="74" type="line"/>
      <point x="186" y="336" type="line"/>
      <point x="514" y="336" type="line"/>
      <point x="514" y="410" type="line"/>
      <point x="186" y="410" type="line"/>
      <point x="186" y="654" type="line"/>
      <point x="534" y="654" type="line"/>
      <point x="534" y="728" type="line"/>
    </contour>
    <contour>
      <point x="295" y="962" type="line"/>
      <point x="181" y="800" type="line"/>
      <point x="244" y="800" type="line"/>
      <point x="333" y="908" type="line"/>
      <point x="422" y="800" type="line"/>
      <point x="488" y="800" type="line"/>
      <point x="374" y="962" type="line"/>
    </contour>
  </outline>
</glyph>
<glyph name="Edieresis" format="1">
  <advance width="606"/>
  <unicode hex="00CB"/>
  <outline>
    <contour>
      <point x="100" y="728" type="line"/>
      <point x="100" y="0" type="line"/>
      <point x="558" y="0" type="line"/>
      <point x="558" y="74" type="line"/>
      <point x="186" y="74" type="line"/>
      <point x="186" y="336" type="line"/>
      <point x="514" y="336" type="line"/>
      <point x="514" y="410" type="line"/>
      <point x="186" y="410" type="line"/>
      <point x="186" y="654" type="line"/>
      <point x="534" y="654" type="line"/>
      <point x="534" y="728" type="line"/>
    </contour>
    <contour>
      <point x="210" y="888" type="line"/>
      <point x="210" y="806" type="line"/>
      <point x="292" y="806" type="line"/>
      <point x="292" y="888" type="line"/>
    </contour>
    <contour>
      <point x="376" y="888" type="line"/>
      <point x="376" y="806" type="line"/>
      <point x="458" y="806" type="line"/>
      <point x="458" y="888" type="line"/>
    </contour>
  </outline>
</glyph>
<glyph name="Igrave" format="1">
  <advance width="295"/>
  <unicode hex="00CC"/>
  <outline>
    <contour>
      <point x="105" y="728" type="line"/>
      <point x="105" y="0" type="line"/>
      <point x="191" y="0" type="line"/>
      <point x="191" y="728" type="line"/>
    </contour>
    <contour>
      <point x="-36" y="961" type="line"/>
      <point x="130" y="801" type="line"/>
      <point x="195" y="801" type="line"/>
      <point x="72" y="961" type="line"/>
    </contour>
  </outline>
</glyph>
<glyph name="Iacute" format="1">
  <advance width="295"/>
  <unicode hex="00CD"/>
  <outline>
    <contour>
      <point x="105" y="728" type="line"/>
      <point x="105" y="0" type="line"/>
      <point x="191" y="0" type="line"/>
      <point x="191" y="728" type="line"/>
    </contour>
    <contour>
      <point x="220" y="961" type="line"/>
      <point x="108" y="801" type="line"/>
      <point x="172" y="801" type="line"/>
      <point x="326" y="961" type="line"/>
    </contour>
  </outline>
</glyph>
<glyph name="Icircumflex" format="1">
  <advance width="295"/>
  <unicode hex="00CE"/>
  <outline>
    <contour>
      <point x="105" y="728" type="line"/>
      <point x="105" y="0" type="line"/>
      <point x="191" y="0" type="line"/>
      <point x="191" y="728" type="line"/>
    </contour>
    <contour>
      <point x="108" y="962" type="line"/>
      <point x="-6" y="800" type="line"/>
      <point x="58" y="800" type="line"/>
      <point x="146" y="908" type="line"/>
      <point x="236" y="800" type="line"/>
      <point x="302" y="800" type="line"/>
      <point x="187" y="962" type="line"/>
    </contour>
  </outline>
</glyph>
<glyph name="Idieresis" format="1">
  <advance width="295"/>
  <unicode hex="00CF"/>
  <outline>
    <contour>
      <point x="105" y="728" type="line"/>
      <point x="105" y="0" type="line"/>
      <point x="191" y="0" type="line"/>
      <point x="191" y="728" type="line"/>
    </contour>
    <contour>
      <point x="24" y="888" type="line"/>
      <point x="24" y="806" type="line"/>
      <point x="106" y="806" type="line"/>
      <point x="106" y="888" type="line"/>
    </contour>
    <contour>
      <point x="190" y="888" type="line"/>
      <point x="190" y="806" type="line"/>
      <point x="272" y="806" type="line"/>
      <point x="272" y="888" type="line"/>
    </contour>
  </outline>
</glyph>
<glyph name="Eth" format="1">
  <advance width="773"/>
  <unicode hex="00D0"/>
  <outline>
    <contour>
      <point x="96" y="728" type="line"/>
      <point x="96" y="398" type="line"/>
      <point x="-0" y="398" type="line"/>
      <point x="-0" y="329" type="line"/>
      <point x="96" y="329" type="line"/>
      <point x="96" y="0" type="line"/>
      <point x="305" y="0" type="line" smooth="yes"/>
      <point x="369" y="0"/>
      <point x="427" y="9"/>
      <point x="478" y="26" type="curve" smooth="yes"/>
      <point x="617" y="72"/>
      <point x="715" y="180"/>
      <point x="715" y="362" type="curve" smooth="yes"/>
      <point x="715" y="636"/>
      <point x="528" y="728"/>
      <point x="254" y="728" type="curve" smooth="yes"/>
    </contour>
    <contour>
      <point x="420" y="639" type="curve" smooth="yes"/>
      <point x="554" y="609"/>
      <point x="624" y="524"/>
      <point x="624" y="360" type="curve" smooth="yes"/>
      <point x="624" y="318"/>
      <point x="617" y="280"/>
      <point x="605" y="245" type="curve" smooth="yes"/>
      <point x="565" y="134"/>
      <point x="465" y="74"/>
      <point x="313" y="74" type="curve" smooth="yes"/>
      <point x="182" y="74" type="line"/>
      <point x="182" y="329" type="line"/>
      <point x="286" y="329" type="line"/>
      <point x="286" y="398" type="line"/>
      <point x="182" y="398" type="line"/>
      <point x="182" y="654" type="line"/>
      <point x="264" y="654" type="line" smooth="yes"/>
      <point x="323" y="654"/>
      <point x="375" y="649"/>
    </contour>
  </outline>
</glyph>
<glyph name="Ntilde" format="1">
  <advance width="801"/>
  <unicode hex="00D1"/>
  <outline>
    <contour>
      <point x="616" y="728" type="line"/>
      <point x="616" y="108" type="line"/>
      <point x="576" y="171" type="line"/>
      <point x="203" y="728" type="line"/>
      <point x="100" y="728" type="line"/>
      <point x="100" y="0" type="line"/>
      <point x="186" y="0" type="line"/>
      <point x="186" y="618" type="line"/>
      <point x="222" y="556" type="line"/>
      <point x="597" y="0" type="line"/>
      <point x="701" y="0" type="line"/>
      <point x="701" y="728" type="line"/>
    </contour>
    <contour>
      <point x="508" y="932" type="line"/>
      <point x="504" y="906"/>
      <point x="490" y="888"/>
      <point x="464" y="888" type="curve" smooth="yes"/>
      <point x="454" y="888"/>
      <point x="444" y="889"/>
      <point x="434" y="893" type="curve" smooth="yes"/>
      <point x="405" y="903"/>
      <point x="377" y="922"/>
      <point x="339" y="922" type="curve" smooth="yes"/>
      <point x="277" y="922"/>
      <point x="245" y="874"/>
      <point x="240" y="816" type="curve"/>
      <point x="292" y="816" type="line"/>
      <point x="296" y="844"/>
      <point x="311" y="859"/>
      <point x="338" y="859" type="curve" smooth="yes"/>
      <point x="386" y="859"/>
      <point x="416" y="825"/>
      <point x="464" y="825" type="curve" smooth="yes"/>
      <point x="526" y="825"/>
      <point x="556" y="876"/>
      <point x="562" y="932" type="curve"/>
    </contour>
  </outline>
</glyph>
<glyph name="Ocircumflex" format="1">
  <advance width="831"/>
  <unicode hex="00D4"/>
  <outline>
    <contour>
      <point x="58" y="365" type="curve" smooth="yes"/>
      <point x="58" y="109"/>
      <point x="216" y="-11"/>
      <point x="417" y="-11" type="curve" smooth="yes"/>
      <point x="652" y="-11"/>
      <point x="773" y="169"/>
      <point x="773" y="365" type="curve" smooth="yes"/>
      <point x="773" y="621"/>
      <point x="617" y="742"/>
      <point x="417" y="742" type="curve" smooth="yes"/>
      <point x="180" y="742"/>
      <point x="58" y="561"/>
    </contour>
    <contour>
      <point x="679" y="364" type="curve" smooth="yes"/>
      <point x="679" y="164"/>
      <point x="553" y="62"/>
      <point x="417" y="62" type="curve" smooth="yes"/>
      <point x="235" y="62"/>
      <point x="150" y="194"/>
      <point x="150" y="364" type="curve" smooth="yes"/>
      <point x="150" y="564"/>
      <point x="278" y="667"/>
      <point x="417" y="667" type="curve" smooth="yes"/>
      <point x="595" y="667"/>
      <point x="679" y="534"/>
    </contour>
    <contour>
      <point x="376" y="962" type="line"/>
      <point x="262" y="800" type="line"/>
      <point x="325" y="800" type="line"/>
      <point x="414" y="908" type="line"/>
      <point x="503" y="800" type="line"/>
      <point x="569" y="800" type="line"/>
      <point x="454" y="962" type="line"/>
    </contour>
  </outline>
</glyph>
<glyph name="Otilde" format="1">
  <advance width="831"/>
  <unicode hex="00D5"/>
  <outline>
    <contour>
      <point x="58" y="365" type="curve" smooth="yes"/>
      <point x="58" y="109"/>
      <point x="216" y="-11"/>
      <point x="417" y="-11" type="curve" smooth="yes"/>
      <point x="652" y="-11"/>
      <point x="773" y="169"/>
      <point x="773" y="365" type="curve" smooth="yes"/>
      <point x="773" y="621"/>
      <point x="617" y="742"/>
      <point x="417" y="742" type="curve" smooth="yes"/>
      <point x="180" y="742"/>
      <point x="58" y="561"/>
    </contour>
    <contour>
      <point x="679" y="364" type="curve" smooth="yes"/>
      <point x="679" y="164"/>
      <point x="553" y="62"/>
      <point x="417" y="62" type="curve" smooth="yes"/>
      <point x="235" y="62"/>
      <point x="150" y="194"/>
      <point x="150" y="364" type="curve" smooth="yes"/>
      <point x="150" y="564"/>
      <point x="278" y="667"/>
      <point x="417" y="667" type="curve" smooth="yes"/>
      <point x="595" y="667"/>
      <point x="679" y="534"/>
    </contour>
    <contour>
      <point x="522" y="932" type="line"/>
      <point x="518" y="906"/>
      <point x="505" y="888"/>
      <point x="479" y="888" type="curve" smooth="yes"/>
      <point x="469" y="888"/>
      <point x="460" y="889"/>
      <point x="450" y="893" type="curve" smooth="yes"/>
      <point x="421" y="903"/>
      <point x="392" y="922"/>
      <point x="354" y="922" type="curve" smooth="yes"/>
      <point x="292" y="922"/>
      <point x="259" y="874"/>
      <point x="254" y="816" type="curve"/>
      <point x="307" y="816" type="line"/>
      <point x="311" y="844"/>
      <point x="325" y="859"/>
      <point x="352" y="859" type="curve" smooth="yes"/>
      <point x="400" y="859"/>
      <point x="431" y="825"/>
      <point x="479" y="825" type="curve" smooth="yes"/>
      <point x="541" y="825"/>
      <point x="570" y="876"/>
      <point x="576" y="932" type="curve"/>
    </contour>
  </outline>
</glyph>
<glyph name="Odieresis" format="1">
  <advance width="831"/>
  <unicode hex="00D6"/>
  <outline>
    <contour>
      <point x="58" y="365" type="curve" smooth="yes"/>
      <point x="58" y="109"/>
      <point x="216" y="-11"/>
      <point x="417" y="-11" type="curve" smooth="yes"/>
      <point x="652" y="-11"/>
      <point x="773" y="169"/>
      <point x="773" y="365" type="curve" smooth="yes"/>
      <point x="773" y="621"/>
      <point x="617" y="742"/>
      <point x="417" y="742" type="curve" smooth="yes"/>
      <point x="180" y="742"/>
      <point x="58" y="561"/>
    </contour>
    <contour>
      <point x="679" y="364" type="curve" smooth="yes"/>
      <point x="679" y="164"/>
      <point x="553" y="62"/>
      <point x="417" y="62" type="curve" smooth="yes"/>
      <point x="235" y="62"/>
      <point x="150" y="194"/>
      <point x="150" y="364" type="curve" smooth="yes"/>
      <point x="150" y="564"/>
      <point x="278" y="667"/>
      <point x="417" y="667" type="curve" smooth="yes"/>
      <point x="595" y="667"/>
      <point x="679" y="534"/>
    </contour>
    <contour>
      <point x="292" y="888" type="line"/>
      <point x="292" y="806" type="line"/>
      <point x="374" y="806" type="line"/>
      <point x="374" y="888" type="line"/>
    </contour>
    <contour>
      <point x="458" y="888" type="line"/>
      <point x="458" y="806" type="line"/>
      <point x="540" y="806" type="line"/>
      <point x="540" y="888" type="line"/>
    </contour>
  </outline>
</glyph>
<glyph name="multiply" format="1">
  <advance width="2567"/>
  <unicode hex="00D7"/>
  <outline>
    <contour>
      <point x="688" y="271" type="line"/>
      <point x="1037" y="619" type="line"/>
      <point x="1385" y="271" type="line"/>
      <point x="1507" y="393" type="line"/>
      <point x="1158" y="741" type="line"/>
      <point x="1507" y="1089" type="line"/>
      <point x="1385" y="1211" type="line"/>
      <point x="1037" y="862" type="line"/>
      <point x="688" y="1211" type="line"/>
      <point x="567" y="1090" type="line"/>
      <point x="915" y="741" type="line"/>
      <point x="567" y="392" type="line"/>
    </contour>
  </outline>
</glyph>
<glyph name="Ugrave" format="1">
  <advance width="766"/>
  <unicode hex="00D9"/>
  <outline>
    <contour>
      <point x="582" y="728" type="line"/>
      <point x="582" y="270" type="line" smooth="yes"/>
      <point x="582" y="140"/>
      <point x="513" y="62"/>
      <point x="387" y="62" type="curve" smooth="yes"/>
      <point x="251" y="62"/>
      <point x="182" y="130"/>
      <point x="182" y="273" type="curve" smooth="yes"/>
      <point x="182" y="728" type="line"/>
      <point x="96" y="728" type="line"/>
      <point x="96" y="270" type="line" smooth="yes"/>
      <point x="96" y="78"/>
      <point x="196" y="-11"/>
      <point x="388" y="-11" type="curve" smooth="yes"/>
      <point x="569" y="-11"/>
      <point x="667" y="96"/>
      <point x="668" y="276" type="curve"/>
      <point x="668" y="728" type="line"/>
    </contour>
    <contour>
      <point x="200" y="961" type="line"/>
      <point x="366" y="801" type="line"/>
      <point x="430" y="801" type="line"/>
      <point x="306" y="961" type="line"/>
    </contour>
  </outline>
</glyph>
<glyph name="Ucircumflex" format="1">
  <advance width="766"/>
  <unicode hex="00DB"/>
  <outline>
    <contour>
      <point x="582" y="728" type="line"/>
      <point x="582" y="270" type="line" smooth="yes"/>
      <point x="582" y="140"/>
      <point x="513" y="62"/>
      <point x="387" y="62" type="curve" smooth="yes"/>
      <point x="251" y="62"/>
      <point x="182" y="130"/>
      <point x="182" y="273" type="curve" smooth="yes"/>
      <point x="182" y="728" type="line"/>
      <point x="96" y="728" type="line"/>
      <point x="96" y="270" type="line" smooth="yes"/>
      <point x="96" y="78"/>
      <point x="196" y="-11"/>
      <point x="388" y="-11" type="curve" smooth="yes"/>
      <point x="569" y="-11"/>
      <point x="667" y="96"/>
      <point x="668" y="276" type="curve"/>
      <point x="668" y="728" type="line"/>
    </contour>
    <contour>
      <point x="344" y="962" type="line"/>
      <point x="230" y="800" type="line"/>
      <point x="292" y="800" type="line"/>
      <point x="382" y="908" type="line"/>
      <point x="470" y="800" type="line"/>
      <point x="536" y="800" type="line"/>
      <point x="422" y="962" type="line"/>
    </contour>
  </outline>
</glyph>
<glyph name="Udieresis" format="1">
  <advance width="766"/>
  <unicode hex="00DC"/>
  <outline>
    <contour>
      <point x="582" y="728" type="line"/>
      <point x="582" y="270" type="line" smooth="yes"/>
      <point x="582" y="140"/>
      <point x="513" y="62"/>
      <point x="387" y="62" type="curve" smooth="yes"/>
      <point x="251" y="62"/>
      <point x="182" y="130"/>
      <point x="182" y="273" type="curve" smooth="yes"/>
      <point x="182" y="728" type="line"/>
      <point x="96" y="728" type="line"/>
      <point x="96" y="270" type="line" smooth="yes"/>
      <point x="96" y="78"/>
      <point x="196" y="-11"/>
      <point x="388" y="-11" type="curve" smooth="yes"/>
      <point x="569" y="-11"/>
      <point x="667" y="96"/>
      <point x="668" y="276" type="curve"/>
      <point x="668" y="728" type="line"/>
    </contour>
    <contour>
      <point x="259" y="888" type="line"/>
      <point x="259" y="806" type="line"/>
      <point x="341" y="806" type="line"/>
      <point x="341" y="888" type="line"/>
    </contour>
    <contour>
      <point x="425" y="888" type="line"/>
      <point x="425" y="806" type="line"/>
      <point x="507" y="806" type="line"/>
      <point x="507" y="888" type="line"/>
    </contour>
  </outline>
</glyph>
<glyph name="Yacute" format="1">
  <advance width="633"/>
  <unicode hex="00DD"/>
  <outline>
    <contour>
      <point x="534" y="728" type="line"/>
      <point x="316" y="364" type="line"/>
      <point x="100" y="728" type="line"/>
      <point x="5" y="728" type="line"/>
      <point x="272" y="291" type="line"/>
      <point x="272" y="0" type="line"/>
      <point x="358" y="0" type="line"/>
      <point x="358" y="292" type="line"/>
      <point x="629" y="728" type="line"/>
    </contour>
    <contour>
      <point x="389" y="961" type="line"/>
      <point x="276" y="801" type="line"/>
      <point x="341" y="801" type="line"/>
      <point x="495" y="961" type="line"/>
    </contour>
  </outline>
</glyph>
<glyph name="Thorn" format="1">
  <advance width="637"/>
  <unicode hex="00DE"/>
  <outline>
    <contour>
      <point x="102" y="728" type="line"/>
      <point x="102" y="0" type="line"/>
      <point x="188" y="0" type="line"/>
      <point x="188" y="222" type="line"/>
      <point x="298" y="222" type="line" smooth="yes"/>
      <point x="382" y="222"/>
      <point x="457" y="240"/>
      <point x="509" y="273" type="curve" smooth="yes"/>
      <point x="561" y="305"/>
      <point x="600" y="357"/>
      <point x="600" y="438" type="curve" smooth="yes"/>
      <point x="600" y="616"/>
      <point x="450" y="656"/>
      <point x="272" y="656" type="curve" smooth="yes"/>
      <point x="188" y="656" type="line"/>
      <point x="188" y="728" type="line"/>
    </contour>
    <contour>
      <point x="508" y="437" type="curve" smooth="yes"/>
      <point x="508" y="413"/>
      <point x="504" y="392"/>
      <point x="494" y="374" type="curve" smooth="yes"/>
      <point x="465" y="320"/>
      <point x="401" y="296"/>
      <point x="318" y="296" type="curve" smooth="yes"/>
      <point x="188" y="296" type="line"/>
      <point x="188" y="582" type="line"/>
      <point x="294" y="582" type="line" smooth="yes"/>
      <point x="414" y="582"/>
      <point x="508" y="557"/>
    </contour>
  </outline>
</glyph>
<glyph name="ae" format="1">
  <advance width="903"/>
  <unicode hex="00E6"/>
  <outline>
    <contour>
      <point x="439" y="428" type="curve"/>
      <point x="435" y="445"/>
      <point x="427" y="460"/>
      <point x="415" y="472" type="curve" smooth="yes"/>
      <point x="385" y="504"/>
      <point x="335" y="526"/>
      <point x="275" y="526" type="curve" smooth="yes"/>
      <point x="177" y="526"/>
      <point x="108" y="492"/>
      <point x="74" y="428" type="curve"/>
      <point x="119" y="382" type="line"/>
      <point x="149" y="432"/>
      <point x="196" y="458"/>
      <point x="270" y="458" type="curve" smooth="yes"/>
      <point x="353" y="458"/>
      <point x="386" y="396"/>
      <point x="386" y="314" type="curve" smooth="yes"/>
      <point x="386" y="308" type="line"/>
      <point x="222" y="308"/>
      <point x="40" y="305"/>
      <point x="40" y="141" type="curve" smooth="yes"/>
      <point x="40" y="117"/>
      <point x="45" y="95"/>
      <point x="54" y="76" type="curve" smooth="yes"/>
      <point x="80" y="20"/>
      <point x="138" y="-14"/>
      <point x="220" y="-14" type="curve" smooth="yes"/>
      <point x="320" y="-14"/>
      <point x="388" y="36"/>
      <point x="427" y="98" type="curve"/>
      <point x="459" y="35"/>
      <point x="522" y="-12"/>
      <point x="616" y="-12" type="curve" smooth="yes"/>
      <point x="723" y="-12"/>
      <point x="791" y="33"/>
      <point x="832" y="103" type="curve"/>
      <point x="788" y="146" type="line"/>
      <point x="755" y="96"/>
      <point x="699" y="56"/>
      <point x="621" y="56" type="curve" smooth="yes"/>
      <point x="515" y="56"/>
      <point x="470" y="127"/>
      <point x="470" y="232" type="curve" smooth="yes"/>
      <point x="470" y="234"/>
      <point x="471" y="238"/>
      <point x="471" y="240" type="curve"/>
      <point x="848" y="240" type="line"/>
      <point x="848" y="262" type="line" smooth="yes"/>
      <point x="848" y="422"/>
      <point x="777" y="526"/>
      <point x="616" y="526" type="curve" smooth="yes"/>
      <point x="532" y="526"/>
      <point x="472" y="486"/>
    </contour>
    <contour>
      <point x="237" y="54" type="curve" smooth="yes"/>
      <point x="173" y="54"/>
      <point x="125" y="81"/>
      <point x="125" y="145" type="curve" smooth="yes"/>
      <point x="125" y="165"/>
      <point x="131" y="182"/>
      <point x="141" y="194" type="curve" smooth="yes"/>
      <point x="175" y="232"/>
      <point x="244" y="236"/>
      <point x="314" y="238" type="curve"/>
      <point x="386" y="240" type="line"/>
      <point x="386" y="132"/>
      <point x="347" y="54"/>
    </contour>
    <contour>
      <point x="762" y="308" type="curve"/>
      <point x="472" y="308" type="line"/>
      <point x="474" y="328"/>
      <point x="478" y="347"/>
      <point x="486" y="365" type="curve" smooth="yes"/>
      <point x="508" y="417"/>
      <point x="553" y="458"/>
      <point x="625" y="458" type="curve" smooth="yes"/>
      <point x="720" y="458"/>
      <point x="754" y="395"/>
    </contour>
    <contour>
      <point x="452" y="0" type="move" smooth="yes"/>
    </contour>
  </outline>
</glyph>
<glyph name="eth" format="1">
  <advance width="595"/>
  <unicode hex="00F0"/>
  <outline>
    <contour>
      <point x="287" y="703" type="line"/>
      <point x="342" y="672"/>
      <point x="383" y="636"/>
      <point x="413" y="582" type="curve"/>
      <point x="310" y="582" type="line"/>
      <point x="310" y="513" type="line"/>
      <point x="441" y="513" type="line"/>
      <point x="453" y="469"/>
      <point x="459" y="423"/>
      <point x="459" y="366" type="curve"/>
      <point x="459" y="362" type="line"/>
      <point x="423" y="420"/>
      <point x="362" y="448"/>
      <point x="272" y="448" type="curve" smooth="yes"/>
      <point x="237" y="448"/>
      <point x="206" y="443"/>
      <point x="178" y="432" type="curve" smooth="yes"/>
      <point x="100" y="401"/>
      <point x="44" y="331"/>
      <point x="44" y="223" type="curve" smooth="yes"/>
      <point x="44" y="190"/>
      <point x="49" y="158"/>
      <point x="61" y="130" type="curve" smooth="yes"/>
      <point x="95" y="46"/>
      <point x="173" y="-12"/>
      <point x="290" y="-12" type="curve" smooth="yes"/>
      <point x="330" y="-12"/>
      <point x="367" y="-4"/>
      <point x="399" y="11" type="curve" smooth="yes"/>
      <point x="503" y="61"/>
      <point x="546" y="180"/>
      <point x="546" y="336" type="curve" smooth="yes"/>
      <point x="546" y="402"/>
      <point x="537" y="461"/>
      <point x="522" y="513" type="curve"/>
      <point x="595" y="513" type="line"/>
      <point x="595" y="582" type="line"/>
      <point x="496" y="582" type="line"/>
      <point x="460" y="658"/>
      <point x="406" y="714"/>
      <point x="326" y="745" type="curve"/>
    </contour>
    <contour>
      <point x="452" y="268" type="curve"/>
      <point x="452" y="256" type="line" smooth="yes"/>
      <point x="452" y="145"/>
      <point x="398" y="59"/>
      <point x="286" y="59" type="curve" smooth="yes"/>
      <point x="262" y="59"/>
      <point x="242" y="63"/>
      <point x="223" y="71" type="curve" smooth="yes"/>
      <point x="169" y="94"/>
      <point x="132" y="145"/>
      <point x="132" y="220" type="curve" smooth="yes"/>
      <point x="132" y="318"/>
      <point x="186" y="378"/>
      <point x="286" y="378" type="curve" smooth="yes"/>
      <point x="371" y="378"/>
      <point x="430" y="332"/>
    </contour>
  </outline>
</glyph>
<glyph name="divide" format="1">
  <advance width="2567"/>
  <unicode hex="00F7"/>
  <outline>
    <contour>
      <point x="844" y="37" type="line"/>
      <point x="1098" y="37" type="line"/>
      <point x="1098" y="284" type="line"/>
      <point x="844" y="284" type="line"/>
    </contour>
    <contour>
      <point x="349" y="581" type="line"/>
      <point x="1580" y="581" type="line"/>
      <point x="1580" y="745" type="line"/>
      <point x="349" y="745" type="line"/>
    </contour>
    <contour>
      <point x="844" y="1037" type="line"/>
      <point x="1098" y="1037" type="line"/>
      <point x="1098" y="1284" type="line"/>
      <point x="844" y="1284" type="line"/>
    </contour>
  </outline>
</glyph>
<glyph name="oslash" format="1">
  <advance width="2180"/>
  <unicode hex="00F8"/>
  <outline>
    <contour>
      <point x="467" y="-460" type="line"/>
      <point x="1220" y="1309" type="line"/>
      <point x="1099" y="1346" type="line"/>
      <point x="351" y="-422" type="line"/>
    </contour>
    <component base="o"/>
  </outline>
</glyph>
<glyph name="yacute" format="1">
  <advance width="593"/>
  <unicode hex="00FD"/>
  <outline>
    <contour>
      <point x="434" y="513" type="line"/>
      <point x="434" y="248" type="line" smooth="yes"/>
      <point x="434" y="154"/>
      <point x="378" y="58"/>
      <point x="284" y="58" type="curve" smooth="yes"/>
      <point x="216" y="58"/>
      <point x="159" y="108"/>
      <point x="159" y="199" type="curve"/>
      <point x="160" y="322" type="line"/>
      <point x="160" y="462"/>
      <point x="141" y="513"/>
      <point x="141" y="513" type="curve"/>
      <point x="58" y="500" type="line"/>
      <point x="58" y="500"/>
      <point x="78" y="442"/>
      <point x="78" y="314" type="curve"/>
      <point x="76" y="200" type="line"/>
      <point x="72" y="86"/>
      <point x="144" y="-11"/>
      <point x="272" y="-11" type="curve" smooth="yes"/>
      <point x="324" y="-11"/>
      <point x="399" y="11"/>
      <point x="434" y="72" type="curve"/>
      <point x="434" y="23" type="line" smooth="yes"/>
      <point x="434" y="-79"/>
      <point x="370" y="-164"/>
      <point x="260" y="-164" type="curve" smooth="yes"/>
      <point x="220" y="-164"/>
      <point x="158" y="-150"/>
      <point x="108" y="-125" type="curve"/>
      <point x="99" y="-202" type="line"/>
      <point x="145" y="-218"/>
      <point x="214" y="-232"/>
      <point x="267" y="-232" type="curve" smooth="yes"/>
      <point x="399" y="-232"/>
      <point x="516" y="-142"/>
      <point x="516" y="34" type="curve" smooth="yes"/>
      <point x="516" y="513" type="line"/>
    </contour>
    <contour>
      <point x="380" y="746" type="line"/>
      <point x="268" y="586" type="line"/>
      <point x="332" y="586" type="line"/>
      <point x="486" y="746" type="line"/>
    </contour>
  </outline>
</glyph>
<glyph name="thorn" format="1">
  <advance width="2181"/>
  <unicode hex="00FE"/>
  <outline>
    <contour>
      <point x="279" y="-752" type="line"/>
      <point x="472" y="-752" type="line"/>
      <point x="472" y="-92" type="line"/>
      <point x="573" y="-216"/>
      <point x="708" y="-278"/>
      <point x="877" y="-278" type="curve" smooth="yes"/>
      <point x="970" y="-278"/>
      <point x="1050" y="-259"/>
      <point x="1119" y="-224" type="curve" smooth="yes"/>
      <point x="1311" y="-126"/>
      <point x="1430" y="83"/>
      <point x="1430" y="368" type="curve" smooth="yes"/>
      <point x="1430" y="451"/>
      <point x="1418" y="529"/>
      <point x="1396" y="605" type="curve" smooth="yes"/>
      <point x="1331" y="825"/>
      <point x="1163" y="983"/>
      <point x="877" y="983" type="curve" smooth="yes"/>
      <point x="688" y="983"/>
      <point x="562" y="902"/>
      <point x="475" y="785" type="curve"/>
      <point x="475" y="1458" type="line"/>
      <point x="279" y="1458" type="line"/>
    </contour>
    <contour>
      <point x="849" y="-123" type="curve" smooth="yes"/>
      <point x="788" y="-123"/>
      <point x="733" y="-111"/>
      <point x="687" y="-89" type="curve" smooth="yes"/>
      <point x="549" y="-22"/>
      <point x="472" y="126"/>
      <point x="472" y="329" type="curve" smooth="yes"/>
      <point x="472" y="609"/>
      <point x="576" y="826"/>
      <point x="856" y="826" type="curve" smooth="yes"/>
      <point x="1121" y="826"/>
      <point x="1224" y="624"/>
      <point x="1224" y="361" type="curve" smooth="yes"/>
      <point x="1224" y="97"/>
      <point x="1115" y="-123"/>
    </contour>
  </outline>
</glyph>
<glyph name="Amacron" format="1">
  <advance width="712"/>
  <unicode hex="0100"/>
  <outline>
    <contour>
      <point x="308" y="728" type="line"/>
      <point x="6" y="0" type="line"/>
      <point x="100" y="0" type="line"/>
      <point x="178" y="198" type="line"/>
      <point x="526" y="198" type="line"/>
      <point x="608" y="0" type="line"/>
      <point x="704" y="0" type="line"/>
      <point x="401" y="728" type="line"/>
    </contour>
    <contour>
      <point x="380" y="575" type="curve"/>
      <point x="497" y="272" type="line"/>
      <point x="205" y="272" type="line"/>
      <point x="328" y="574" type="line"/>
      <point x="336" y="595"/>
      <point x="346" y="626"/>
      <point x="354" y="649" type="curve"/>
      <point x="361" y="626"/>
      <point x="371" y="596"/>
    </contour>
    <contour>
      <point x="214" y="874" type="line"/>
      <point x="214" y="806" type="line"/>
      <point x="500" y="806" type="line"/>
      <point x="500" y="874" type="line"/>
    </contour>
  </outline>
</glyph>
<glyph name="Abreve" format="1">
  <advance width="712"/>
  <unicode hex="0102"/>
  <outline>
    <contour>
      <point x="308" y="728" type="line"/>
      <point x="6" y="0" type="line"/>
      <point x="100" y="0" type="line"/>
      <point x="178" y="198" type="line"/>
      <point x="526" y="198" type="line"/>
      <point x="608" y="0" type="line"/>
      <point x="704" y="0" type="line"/>
      <point x="401" y="728" type="line"/>
    </contour>
    <contour>
      <point x="380" y="575" type="curve"/>
      <point x="497" y="272" type="line"/>
      <point x="205" y="272" type="line"/>
      <point x="328" y="574" type="line"/>
      <point x="336" y="595"/>
      <point x="346" y="626"/>
      <point x="354" y="649" type="curve"/>
      <point x="361" y="626"/>
      <point x="371" y="596"/>
    </contour>
    <contour>
      <point x="454" y="942" type="line"/>
      <point x="444" y="900"/>
      <point x="405" y="878"/>
      <point x="354" y="878" type="curve" smooth="yes"/>
      <point x="303" y="878"/>
      <point x="267" y="898"/>
      <point x="259" y="942" type="curve"/>
      <point x="216" y="942" type="line"/>
      <point x="222" y="862"/>
      <point x="272" y="824"/>
      <point x="358" y="824" type="curve" smooth="yes"/>
      <point x="441" y="824"/>
      <point x="492" y="865"/>
      <point x="498" y="942" type="curve"/>
    </contour>
  </outline>
</glyph>
<glyph name="abreve" format="1">
  <advance width="609"/>
  <unicode hex="0103"/>
  <outline>
    <contour>
      <point x="57" y="219" type="curve" smooth="yes"/>
      <point x="57" y="81"/>
      <point x="140" y="-11"/>
      <point x="260" y="-11" type="curve" smooth="yes"/>
      <point x="321" y="-11"/>
      <point x="394" y="7"/>
      <point x="440" y="83" type="curve"/>
      <point x="454" y="23"/>
      <point x="512" y="-2"/>
      <point x="556" y="-2" type="curve"/>
      <point x="574" y="70" type="line"/>
      <point x="548" y="70"/>
      <point x="511" y="85"/>
      <point x="511" y="143" type="curve" smooth="yes"/>
      <point x="511" y="481" type="line"/>
      <point x="459" y="512"/>
      <point x="398" y="524"/>
      <point x="336" y="524" type="curve" smooth="yes"/>
      <point x="170" y="524"/>
      <point x="57" y="403"/>
    </contour>
    <contour>
      <point x="429" y="436" type="curve"/>
      <point x="429" y="202" type="line" smooth="yes"/>
      <point x="429" y="114"/>
      <point x="351" y="58"/>
      <point x="272" y="58" type="curve" smooth="yes"/>
      <point x="194" y="58"/>
      <point x="142" y="124"/>
      <point x="142" y="224" type="curve" smooth="yes"/>
      <point x="142" y="362"/>
      <point x="219" y="454"/>
      <point x="334" y="454" type="curve" smooth="yes"/>
      <point x="362" y="454"/>
      <point x="401" y="450"/>
    </contour>
    <contour>
      <point x="420" y="727" type="line"/>
      <point x="410" y="685"/>
      <point x="370" y="662"/>
      <point x="319" y="662" type="curve" smooth="yes"/>
      <point x="268" y="662"/>
      <point x="232" y="683"/>
      <point x="224" y="727" type="curve"/>
      <point x="180" y="727" type="line"/>
      <point x="186" y="647"/>
      <point x="236" y="609"/>
      <point x="322" y="609" type="curve" smooth="yes"/>
      <point x="405" y="609"/>
      <point x="456" y="650"/>
      <point x="462" y="727" type="curve"/>
    </contour>
  </outline>
</glyph>
<glyph name="Aogonek" format="1">
  <advance width="712"/>
  <unicode hex="0104"/>
  <outline>
    <contour>
      <point x="308" y="728" type="line"/>
      <point x="6" y="0" type="line"/>
      <point x="100" y="0" type="line"/>
      <point x="178" y="198" type="line"/>
      <point x="526" y="198" type="line"/>
      <point x="608" y="0" type="line"/>
      <point x="704" y="0" type="line"/>
      <point x="401" y="728" type="line"/>
    </contour>
    <contour>
      <point x="533" y="-44" type="curve" smooth="yes"/>
      <point x="517" y="-60"/>
      <point x="500" y="-83"/>
      <point x="500" y="-112" type="curve" smooth="yes"/>
      <point x="500" y="-126"/>
      <point x="502" y="-138"/>
      <point x="508" y="-148" type="curve" smooth="yes"/>
      <point x="525" y="-178"/>
      <point x="561" y="-195"/>
      <point x="608" y="-195" type="curve" smooth="yes"/>
      <point x="640" y="-195"/>
      <point x="674" y="-190"/>
      <point x="697" y="-180" type="curve"/>
      <point x="697" y="-125" type="line"/>
      <point x="674" y="-134"/>
      <point x="652" y="-140"/>
      <point x="620" y="-140" type="curve" smooth="yes"/>
      <point x="594" y="-140"/>
      <point x="570" y="-126"/>
      <point x="570" y="-100" type="curve" smooth="yes"/>
      <point x="570" y="-92"/>
      <point x="573" y="-84"/>
      <point x="578" y="-76" type="curve" smooth="yes"/>
      <point x="599" y="-44"/>
      <point x="638" y="-21"/>
      <point x="672" y="0" type="curve"/>
      <point x="607" y="6" type="line"/>
      <point x="580" y="-7"/>
      <point x="553" y="-24"/>
    </contour>
    <contour>
      <point x="380" y="575" type="curve"/>
      <point x="497" y="272" type="line"/>
      <point x="205" y="272" type="line"/>
      <point x="328" y="574" type="line"/>
      <point x="336" y="595"/>
      <point x="346" y="626"/>
      <point x="354" y="649" type="curve"/>
      <point x="361" y="626"/>
      <point x="371" y="596"/>
    </contour>
  </outline>
</glyph>
<glyph name="aogonek" format="1">
  <advance width="609"/>
  <unicode hex="0105"/>
  <outline>
    <contour>
      <point x="57" y="219" type="curve" smooth="yes"/>
      <point x="57" y="81"/>
      <point x="140" y="-11"/>
      <point x="260" y="-11" type="curve" smooth="yes"/>
      <point x="321" y="-11"/>
      <point x="394" y="7"/>
      <point x="440" y="83" type="curve"/>
      <point x="454" y="23"/>
      <point x="512" y="-2"/>
      <point x="556" y="-2" type="curve"/>
      <point x="574" y="70" type="line"/>
      <point x="548" y="70"/>
      <point x="511" y="85"/>
      <point x="511" y="143" type="curve" smooth="yes"/>
      <point x="511" y="481" type="line"/>
      <point x="459" y="512"/>
      <point x="398" y="524"/>
      <point x="336" y="524" type="curve" smooth="yes"/>
      <point x="170" y="524"/>
      <point x="57" y="403"/>
    </contour>
    <contour>
      <point x="437" y="-38" type="curve" smooth="yes"/>
      <point x="421" y="-54"/>
      <point x="404" y="-77"/>
      <point x="404" y="-106" type="curve" smooth="yes"/>
      <point x="404" y="-120"/>
      <point x="406" y="-132"/>
      <point x="412" y="-142" type="curve" smooth="yes"/>
      <point x="429" y="-172"/>
      <point x="465" y="-188"/>
      <point x="512" y="-188" type="curve" smooth="yes"/>
      <point x="544" y="-188"/>
      <point x="578" y="-184"/>
      <point x="601" y="-174" type="curve"/>
      <point x="601" y="-118" type="line"/>
      <point x="578" y="-127"/>
      <point x="556" y="-134"/>
      <point x="524" y="-134" type="curve" smooth="yes"/>
      <point x="498" y="-134"/>
      <point x="474" y="-119"/>
      <point x="474" y="-93" type="curve" smooth="yes"/>
      <point x="474" y="-85"/>
      <point x="477" y="-77"/>
      <point x="482" y="-69" type="curve" smooth="yes"/>
      <point x="503" y="-37"/>
      <point x="542" y="-15"/>
      <point x="576" y="6" type="curve"/>
      <point x="511" y="12" type="line"/>
      <point x="484" y="-1"/>
      <point x="457" y="-18"/>
    </contour>
    <contour>
      <point x="429" y="436" type="curve"/>
      <point x="429" y="202" type="line" smooth="yes"/>
      <point x="429" y="114"/>
      <point x="351" y="58"/>
      <point x="272" y="58" type="curve" smooth="yes"/>
      <point x="194" y="58"/>
      <point x="142" y="124"/>
      <point x="142" y="224" type="curve" smooth="yes"/>
      <point x="142" y="362"/>
      <point x="219" y="454"/>
      <point x="334" y="454" type="curve" smooth="yes"/>
      <point x="362" y="454"/>
      <point x="401" y="450"/>
    </contour>
  </outline>
</glyph>
<glyph name="Cacute" format="1">
  <advance width="714"/>
  <unicode hex="0106"/>
  <outline>
    <contour>
      <point x="58" y="363" type="curve" smooth="yes"/>
      <point x="58" y="143"/>
      <point x="190" y="-11"/>
      <point x="410" y="-11" type="curve" smooth="yes"/>
      <point x="510" y="-11"/>
      <point x="590" y="16"/>
      <point x="650" y="64" type="curve"/>
      <point x="621" y="134" type="line"/>
      <point x="571" y="90"/>
      <point x="502" y="62"/>
      <point x="412" y="62" type="curve" smooth="yes"/>
      <point x="234" y="62"/>
      <point x="150" y="190"/>
      <point x="150" y="362" type="curve" smooth="yes"/>
      <point x="150" y="538"/>
      <point x="243" y="667"/>
      <point x="420" y="667" type="curve" smooth="yes"/>
      <point x="488" y="667"/>
      <point x="553" y="641"/>
      <point x="603" y="603" type="curve"/>
      <point x="642" y="666" type="line"/>
      <point x="587" y="707"/>
      <point x="521" y="742"/>
      <point x="411" y="742" type="curve" smooth="yes"/>
      <point x="197" y="742"/>
      <point x="58" y="584"/>
    </contour>
    <contour>
      <point x="475" y="961" type="line"/>
      <point x="362" y="801" type="line"/>
      <point x="427" y="801" type="line"/>
      <point x="581" y="961" type="line"/>
    </contour>
  </outline>
</glyph>
<glyph name="cacute" format="1">
  <advance width="512"/>
  <unicode hex="0107"/>
  <outline>
    <contour>
      <point x="45" y="252" type="curve" smooth="yes"/>
      <point x="45" y="112"/>
      <point x="137" y="-11"/>
      <point x="306" y="-11" type="curve" smooth="yes"/>
      <point x="375" y="-11"/>
      <point x="432" y="10"/>
      <point x="494" y="58" type="curve"/>
      <point x="464" y="119" type="line"/>
      <point x="408" y="79"/>
      <point x="362" y="58"/>
      <point x="308" y="58" type="curve" smooth="yes"/>
      <point x="214" y="58"/>
      <point x="130" y="130"/>
      <point x="130" y="254" type="curve" smooth="yes"/>
      <point x="130" y="381"/>
      <point x="218" y="454"/>
      <point x="304" y="454" type="curve" smooth="yes"/>
      <point x="356" y="454"/>
      <point x="398" y="439"/>
      <point x="443" y="401" type="curve"/>
      <point x="478" y="456" type="line"/>
      <point x="428" y="504"/>
      <point x="376" y="524"/>
      <point x="304" y="524" type="curve" smooth="yes"/>
      <point x="176" y="524"/>
      <point x="45" y="424"/>
    </contour>
    <contour>
      <point x="386" y="746" type="line"/>
      <point x="272" y="586" type="line"/>
      <point x="338" y="586" type="line"/>
      <point x="492" y="746" type="line"/>
    </contour>
  </outline>
</glyph>
<glyph name="Ccaron" format="1">
  <advance width="714"/>
  <unicode hex="010C"/>
  <outline>
    <contour>
      <point x="58" y="363" type="curve" smooth="yes"/>
      <point x="58" y="143"/>
      <point x="190" y="-11"/>
      <point x="410" y="-11" type="curve" smooth="yes"/>
      <point x="510" y="-11"/>
      <point x="590" y="16"/>
      <point x="650" y="64" type="curve"/>
      <point x="621" y="134" type="line"/>
      <point x="571" y="90"/>
      <point x="502" y="62"/>
      <point x="412" y="62" type="curve" smooth="yes"/>
      <point x="234" y="62"/>
      <point x="150" y="190"/>
      <point x="150" y="362" type="curve" smooth="yes"/>
      <point x="150" y="538"/>
      <point x="243" y="667"/>
      <point x="420" y="667" type="curve" smooth="yes"/>
      <point x="488" y="667"/>
      <point x="553" y="641"/>
      <point x="603" y="603" type="curve"/>
      <point x="642" y="666" type="line"/>
      <point x="587" y="707"/>
      <point x="521" y="742"/>
      <point x="411" y="742" type="curve" smooth="yes"/>
      <point x="197" y="742"/>
      <point x="58" y="584"/>
    </contour>
    <contour>
      <point x="484" y="962" type="line"/>
      <point x="400" y="854" type="line"/>
      <point x="318" y="962" type="line"/>
      <point x="244" y="962" type="line"/>
      <point x="364" y="800" type="line"/>
      <point x="442" y="800" type="line"/>
      <point x="560" y="962" type="line"/>
    </contour>
  </outline>
</glyph>
<glyph name="ccaron" format="1">
  <advance width="512"/>
  <unicode hex="010D"/>
  <outline>
    <contour>
      <point x="45" y="252" type="curve" smooth="yes"/>
      <point x="45" y="112"/>
      <point x="137" y="-11"/>
      <point x="306" y="-11" type="curve" smooth="yes"/>
      <point x="375" y="-11"/>
      <point x="432" y="10"/>
      <point x="494" y="58" type="curve"/>
      <point x="464" y="119" type="line"/>
      <point x="408" y="79"/>
      <point x="362" y="58"/>
      <point x="308" y="58" type="curve" smooth="yes"/>
      <point x="214" y="58"/>
      <point x="130" y="130"/>
      <point x="130" y="254" type="curve" smooth="yes"/>
      <point x="130" y="381"/>
      <point x="218" y="454"/>
      <point x="304" y="454" type="curve" smooth="yes"/>
      <point x="356" y="454"/>
      <point x="398" y="439"/>
      <point x="443" y="401" type="curve"/>
      <point x="478" y="456" type="line"/>
      <point x="428" y="504"/>
      <point x="376" y="524"/>
      <point x="304" y="524" type="curve" smooth="yes"/>
      <point x="176" y="524"/>
      <point x="45" y="424"/>
    </contour>
    <contour>
      <point x="390" y="746" type="line"/>
      <point x="306" y="639" type="line"/>
      <point x="224" y="746" type="line"/>
      <point x="150" y="746" type="line"/>
      <point x="270" y="585" type="line"/>
      <point x="348" y="585" type="line"/>
      <point x="466" y="746" type="line"/>
    </contour>
  </outline>
</glyph>
<glyph name="Emacron" format="1">
  <advance width="606"/>
  <unicode hex="0112"/>
  <outline>
    <contour>
      <point x="100" y="728" type="line"/>
      <point x="100" y="0" type="line"/>
      <point x="558" y="0" type="line"/>
      <point x="558" y="74" type="line"/>
      <point x="186" y="74" type="line"/>
      <point x="186" y="336" type="line"/>
      <point x="514" y="336" type="line"/>
      <point x="514" y="410" type="line"/>
      <point x="186" y="410" type="line"/>
      <point x="186" y="654" type="line"/>
      <point x="534" y="654" type="line"/>
      <point x="534" y="728" type="line"/>
    </contour>
    <contour>
      <point x="192" y="874" type="line"/>
      <point x="192" y="806" type="line"/>
      <point x="478" y="806" type="line"/>
      <point x="478" y="874" type="line"/>
    </contour>
  </outline>
</glyph>
<glyph name="Eogonek" format="1">
  <advance width="606"/>
  <unicode hex="0118"/>
  <outline>
    <contour>
      <point x="100" y="728" type="line"/>
      <point x="100" y="0" type="line"/>
      <point x="558" y="0" type="line"/>
      <point x="558" y="74" type="line"/>
      <point x="186" y="74" type="line"/>
      <point x="186" y="336" type="line"/>
      <point x="514" y="336" type="line"/>
      <point x="514" y="410" type="line"/>
      <point x="186" y="410" type="line"/>
      <point x="186" y="654" type="line"/>
      <point x="534" y="654" type="line"/>
      <point x="534" y="728" type="line"/>
    </contour>
    <contour>
      <point x="438" y="-44" type="curve" smooth="yes"/>
      <point x="422" y="-60"/>
      <point x="404" y="-83"/>
      <point x="404" y="-112" type="curve" smooth="yes"/>
      <point x="404" y="-126"/>
      <point x="406" y="-138"/>
      <point x="412" y="-148" type="curve" smooth="yes"/>
      <point x="429" y="-178"/>
      <point x="466" y="-195"/>
      <point x="513" y="-195" type="curve" smooth="yes"/>
      <point x="545" y="-195"/>
      <point x="579" y="-190"/>
      <point x="602" y="-180" type="curve"/>
      <point x="602" y="-125" type="line"/>
      <point x="579" y="-134"/>
      <point x="556" y="-140"/>
      <point x="524" y="-140" type="curve" smooth="yes"/>
      <point x="498" y="-140"/>
      <point x="474" y="-126"/>
      <point x="474" y="-100" type="curve" smooth="yes"/>
      <point x="474" y="-92"/>
      <point x="477" y="-84"/>
      <point x="482" y="-76" type="curve" smooth="yes"/>
      <point x="503" y="-44"/>
      <point x="542" y="-21"/>
      <point x="576" y="0" type="curve"/>
      <point x="512" y="6" type="line"/>
      <point x="485" y="-7"/>
      <point x="458" y="-24"/>
    </contour>
  </outline>
</glyph>
<glyph name="eogonek" format="1">
  <advance width="537"/>
  <unicode hex="0119"/>
  <outline>
    <contour>
      <point x="45" y="258" type="curve" smooth="yes"/>
      <point x="45" y="94"/>
      <point x="146" y="-11"/>
      <point x="298" y="-11" type="curve" smooth="yes"/>
      <point x="378" y="-11"/>
      <point x="454" y="21"/>
      <point x="504" y="73" type="curve"/>
      <point x="463" y="126" type="line"/>
      <point x="429" y="88"/>
      <point x="368" y="58"/>
      <point x="298" y="58" type="curve" smooth="yes"/>
      <point x="224" y="58"/>
      <point x="162" y="110"/>
      <point x="142" y="186" type="curve"/>
      <point x="325" y="213"/>
      <point x="471" y="254"/>
      <point x="471" y="376" type="curve" smooth="yes"/>
      <point x="471" y="460"/>
      <point x="402" y="524"/>
      <point x="294" y="524" type="curve" smooth="yes"/>
      <point x="130" y="524"/>
      <point x="45" y="398"/>
    </contour>
    <contour>
      <point x="282" y="-26" type="curve" smooth="yes"/>
      <point x="266" y="-42"/>
      <point x="248" y="-65"/>
      <point x="248" y="-94" type="curve" smooth="yes"/>
      <point x="248" y="-108"/>
      <point x="251" y="-120"/>
      <point x="257" y="-130" type="curve" smooth="yes"/>
      <point x="274" y="-160"/>
      <point x="311" y="-177"/>
      <point x="358" y="-177" type="curve" smooth="yes"/>
      <point x="390" y="-177"/>
      <point x="423" y="-172"/>
      <point x="446" y="-162" type="curve"/>
      <point x="446" y="-107" type="line"/>
      <point x="423" y="-116"/>
      <point x="401" y="-122"/>
      <point x="369" y="-122" type="curve" smooth="yes"/>
      <point x="343" y="-122"/>
      <point x="319" y="-108"/>
      <point x="319" y="-82" type="curve" smooth="yes"/>
      <point x="319" y="-74"/>
      <point x="321" y="-66"/>
      <point x="326" y="-58" type="curve" smooth="yes"/>
      <point x="347" y="-26"/>
      <point x="386" y="-3"/>
      <point x="420" y="18" type="curve"/>
      <point x="356" y="24" type="line"/>
      <point x="329" y="11"/>
      <point x="302" y="-6"/>
    </contour>
    <contour>
      <point x="390" y="378" type="curve" smooth="yes"/>
      <point x="390" y="298"/>
      <point x="279" y="267"/>
      <point x="136" y="245" type="curve"/>
      <point x="135" y="253"/>
      <point x="135" y="263"/>
      <point x="135" y="270" type="curve" smooth="yes"/>
      <point x="135" y="394"/>
      <point x="211" y="454"/>
      <point x="294" y="454" type="curve" smooth="yes"/>
      <point x="354" y="454"/>
      <point x="390" y="424"/>
    </contour>
  </outline>
</glyph>
